<svg version="1.2" xmlns="http://www.w3.org/2000/svg" viewBox="0 0 127 119" width="127" height="119"><style>.a{fill:#5554a4}</style><path fill-rule="evenodd" class="a" d="m60.4 0.4h6.4c0.2 0.1 0.4 0.2 0.6 0.2 6.1 0.6 11.4 3 15.9 6.8 0.5 0.4 1.3 0.6 1.9 0.6q19.4 0.1 38.9 0.1c2.4 0 3 0.6 3 2.8q0 6.8 0 13.5c0 2.2-0.7 2.8-2.9 2.8q-2.6 0-5.2 0v40.1c1.9 0 3.8 0 5.7 0 1.6 0 2.4 0.7 2.4 2.1q0 4.6 0 9.2c0 1.3-0.8 2-2.3 2.1-0.5 0-1.1 0-1.8 0v1.6q0 16.8 0 33.6c0 2.5-0.5 3-3.2 3h-112.3c-2.7 0-3.2-0.5-3.2-3q0-16.8 0-33.6v-1.6c-1.7 0-3.3 0.2-4.1-1.4v-10.6c0.6-1.1 1.5-1.5 2.8-1.4 1.8 0 3.5 0 5.3 0v-40.1c-1.8 0-3.4 0-5.1 0-1.3 0-2.4-0.2-3-1.3v-16.5c0.6-1.1 1.6-1.3 2.9-1.3 12.9 0 25.7 0 38.6 0 1.1 0 1.9-0.3 2.7-1 2.7-2.4 5.9-4.2 9.4-5.2 2.2-0.6 4.4-1 6.6-1.5zm25.8 66.8v-1.3q0-8.6 0-17.1c0-1.8 0.7-2.5 2.7-2.5q3.2 0 6.4 0c2.5 0 3.1 0.5 3.1 2.9q0 8.3 0 16.7v1.3h8.1v-39.9c-0.2 0-0.3-0.1-0.5-0.1q-10.7 0-21.3 0c-0.5 0-1 0.3-1.4 0.6-4.3 3.7-9.3 6-15 6.7-9.2 1.1-17.4-0.7-24.4-6.7-0.4-0.3-1.1-0.6-1.7-0.6-6.8 0-13.6 0-20.3 0-0.4 0-0.8 0-1.2 0.1v39.9h8.1v-1.5q0-9.3 0-18.7c0-2 0.7-2.6 2.8-2.6q10.5 0 21 0c2.2 0 2.8 0.6 2.8 2.7q0 9.4 0 18.8v1.3h16.4v-1.3q0-8.6 0-17.1c0-1.8 0.8-2.5 2.7-2.5q3.2 0 6.5 0c2.5 0 3.1 0.5 3.1 2.9q0 8.3 0 16.6v1.4zm-71.6 47.8v-1.5q0-11.2 0-22.5c0-2.1 0.6-2.7 2.8-2.7q46.3 0 92.5 0c2.3 0 2.9 0.6 2.9 2.8q0 11.3 0 22.5v1.4h6.1v-34.2h-110.4v34.2zm94.1-22.8c-0.5-0.1-0.9-0.1-1.2-0.1q-43.8 0-87.6 0c-1 0-1.3 0.2-1.3 1.2 0.1 6.9 0 13.7 0 20.6 0 0.3 0.1 0.7 0.1 1.1h90zm14.3-21h-118.6v5.5h118.6zm-59.3-40.2c5.9-0.1 11.5-1.4 16.1-5.1 3-2.5 4.7-5.6 4.2-9.4-0.5-3.7-2.8-6.3-5.9-8.3-8.3-5.2-20.5-5.2-28.8 0-7.6 4.7-8.1 12.7-1.1 18.1 4.4 3.5 9.8 4.6 15.5 4.7zm-23.2-18.9h-36.1v11.2h36.1c-1.8-3.8-1.8-7.5 0-11.2zm82.5-0.1h-36.1c1.8 3.8 1.8 7.6 0 11.3h36.1zm-12.1 55.2h3.9v-39.9h-3.9zm-94.4-40h-3.9v40h3.9zm77.8 22.9h-3.9v17.1h3.9zm-61.3 1.7h18.3v-3.6h-18.3zm47-1.8h-3.9v17h3.9zm-47 9.4h18.3v-3.6h-18.3zm18.3 3.9h-18.2v3.7h18.2z"/><path class="a" d="m92.3 113.1q-5.7 0-11.4 0c-0.5 0-1 0-1.4-0.1-1-0.2-1.5-0.9-1.5-1.8 0-0.9 0.6-1.5 1.5-1.8 0.4-0.1 0.9-0.1 1.4-0.1q11.4 0 22.9 0 0.3 0 0.7 0c1.3 0.1 2.1 0.8 2.1 1.9 0 1.1-0.8 1.8-2.1 1.9q-0.5 0-1 0-5.6 0-11.2 0z"/><path class="a" d="m72.9 113.1c-0.4 0-0.8 0-1.2 0-1.1-0.1-1.9-0.9-1.9-1.8 0-1.1 0.7-1.8 1.9-1.9q1.1-0.1 2.2 0c1.2 0 1.9 0.8 2 1.8 0 1-0.8 1.8-2 1.9-0.4 0-0.7 0-1 0z"/><path fill-rule="evenodd" class="a" d="m73.8 17.7c0 5.2-4.6 9.4-10.2 9.5-5.5 0-10.2-4.4-10.2-9.6 0.1-5.2 4.6-9.5 10.2-9.5 5.6 0 10.3 4.3 10.2 9.6zm-10.2-5.8c-3.4 0-6.1 2.6-6.1 5.7 0 3.1 2.7 5.7 6 5.7 3.4 0.1 6.2-2.5 6.3-5.6 0-3.2-2.8-5.8-6.2-5.8z"/></svg>