<svg version="1.2" xmlns="http://www.w3.org/2000/svg" viewBox="0 0 146 138" width="146" height="138"><style>.a{fill:#5554a4}</style><path fill-rule="evenodd" class="a" d="m94.8 135h-48.8c-0.7-0.5-1-1.1-1-2q0.1-29.1 0-58.2v-0.9c-1.2 0-2.5 0-3.7 0-1.3-0.1-1.8-0.6-1.8-1.9 0-2.5 0-5.1 0-7.6 0-0.9 0.2-1.6 1-2h59.9c0.7 0.4 1 1.1 0.9 2 0 2.5 0 5.1 0 7.6 0 1.3-0.5 1.8-1.8 1.9-1.2 0-2.4 0-3.7 0v0.9q0 29.1 0 58.2c0 0.9-0.2 1.5-1 2zm-46.8-2.9h44.9v-10.1h-44.9zm0-13h16.2v-0.8q0-3.1 0-6.2c0-1.7 0.7-3.1 2.3-3.9 1.5-0.9 3.1-0.7 4.6 0.3 0.1 0.1 0.5 0 0.7-0.1 1.1-0.7 2.3-1 3.6-0.6 0.6 0.2 1.1 0.8 1.7 0.8 0.6 0 1.2-0.6 1.8-0.8 1.4-0.4 2.8 0 3.9 0.9q0.2-0.1 0.3-0.2c1.5-1 3-1.2 4.6-0.4 1.6 0.9 2.3 2.3 2.3 4.1q0 2.1 0 4.2v2.7h2.9v-14.4h-44.9zm-5.6-48.1h56v-5.7h-56zm50.5 16.1h-44.9v14.7h2.8q0.7-5.3 1.3-10.4c0.1-1.1 0.6-1.5 1.7-1.5q2.5 0 5 0c1.4 0 1.8 0.4 1.9 1.7q0.4 3.2 0.8 6.3 0.2 1.5 0.4 2.9c0.5-3.1 0.9-6.3 1.3-9.4 0.1-1 0.6-1.5 1.7-1.5q2.6 0 5.2 0c1.1 0 1.6 0.4 1.7 1.5q0.2 1.9 0.5 3.8 0.3 2.9 0.7 5.7c0.5-3.1 0.9-6.2 1.3-9.4 0.1-1.1 0.5-1.6 1.6-1.6q2.7 0 5.4 0 1.4 0 1.6 1.4 0.4 3 0.7 6 0.3 2.2 0.6 4.5h8.7zm-44.9-13.2v10.2h5.7c0-1.9 0-3.8 0-5.7 0-1 0.5-1.6 1.5-1.6q6.1 0 12.3 0c1 0 1.5 0.6 1.5 1.6q0 2.5 0 5v0.7h2.7q0.1-0.1 0.1-0.1 0-2.8 0-5.5c0-1.1 0.6-1.6 1.7-1.7q0.9 0 1.9 0h9.4c2.1 0 2.4 0.3 2.4 2.4v4.9h5.7v-10.2zm18.1 5.9h-9.5v4.3h9.5zm18.2 0h-9.5v4.4h9.5zm-25.2 22c-0.4-3.1-0.7-6-1.1-9h-3.2q-0.5 4.5-1.1 9zm11.1 0c-0.4-3.1-0.7-6-1.1-9h-3.2c-0.4 3-0.7 6-1.1 9zm6.8-9c-0.4 3-0.8 6-1.1 9h5.4c-0.4-3-0.8-6-1.1-9zm-1.3 26.3c0-2.3 0-4.6-0.1-6.9 0-1-0.5-1.7-1.4-1.7-0.8 0-1.4 0.7-1.4 1.7q0 3.2 0 6.4 0 0.2 0.1 0.5zm-5.8 0c0-2.4 0-4.9 0-7.3 0-0.4-0.4-0.9-0.8-1.1-0.9-0.6-2 0.2-2 1.3q0 3.3 0 6.7c0 0.1 0 0.3 0.1 0.4zm11.5 0c0-2.3 0-4.6 0-7-0.1-0.9-0.6-1.6-1.4-1.6-0.9 0-1.5 0.7-1.5 1.7q0 2.6 0 5.1v1.8zm5.8 0c0-2.4 0-4.8-0.1-7.2 0-0.8-0.7-1.4-1.4-1.4-0.8 0.1-1.4 0.7-1.4 1.5q0 2 0 3.9 0 1.6 0 3.2z"/><path class="a" d="m67.1 129.3q-5.2 0-10.3 0c-0.3 0-0.6 0-0.9-0.1-0.6-0.1-1.1-0.7-1.1-1.3 0-0.7 0.4-1.3 1-1.4 0.3-0.1 0.7-0.1 1-0.1q10.4 0 20.7 0c0.3 0 0.7 0 1 0.1 0.7 0.1 1 0.7 1 1.4 0 0.6-0.4 1.2-1.1 1.3q-0.4 0.1-0.9 0.1-5.2 0-10.4 0z"/><circle class="a" cx="84.6" cy="127.8" r="1.4"/><path fill-rule="evenodd" class="a" d="m145.3 40v1.7c-0.9 0.8-1.7 1.6-2.7 2.2-1.9 1.2-3.9 2.2-5.9 3.2-2 1.1-2 1.1-1.4 3.3q1.4 5.5 2.8 11.1c0.3 1.3 0.1 2.4-1 3.3-1.1 0.9-2.2 0.8-3.4 0.1-0.4-0.2-0.7-0.3-1.3-0.6 0 0.7-0.1 1.2-0.1 1.7q0 11.6 0 23.2c0 13.7 0.1 27.5 0 41.2 0 1.3 0.4 1.7 1.7 1.6 2.4-0.1 4.8 0.1 7.2 0 1.7-0.1 3.1 0.4 4.1 1.9v1.7c-0.7 1.6-1.9 2.1-3.6 2.1q-69 0-138 0c-1.7 0-2.9-0.5-3.6-2.1v-1.7c1-1.5 2.4-2 4.1-1.9 2.3 0.1 4.7-0.1 7.1 0 1.4 0.1 1.8-0.3 1.8-1.7-0.1-21.5-0.1-42.9-0.1-64.3 0-0.5 0-1 0-1.7-0.4 0.2-0.7 0.3-0.9 0.4-1.3 0.8-2.6 1.1-3.8 0.1-1.3-1-1.2-2.3-0.9-3.7 1.1-3.9 2-7.8 3-11.7 0.3-0.9 0.1-1.4-0.8-1.8q-3.5-1.7-6.8-3.7c-1-0.6-1.8-1.4-2.7-2.2v-1.7c0.8-0.7 1.5-1.6 2.5-2.2 3.8-2.1 7.7-4.1 11.6-6.1q2.6-1.4 5.3-2.8c-0.8-2.7-1.5-5.2-2.3-7.8-0.6-2.2-0.3-3.1 1.7-4.4 7.7-5 15.9-9 24.8-11.5 5.1-1.5 10.3-2.4 15.6-3.5 1.8-0.3 3 0.6 3.4 2.2 0.3 1.8-0.9 3.2-3.1 3.5-8.8 1.2-17.3 3.6-25.3 7.3-3.8 1.8-7.5 3.9-11.3 5.8 2.1 7.4 4.1 14.4 6.1 21.3 29.1-16 58.1-16.1 87.2 0 2-6.7 3.9-13.5 5.9-20.2 0.2-0.9-0.2-1.1-0.8-1.4-3.8-2-7.5-4.2-11.4-6-8.1-3.7-16.6-5.8-25.4-7.1-1.8-0.2-2.8-1.5-2.6-3.2 0.2-1.6 1.7-2.6 3.4-2.3q1.5 0.2 3 0.4c13.7 2.2 26.4 7.1 38 14.6 2.2 1.4 2.4 2.2 1.7 4.7q-1.1 3.7-2.1 7.6c5.7 3 11.3 5.9 16.8 8.9 1 0.5 1.7 1.5 2.5 2.2zm-30.6 91.9v-1.8c0-24.4-0.1-48.8 0-73.1 0-1.8-0.3-3-2.1-3.7-1.7-0.7-2.1-2-1.7-3.8 0.2-0.7 0.4-1.5 0.7-2.3 0.4-0.9 0.1-1.4-0.8-1.8q-15.4-8.5-32.9-9.7c-14.8-1-28.9 2.1-42 9-2.4 1.2-2.4 1.3-1.7 3.9 0.8 3.1 0.6 3.7-2.2 5.2-1 0.5-1.3 1.1-1.3 2.2q0 37.2 0 74.4v1.5zm5.8-74.3v74.3h6.3v-1.7q0-33.8 0-67.6c0-0.3 0-0.7-0.1-1 0-0.3-0.2-0.6-0.4-0.8-1.9-1-3.8-2.1-5.8-3.2zm-95.4 0c-1.7 1-3.3 1.9-5 2.7-1 0.5-1.3 1.1-1.3 2.3q0 33.8 0 67.7v1.6h6.3zm-16-16.8c2.1 1.2 4 2.2 5.9 3.2 1.7 1 2.2 1.9 1.7 3.8q-0.9 3.5-1.8 7c-0.1 0.6-0.2 1.2-0.4 2.1 4.7-2.5 9-4.9 13.6-7.5-1.9-0.1-2.9-0.8-3.3-2.3q-0.3-0.9-0.5-1.8c-1.1-3.6-2.1-7.1-3.2-10.9-4 2.2-7.9 4.2-12 6.4zm108.3 8.6c4.7 2.6 9.1 5 13.7 7.5-0.8-3.2-1.5-6-2.2-8.8-0.5-2.2-0.2-3.1 1.8-4.2 1.9-1 3.7-2 5.8-3.1-4.2-2.2-8.1-4.2-12.1-6.4-1.2 4.2-2.3 8.2-3.4 12.2-0.5 1.6-1.4 2.7-3.6 2.8z"/><path class="a" d="m72.4 15c12.6 0.4 24.7 3 36 8.6 2.3 1.1 3.1 2.6 2.3 4.2-0.8 1.8-2.4 2-4.9 0.8-13.4-6.4-27.4-8.8-42.2-7.1-8.9 1-17.4 3.5-25.4 7.5-1.7 0.8-3.4 0.3-4.1-1.2-0.8-1.4-0.2-3 1.5-3.8 7.2-3.8 14.9-6.2 22.9-7.5 4.6-0.7 9.3-1 13.9-1.5z"/><ellipse class="a" cx="72.4" cy="3.6" rx="2.8" ry="2.8"/></svg>