<svg version="1.2" xmlns="http://www.w3.org/2000/svg" viewBox="0 0 160 106" width="160" height="106"><style>.a{fill:#5554a4}</style><path class="a" d="m71.6 3.4q0-0.3 0-0.5 0 0 0-0.1z"/><path fill-rule="evenodd" class="a" d="m159.8 14c0 1.9-0.8 2.7-2.7 2.7-1.7 0-3.5 0-5.4 0v1.4q0 42.4 0 84.8c0 1.3-0.3 2.2-1.4 2.9h-71.2c-1.1-0.7-1.4-1.6-1.4-2.9q0-42.4 0-84.8v-1.4h4.3v14.9h8.3c0-2.9 0-5.6 0-8.4 0-1.4 0.8-2.2 2.2-2.2q9 0 17.9 0c1.5 0 2.2 0.8 2.2 2.3q0 3.6 0 7.2v1.1h4c0.1-0.1 0.1-0.2 0.1-0.2q0-4 0.1-8c0-1.7 0.7-2.4 2.4-2.4q1.4 0 2.7 0h13.8c3 0 3.4 0.4 3.4 3.4v7.2h8.3v-14.9h-76.8v-4.2h84.9v-8.3h-84.9v-4.3h87.7c1.2 0.7 1.5 1.7 1.5 3-0.1 3.7 0 7.4 0 11.1zm-38.8 17.6h13.9v-6.4h-13.9zm-26.5 0h13.9v-6.3h-13.9zm-12.5 25.7h4.1c0.6-5.1 1.3-10.1 1.9-15.1 0.2-1.6 0.9-2.2 2.5-2.2q3.6 0 7.2 0c2 0 2.6 0.5 2.9 2.5q0.5 4.6 1.1 9.1 0.3 2.2 0.6 4.3c0.7-4.6 1.3-9.1 1.8-13.7 0.2-1.5 0.9-2.2 2.5-2.2q3.8 0 7.6 0c1.6 0 2.3 0.6 2.5 2.2 0.3 1.8 0.5 3.7 0.7 5.5q0.5 4.2 1 8.4c0.8-4.6 1.3-9.2 1.9-13.7 0.2-1.7 0.8-2.4 2.4-2.4q3.9 0 7.9 0 2 0 2.3 2 0.5 4.4 1 8.7 0.4 3.4 0.9 6.7h12.6v-21.4h-65.4zm46.9-13.1h-4.6c-0.6 4.4-1.1 8.7-1.6 13.1h7.8c-0.5-4.4-1-8.8-1.6-13.1zm-16.2 0h-4.6c-0.5 4.4-1.1 8.7-1.6 13.1h7.9c-0.6-4.4-1.1-8.8-1.7-13.1zm-16.1 0h-4.7c-0.5 4.4-1 8.7-1.6 13.1h7.9c-0.5-4.4-1.1-8.8-1.6-13.1zm50.8 42.7h-65.4v14.6h65.4zm-37.5-4.9c0 0.2 0 0.4 0.1 0.7h4c0-3.7 0-7.2-0.1-10.7 0-0.6-0.6-1.3-1.1-1.6-1.3-0.9-2.9 0.2-2.9 1.9-0.1 3.2 0 6.4 0 9.7zm8.3-0.2q0 0.4 0.1 0.8h4.1c0-3.4 0-6.7-0.1-10.1 0-1.5-0.8-2.4-2-2.4-1.3 0-2.1 1-2.1 2.4q0 4.7 0 9.3zm12.5 0.8c0-3.4 0-6.8 0-10.1 0-1.5-0.8-2.4-2-2.4-1.3 0-2.1 0.9-2.1 2.4q0 3.8 0 7.5v2.6zm8.3 0c0-3.5 0.1-7.1 0-10.6 0-1.1-1-2-2.1-1.9-1.1 0-2 0.9-2 2.1 0 1.9 0 3.9 0 5.8q0 2.3 0 4.6zm8.4-21h-65.5v21h23.7v-1.1q0-4.5 0-9c0-2.6 1-4.6 3.3-5.8 2.3-1.2 4.5-1 6.7 0.4 0.2 0.2 0.7 0.1 1 0 1.6-1.1 3.4-1.5 5.3-0.9 0.9 0.2 1.7 1.1 2.5 1.1 0.8 0 1.6-0.9 2.5-1.1 2.2-0.7 4.1-0.1 5.8 1.3q0.3-0.2 0.4-0.3c2.2-1.5 4.4-1.8 6.7-0.6 2.3 1.3 3.4 3.3 3.4 5.9q0 3.1 0 6.2v3.9h4.2z"/><path fill-rule="evenodd" class="a" d="m82.2 18.1q0 42.4 0 84.8c0 1.3-0.3 2.2-1.4 2.9h-71.1c-1.2-0.7-1.5-1.6-1.5-2.9q0-42.4 0-84.8v-1.4c-1.8 0-3.6 0-5.4 0-1.9 0-2.6-0.8-2.6-2.7 0-3.7 0-7.4-0.1-11.1 0-1.3 0.4-2.3 1.5-3h69v4.3h-66.2v8.3h66.2v4.2h11.6zm-21.1 21.9q2 0 2.3 2 0.5 4.4 1.1 8.7 0.4 3.3 0.8 6.6h12.7v-21.3h-65.5v21.3h4.1c0.7-5.1 1.3-10.1 1.9-15.1 0.2-1.6 0.9-2.2 2.5-2.2q3.6 0 7.2 0c2.1 0 2.7 0.5 2.9 2.5q0.6 4.6 1.1 9.1 0.3 2.2 0.6 4.3c0.7-4.6 1.3-9.1 1.9-13.7 0.2-1.5 0.9-2.2 2.4-2.2q3.8 0 7.7 0c1.5 0 2.2 0.6 2.4 2.2 0.3 1.8 0.5 3.7 0.7 5.5q0.5 4.2 1.1 8.4c0.7-4.6 1.3-9.2 1.8-13.8 0.2-1.6 0.9-2.3 2.4-2.3q4 0 7.9 0zm-1.7 4.2h-4.6c-0.5 4.5-1.1 8.8-1.6 13.1h7.9c-0.6-4.4-1.1-8.7-1.7-13.1zm-16.1 0h-4.7c-0.5 4.4-1 8.7-1.6 13.2h7.9c-0.5-4.5-1.1-8.8-1.6-13.2zm-16.2 0h-4.6c-0.6 4.4-1.1 8.8-1.7 13.2h7.9c-0.5-4.5-1-8.8-1.6-13.2zm-14.6-12.6h8.3c0-2.9 0-5.6 0-8.4 0-1.4 0.8-2.2 2.3-2.2q8.9 0 17.8 0c1.5 0 2.3 0.8 2.3 2.3q0 3.6 0 7.2v1.1h4c0-0.1 0.1-0.2 0.1-0.2q0-4 0-8c0-1.7 0.7-2.4 2.4-2.4q1.4 0 2.8 0h13.7c3.1 0 3.4 0.4 3.4 3.4v7.2h8.4v-14.9h-65.5zm39 0h13.9v-6.3h-13.9zm-26.4 0h13.9v-6.4h-13.9zm52.8 55.4h-65.4v14.6h65.4zm-37.5-4.9c0 0.2 0.1 0.4 0.1 0.7h4c0-3.7 0-7.2 0-10.7-0.1-0.6-0.6-1.3-1.1-1.6-1.4-0.9-3 0.2-3 1.9 0 3.2 0 6.4 0 9.7zm8.3-0.2q0.1 0.4 0.1 0.8h4.1c0-3.4 0-6.7 0-10.1 0-1.5-0.9-2.4-2.1-2.4-1.2 0-2 1-2.1 2.4q0 4.7 0 9.3zm12.5 0.8c0-3.4 0.1-6.8 0-10.1 0-1.5-0.8-2.4-2-2.4-1.2 0-2.1 0.9-2.1 2.4q0 3.8 0 7.5v2.6zm8.4 0c0-3.6 0-7.1-0.1-10.6 0-1.1-1-2-2.1-1.9-1.1 0-1.9 0.9-1.9 2.1-0.1 1.9-0.1 3.9-0.1 5.8q0 2.3 0 4.6zm8.4-21h-65.5v21h23.7v-1.1q0-4.5 0-9c0-2.6 1.1-4.6 3.3-5.8 2.3-1.2 4.5-1 6.7 0.4 0.2 0.2 0.8 0.1 1 0 1.7-1.1 3.4-1.5 5.3-0.9 0.9 0.2 1.7 1.1 2.5 1.1 0.9 0 1.7-0.9 2.6-1.1 2.1-0.7 4.1-0.1 5.8 1.3q0.2-0.2 0.4-0.3c2.1-1.5 4.4-1.8 6.7-0.6 2.3 1.3 3.3 3.3 3.3 5.9q0 3.1 0 6.2v3.9h4.2z"/></svg>