<svg version="1.2" xmlns="http://www.w3.org/2000/svg" viewBox="0 0 107 107" width="107" height="107"><style>.a{fill:#5554a4}</style><path fill-rule="evenodd" class="a" d="m0.6 47.1v-2c0.8-2.7 2.5-4.5 5.4-4.9 0-0.4 0-0.7 0-1-0.5-7.1-0.7-14.1-0.2-21.2q0.2-4.4 0.8-8.8c0.4-3.8 2.6-6.5 6.1-8 0.8-0.3 1.6-0.5 2.4-0.8h76.9q0.3 0.1 0.6 0.2c4.2 1.1 6.9 3.7 7.8 7.9 0.4 2.1 0.6 4.3 0.7 6.4 0.1 6.5 0.2 13 0.2 19.4 0 2-0.2 3.9-0.3 5.9 3.5 0.9 5.3 2.8 5.4 5.7q0.1 1.9-1 3.6c-1.2 1.6-2.8 2.4-4.7 2.5v42.5q0.6 0.1 1 0.2c2.8 0.5 4.8 3 4.7 5.8 0 3.4-2.6 5.8-6.2 5.8q-38.9 0-77.8 0c-1.6 0-2.3-0.5-2.3-1.5-0.1-1.1 0.7-1.6 2.4-1.6h77.1q0.6 0 1.1 0c1.5-0.2 2.6-1.2 2.6-2.6 0.1-1.4-0.8-2.6-2.3-2.9-0.4-0.1-0.8-0.1-1.2-0.1q-8 0-15.9 0-38.4 0-76.8 0c-2.1 0-3.4 1.1-3.4 2.8 0 1.7 1.3 2.8 3.4 2.8q4.1 0 8.2 0c1 0 1.6 0.6 1.6 1.5 0 0.9-0.6 1.6-1.6 1.6-3.1 0-6.1 0-9.1-0.1-2 0-3.5-0.9-4.6-2.6-0.4-0.6-0.7-1.4-1-2.1v-2.3c0.7-2 1.9-3.7 4.1-4.4 0.5-0.1 1.1-0.2 1.6-0.4v-42.3c-0.7-0.2-1.4-0.3-2.1-0.6-2-0.8-3-2.4-3.6-4.4zm13.5 47.4c0-3.2-0.1-6.2 0-9.3 0-1 0.3-2 0.5-3 0-0.2 0.1-0.4 0-0.6-0.1-1.2-0.7-2.4-0.5-3.5 0.4-1.9 0.1-3.8 0-5.7-0.2-2.6-0.1-5.1 0-7.6 0-0.9 0.3-1.9 0.5-2.8 0-0.2 0-0.5 0-0.7-0.2-1.1-0.5-2.2-0.5-3.3-0.1-2.7 1.2-3.9 3.8-3.9 2.1 0 4.2 0 6.3 0 2.1-0.1 4.1 0.3 6.2 0.1 2.9-0.3 5.7-0.1 8.6-0.1 2 0 3.3 1.4 3.4 3.4 0 0.4 0 0.9-0.1 1.3-0.1 1-0.5 2-0.5 3 0 1 0.5 2 0.5 3q0.2 3.6 0 7.2c0 1.1-0.3 2.1-0.5 3.2q0 0.2 0 0.5c0.2 1.2 0.5 2.3 0.5 3.4 0 1-0.5 2-0.5 3 0 1 0.5 2.1 0.5 3.1 0.1 3.1 0.1 6.2 0.1 9.2h6.3c0-3.2 0-6.3 0-9.4 0.1-1 0.4-1.9 0.5-2.8 0.1-0.2 0.1-0.4 0.1-0.6q-1.3-2.9 0-5.9c0-0.1 0-0.4-0.1-0.5-0.1-1-0.4-2-0.5-3q-0.1-3.6 0-7.2c0.1-1 0.4-2.1 0.5-3.1 0.1-0.2 0.2-0.4 0.1-0.5-0.9-1.3-0.6-2.8-0.6-4.2 0.1-1.7 1.3-3 2.9-3.1q5-0.1 9.9 0c1.3 0.1 2.5 1.1 2.7 2.4 0.3 1.6 0.5 3.2-0.3 4.8-0.1 0.1 0 0.5 0 0.7 0.2 0.9 0.5 1.8 0.5 2.7 0 3.2 0 6.3 0 9.5h4c0-3.1 0-6.2 0-9.2 0-1 0.3-2 0.5-3.1 0-0.1 0.1-0.4 0.1-0.5-0.9-1.3-0.6-2.7-0.6-4.1 0-1.8 1.3-3.2 3.2-3.2q4.6-0.1 9.3 0c1.8 0 3.1 1.4 3.2 3.2 0 0.7 0.2 1.5 0 2.2-0.5 1.5-0.2 2.9-0.1 4.3 0.2 3.5 0.1 6.9 0.1 10.5 0.7 0 1.4 0 2.2 0 1.6 0.1 3 1 3.2 2.4 0.2 1.6 0.4 3.3-0.4 4.8-0.1 0.2-0.1 0.4 0 0.7 0.1 1 0.4 2 0.5 3 0 3.1 0 6.1 0 9.3h7.9v-42.5h-87.9v42.5zm83.4-84.8c-0.1-0.4-0.1-0.8-0.3-1.1-0.9-3.2-3.5-5.1-7.1-5.1q-32.4 0-64.8 0c-2.9 0-5.9 0-8.8 0-3.1 0.1-5.8 2.1-6.6 5.1-0.1 0.3-0.2 0.7-0.2 1.2 0.6-0.1 1.1-0.3 1.5-0.3q9.6-0.9 19.2 0c3.4 0.3 5.6 2.4 5.7 5.8 0.2 6.6 0.1 13.3 0.1 19.9 0.1 1.7-0.1 3.3-0.2 5h2.6c0-0.2 0-0.3 0-0.4-0.7-8.2-0.7-16.3-0.1-24.5 0.2-3.2 2.3-5.5 5.5-5.8q9.6-0.9 19.3 0c2.9 0.3 5.1 2.6 5.3 5.5 0.6 7.9 0.6 15.8 0 23.8q-0.1 0.6-0.1 1.4h2.6c-0.1-1.8-0.2-3.5-0.3-5.3q-0.1-5.3-0.2-10.5c0-1.1 0.7-1.8 1.6-1.8 0.9 0 1.5 0.7 1.5 1.8q0 0.2 0 0.5c0.1 2.7 0 5.4 0.1 8.1 0.1 2.4 0.3 4.7 0.5 7.1 0.2 0.1 0.3 0.1 0.4 0.1q11.2 0 22.5 0.1c0.6 0 0.7-0.4 0.8-0.9 0.6-7.9 0.7-15.9 0.1-23.8-0.2-2-1-2.9-3-3.1q-9-0.8-18 0c-2 0.2-2.9 1.2-3 3.3-0.1 0.8-0.1 1.7-0.2 2.5-0.2 0.8-0.8 1.2-1.6 1.2-0.9-0.1-1.4-0.6-1.4-1.4 0-1.4 0-2.9 0.4-4.3 0.6-2.4 2.3-4 4.8-4.3 7-0.7 14.1-0.7 21.4 0.2zm-43.9 39.2q23 0 45.9 0 0.7 0 1.4-0.1c1.4-0.1 2.5-1.3 2.5-2.7 0-1.4-1.1-2.5-2.5-2.7q-0.6-0.1-1.2 0-46.2 0-92.3 0-0.6-0.1-1.2 0c-1.4 0.2-2.5 1.3-2.5 2.7 0.1 1.4 1.1 2.6 2.4 2.7 0.5 0.1 1 0.1 1.5 0.1q23 0 46 0zm11.6-8.7c0.1-0.1 0.1-0.2 0.2-0.3 0.7-8.2 0.7-16.5 0.1-24.7-0.1-1.4-1.1-2.4-2.5-2.6-1.1-0.2-2.3-0.3-3.4-0.3-5.1 0.1-10.2 0.1-15.3 0.3-1.7 0-2.6 1.2-2.7 2.9q-0.7 9.8-0.2 19.6c0.1 1.7 0.2 3.4 0.4 5.1zm-32.4 0c0.1-1.9 0.3-3.6 0.3-5.4q0-9.7-0.2-19.3c0-1.8-1-2.8-2.8-3q-9.1-0.8-18.3 0c-1.8 0.2-2.7 1.2-2.8 3-0.6 7.9-0.5 15.9 0.1 23.8 0 0.8 0.3 1 1.1 1q10.8-0.1 21.6 0c0.3 0 0.6-0.1 1-0.1zm-15.7 48.6q0 2.1 0 4.1c0 1.2 0.4 1.6 1.6 1.6q3.2 0 6.4 0c1.1 0 1.5-0.4 1.5-1.5q0-4.2 0-8.4c0-1.2-0.4-1.6-1.5-1.6q-3.2 0-6.4 0c-1.2 0-1.6 0.4-1.6 1.7q0 2 0 4.1zm22.1 0q0-2.2 0-4.3c0-1-0.4-1.5-1.3-1.5q-3.4 0-6.8 0-1.4 0-1.4 1.5 0 4.3 0 8.6c0 1 0.5 1.4 1.5 1.4q3.2 0 6.5 0c1.1 0 1.5-0.4 1.5-1.6q0-2 0-4.1zm12.6 0q0 2.1 0 4.3c0 0.9 0.4 1.4 1.3 1.4q3.4 0 6.8 0c0.9 0 1.4-0.5 1.4-1.4q0-4.3 0-8.6c0-1-0.5-1.5-1.4-1.5q-3.4 0-6.7 0c-1 0-1.4 0.6-1.4 1.5q0 2.1 0 4.3zm12.6-0.1q0 2.2 0 4.4 0 1.4 1.4 1.4 3.3 0 6.6 0c1 0 1.4-0.4 1.4-1.4 0.1-2.9 0.1-5.7 0.1-8.6 0-1-0.5-1.5-1.5-1.5q-3.3 0-6.6 0c-0.9 0-1.4 0.5-1.4 1.5q0 2.1 0 4.2zm-34.7-20.2q0 2.2 0 4.3c0 1.1 0.4 1.5 1.5 1.5q3.3 0 6.5 0c1.1 0 1.5-0.4 1.5-1.5q0-4.3 0-8.5c0-1.1-0.4-1.5-1.5-1.5q-3.2 0-6.5 0c-1.1 0-1.5 0.4-1.5 1.5q0 2.1 0 4.2zm41.8 0q0 2.1 0 4.2c0 1.2 0.3 1.6 1.5 1.6q3.2 0 6.4 0c1.2 0 1.6-0.4 1.6-1.6q0-4.2 0-8.4c-0.1-1.1-0.5-1.5-1.6-1.5q-3.2 0-6.4 0c-1.2 0-1.5 0.4-1.5 1.6q0 2 0 4.1zm-19.7 0.1q0 2.1 0 4.3 0 1.4 1.4 1.4 3.3 0 6.6 0c1 0 1.4-0.4 1.5-1.4q0-4.4 0-8.7c0-0.9-0.5-1.4-1.5-1.4-2.2 0-4.4 0-6.6 0-1.1 0-1.4 0.4-1.4 1.5q0 2.1 0 4.3zm-25.2 0q0-2.2 0-4.4 0-1.4-1.4-1.4-3.3 0-6.7 0c-0.9 0-1.4 0.5-1.4 1.4q0 4.3 0 8.7c0 0.9 0.5 1.4 1.4 1.4q3.4 0 6.7 0 1.4 0 1.4-1.4 0-2.1 0-4.3zm59.8 20.2q0-2.2 0-4.3 0-1.5-1.4-1.5-3.3 0-6.6 0c-1 0-1.4 0.5-1.4 1.5 0 2.9-0.1 5.7 0 8.6 0 1 0.4 1.4 1.4 1.4q3.3 0 6.5 0c1.1 0 1.5-0.4 1.5-1.5 0.1-1.4 0-2.8 0-4.2zm-14.9-29.1c3.1 0 6 0 9 0 0.1 0 0.4-0.3 0.4-0.5 0.1-0.6 0.1-1.3 0.1-2h-9.5zm-19.7 0.1c2.7 0 5.3 0 7.9 0 1.6 0 1.6 0 1.6-1.7 0-0.7-0.3-0.9-1-0.9-2.2 0.1-4.3 0-6.5 0h-2zm-25.3 20.2v-2.5c-3 0-5.9 0-8.8 0-0.2 0-0.5 0.4-0.6 0.7-0.1 0.3 0 0.6 0 1-0.1 0.7 0.2 0.9 0.9 0.8 1.3 0 2.7 0 4 0q2.3 0 4.5 0zm34.8 0c0-0.5-0.1-0.9 0-1.3 0.1-0.9-0.2-1.2-1.2-1.2-1.8 0.1-3.7 0-5.5 0h-2.7v2.5zm12.5-2.5h-7.3c-2.3 0-2.3 0-2.1 2.3 0 0 0.1 0.1 0.1 0.2h9.3zm-56.7-20.2c0 0.5 0.1 0.9 0 1.3-0.1 0.9 0.2 1.2 1.2 1.2 2.1-0.1 4.2 0 6.2 0h2.1v-2.5zm22 20.3h-9.4v2.3h9.4zm0-20.2h-9.4v2.3h9.4zm37.8 22.6h9.5c0-0.7 0.1-1.2 0-1.8-0.1-0.2-0.5-0.6-0.7-0.6q-4.1-0.1-8.1 0c-0.3 0-0.6 0.3-0.7 0.5 0 0.6 0 1.2 0 1.9z"/><path fill-rule="evenodd" class="a" d="m85.8 35.8c-2.5-0.1-5-0.8-7.1-2.7-2.9-2.7-3-6.7-0.2-9.5 3.8-3.7 10.9-3.9 14.8-0.3 3.4 3.1 3 7.8-0.9 10.6-1.9 1.3-4.1 1.9-6.6 1.9zm-0.3-3.1c2.5 0 4.5-0.7 5.7-1.8 1.8-1.6 1.8-3.6 0.1-5.2-2.7-2.5-8-2.5-10.6 0-1.5 1.6-1.5 3.6 0.1 5.1 1.5 1.4 3.3 1.8 4.7 1.9z"/><path fill-rule="evenodd" class="a" d="m52.9 35.8c-2.1-0.1-4.6-0.8-6.7-2.7-3.1-2.8-3-7.1 0.1-9.8 3.9-3.4 10.4-3.4 14.3-0.2 3.3 2.8 3.3 7.2 0.1 10.1-1.8 1.6-4.4 2.6-7.8 2.6zm0.7-3.1c1.7-0.1 3.4-0.5 4.8-1.6 2.1-1.6 2.1-4 0.1-5.7-2.7-2.1-7.2-2.1-9.9 0-2.1 1.7-2.1 4.1 0.1 5.8 1.4 1 3.1 1.5 4.9 1.5z"/><path fill-rule="evenodd" class="a" d="m20.9 35.8c-2.7-0.1-5.2-0.8-7.3-2.8-2.9-2.7-2.9-6.7 0-9.5 3.8-3.7 11-3.7 14.8 0 3 2.8 2.9 7-0.3 9.8-2 1.7-4.4 2.4-7.2 2.5zm-0.4-3.1c2.5 0 4.4-0.7 5.6-1.8 1.8-1.5 1.8-3.6 0.2-5.2-2.7-2.5-8-2.5-10.6 0.1-1.6 1.5-1.6 3.4 0 4.9 1.5 1.5 3.3 1.9 4.8 2z"/></svg>