<svg version="1.2" xmlns="http://www.w3.org/2000/svg" viewBox="0 0 64 120" width="64" height="120"><style>.a{fill:#5553a4}</style><path fill-rule="evenodd" class="a" d="m1.6 0.7h61.3c0.8 0.7 1 1.6 1 2.7q0 57 0 114 0 0.4 0 0.8c-0.2 1.3-0.7 1.9-2 1.9q-2.6 0-5.3 0c-0.2 0-0.5-0.1-0.7-0.3-0.7-0.4-0.8-1.1-0.8-1.9q-0.1-3.1-0.1-6.3v-0.7h-45.5v0.8c0 2.1 0 4.2 0 6.3 0 1.5-0.7 2.1-2.1 2.1q-2.5 0-5.1 0c-0.7 0-1.2-0.4-1.4-1.1q-0.2-0.8-0.2-1.6 0-56.9-0.1-113.7c0-1.2 0.1-2.2 1-3zm35.4 63.4h18v-16.7h-0.9q-7.6 0-15.3 0c-0.5 0-0.8-0.1-1.1-0.5-0.7-0.9-0.8-2.7-0.2-3.5 0.3-0.5 0.7-0.8 1.3-0.8 5.2 0 10.3 0 15.4 0h0.8v-5.4h-45.5v5.4h0.8q7.8 0 15.5 0c0.3 0 0.6 0.1 0.8 0.3 1.1 0.9 1 3 0.4 3.8-0.3 0.5-0.7 0.7-1.4 0.7-5.1 0-10.2 0-15.3 0h-0.8v16.7h3.3v-0.8q0-4 0-7.9 0-0.7 0.2-1.2c0.2-0.9 0.7-1.3 1.6-1.3q4 0 8 0c0.9 0 1.4 0.4 1.6 1.3q0.2 0.6 0.2 1.2 0 4 0 7.9v0.8h3.2v-0.8q0-3.9 0-7.9 0-0.6 0.1-1.2c0.3-0.9 0.8-1.3 1.7-1.3q2.9 0 5.8 0c0.8 0 1.4 0.4 1.6 1.2q0.2 0.7 0.1 1.4 0.1 4.3 0.1 8.6zm-27.5 31.7h15.9v-0.9c0-2.7-0.1-5.4 0-8.1 0-1.3 0.4-2.2 2-2.1 2.6 0.1 5.2 0 7.8 0 1 0 1.3 0.2 1.6 1.2q0.1 0.6 0.1 1.2 0.1 4 0.1 7.9v0.8h3.1v-1c0-2.7 0-5.3 0.1-8 0-1.3 0.4-2.2 2-2.1 2.6 0.1 5.2 0 7.8 0 1 0 1.3 0.2 1.6 1.2q0.1 0.6 0.1 1.2 0 4 0 7.9v0.8h3.3v-16.7h-45.5zm45.5-80.1h-45.5v16.6h3.3q0-1.1 0-2.2 0-3.4 0-6.7c0-1.6 0.6-2.1 2.1-2.1q3.9-0.1 7.9 0c0.2 0 0.5 0.1 0.7 0.2 0.8 0.4 0.9 1.2 0.9 2q0 4 0 8.1v0.7h3.2v-1.2q0-3.8 0-7.6c0-1.7 0.6-2.2 2.1-2.2q2.8-0.1 5.6 0c0.3 0 0.6 0.1 0.8 0.2 0.7 0.4 0.8 1.2 0.8 2q0.1 3.5 0.1 7.1v1.7h3.1q0-1.9 0-3.8 0-2.5 0-5.1c0.1-1.6 0.7-2.1 2.1-2.1q3.9-0.1 7.9 0c0.3 0 0.5 0.1 0.8 0.2 0.7 0.4 0.8 1.2 0.8 2q0 4 0 8.1v0.7h3.3zm6.1-10.2h-3.3v110h3.3zm-57.6 110.1h3.2v-110.1h-3.2zm6-104.5h45.5v-5.5h-45.5zm45.5 57.9h-45.5v5.5h45.5zm0 31.8h-45.5v5.4h45.5zm-33.4-74.7h-6v6.4h6zm21.3 6.5h6v-6.5h-6zm-27.3 31.8h6v-6.4h-6zm12.6 31.7h6v-6.4h-6zm20.7-6.4h-6v6.4h6zm-18.5-57.1h3.7v-6.4h-3.7zm3.7 25.4h-3.7v6.4h3.7z"/><path class="a" d="m45.7 66.3c0 1-0.2 1.8-0.8 2.3-0.4 0.4-0.7 0.4-1.1 0-1.1-1-1.1-3.2 0-4.2 0.4-0.4 0.7-0.4 1.1 0 0.6 0.5 0.8 1.3 0.8 1.9z"/></svg>