<svg version="1.2" xmlns="http://www.w3.org/2000/svg" viewBox="0 0 101 119" width="101" height="119"><style>.a{fill:#5554a4}</style><path fill-rule="evenodd" class="a" d="m90.3 118.8h-79.4c-1.2-0.7-1.6-1.8-1.6-3.2q0-47.3 0-94.6v-1.6c-2.1 0-4.1 0-6.1 0-2.1 0-2.9-0.9-2.9-3 0-4.1 0.1-8.3 0-12.4 0-1.5 0.3-2.6 1.6-3.3h97.4c1.3 0.7 1.6 1.8 1.6 3.3 0 4.1 0 8.3 0 12.4 0 2.1-0.8 3-2.9 3-2 0-4 0-6.1 0v1.6q0 47.3 0 94.6c0 1.4-0.3 2.5-1.6 3.2zm-76.2-4.7h73v-16.4h-73zm0-21.1h26.4v-1.3q0-5.1 0-10.1c0-2.8 1.2-5.1 3.7-6.4 2.5-1.4 5-1.1 7.4 0.4 0.3 0.2 0.9 0.2 1.2 0 1.8-1.2 3.8-1.6 5.9-1 1 0.3 1.9 1.3 2.8 1.3 0.9 0 1.8-1 2.9-1.3 2.3-0.7 4.5-0.1 6.4 1.4q0.3-0.1 0.4-0.2c2.4-1.7 5-2 7.5-0.7 2.6 1.4 3.8 3.6 3.8 6.6q0 3.4 0 6.9v4.3h4.7v-23.4h-73.1zm-9.1-78.3h91.1v-9.2h-91.1zm82.1 26.2h-73v23.9h4.6c0.7-5.7 1.4-11.3 2.1-16.9 0.2-1.8 1-2.4 2.8-2.5q4 0 8 0c2.3 0 3 0.6 3.3 2.9q0.6 5.1 1.2 10.1 0.3 2.4 0.6 4.8c0.9-5.1 1.5-10.2 2.1-15.3 0.2-1.7 1-2.4 2.8-2.4q4.2-0.1 8.5 0c1.7 0 2.5 0.7 2.8 2.4 0.2 2 0.5 4.1 0.7 6.2q0.6 4.6 1.2 9.3c0.8-5.1 1.4-10.2 2-15.3 0.3-1.9 1-2.6 2.7-2.6q4.4-0.1 8.8 0 2.3 0 2.6 2.2c0.4 3.3 0.8 6.5 1.2 9.7q0.4 3.7 0.9 7.4h14.1zm-73-21.4v16.5h9.3c0-3.1-0.1-6.2 0-9.3 0-1.6 0.8-2.5 2.5-2.5q9.9 0 19.9 0c1.6 0 2.5 0.9 2.5 2.5q0 4.1 0 8.1v1.3h4.5c0-0.2 0.1-0.2 0.1-0.3q0-4.5 0-8.9c0-1.8 0.8-2.7 2.7-2.7q1.5 0 3.1 0h15.3c3.4 0 3.9 0.4 3.9 3.9v7.9h9.2v-16.5zm29.6 9.5h-15.5v7h15.5zm29.5 0h-15.5v7.1h15.5zm-40.9 35.9c-0.6-5-1.2-9.8-1.8-14.7h-5.2c-0.6 4.9-1.2 9.8-1.8 14.7zm18 0c-0.6-5-1.2-9.8-1.8-14.7h-5.2c-0.6 4.9-1.2 9.8-1.8 14.7zm11-14.7c-0.6 5-1.2 9.8-1.7 14.6h8.7c-0.6-4.9-1.2-9.7-1.8-14.6zm-2.1 42.9c0-3.9 0-7.6 0-11.3 0-1.7-0.9-2.7-2.3-2.7-1.4 0-2.3 1.1-2.3 2.7q0 5.2 0 10.4c0 0.3 0 0.6 0.1 0.9zm-9.4 0c0-4.1 0-8-0.1-11.9 0-0.7-0.6-1.5-1.2-1.8-1.5-1-3.2 0.2-3.3 2.1 0 3.6 0 7.2 0 10.8 0 0.3 0.1 0.5 0.1 0.8zm18.7 0c0-3.9 0-7.6 0-11.4 0-1.6-0.9-2.6-2.2-2.6-1.4-0.1-2.4 1-2.4 2.7q0 4.2 0 8.4v2.9zm9.3 0c0-4 0.1-7.9 0-11.9 0-1.2-1.1-2.2-2.3-2.1-1.3 0-2.2 1-2.2 2.3-0.1 2.2-0.1 4.3-0.1 6.5q0 2.5 0 5.2z"/><path class="a" d="m45.2 109.5q-8.4 0-16.7 0c-0.5 0-1.1 0-1.5-0.1-1.1-0.2-1.8-1.1-1.8-2.1 0-1.1 0.6-2 1.6-2.3 0.5-0.2 1.1-0.2 1.7-0.2q16.8 0 33.6 0c0.6 0 1.1 0 1.7 0.2 1 0.3 1.6 1.2 1.6 2.3 0 1-0.7 1.9-1.8 2.1-0.5 0.1-1 0.1-1.5 0.1q-8.4 0-16.9 0z"/><circle class="a" cx="73.7" cy="107.1" r="2.3"/></svg>