<svg version="1.2" xmlns="http://www.w3.org/2000/svg" viewBox="0 0 122 115" width="122" height="115"><style>.a{fill:#5554a4}</style><path fill-rule="evenodd" class="a" d="m122 33.3v1.5c-0.8 0.6-1.4 1.3-2.2 1.8-1.7 1-3.4 1.8-5 2.7-1.7 0.9-1.7 0.9-1.2 2.7q1.2 4.6 2.3 9.3c0.3 1.1 0.2 2-0.7 2.8-1 0.7-1.9 0.6-2.9 0-0.3-0.1-0.6-0.3-1.1-0.5 0 0.6 0 1 0 1.4q0 9.7 0 19.4c0 11.5 0 23-0.1 34.5 0 1.1 0.4 1.4 1.4 1.3 2 0 4.1 0.1 6.1 0 1.4-0.1 2.6 0.3 3.4 1.6v1.4c-0.6 1.3-1.6 1.8-3 1.8q-57.7-0.1-115.3 0c-1.4 0-2.5-0.5-3.1-1.8v-1.4c0.8-1.3 2-1.7 3.5-1.6 1.9 0.1 3.9-0.1 5.9 0 1.2 0.1 1.5-0.2 1.5-1.4-0.1-18 0-35.9 0-53.8 0-0.4-0.1-0.8-0.1-1.4-0.3 0.2-0.6 0.3-0.8 0.4-1 0.6-2.1 0.9-3.1 0.1-1.1-0.9-1.1-2-0.7-3.2 0.8-3.2 1.6-6.5 2.4-9.7 0.3-0.8 0.2-1.2-0.6-1.6q-2.9-1.4-5.7-3c-0.9-0.5-1.5-1.2-2.3-1.8v-1.5c0.7-0.6 1.3-1.4 2.1-1.8 3.2-1.8 6.5-3.4 9.7-5.2q2.2-1.1 4.4-2.3c-0.6-2.2-1.2-4.3-1.8-6.4-0.6-1.9-0.3-2.6 1.3-3.7 6.5-4.3 13.3-7.6 20.8-9.7 4.2-1.2 8.6-2 13-2.9 1.5-0.3 2.6 0.5 2.8 1.9 0.3 1.4-0.7 2.6-2.5 2.8-7.4 1.1-14.5 3.1-21.2 6.2-3.2 1.5-6.3 3.2-9.4 4.9 1.7 6.1 3.4 11.9 5.1 17.7 24.3-13.4 48.6-13.4 72.9 0 1.6-5.6 3.2-11.3 4.8-16.9 0.3-0.7-0.1-0.9-0.6-1.2-3.1-1.6-6.3-3.4-9.5-4.9-6.8-3.1-13.9-4.9-21.2-5.9-1.6-0.2-2.4-1.3-2.2-2.7 0.2-1.4 1.4-2.2 2.9-2q1.2 0.2 2.4 0.4c11.5 1.8 22.1 5.9 31.8 12.2 1.8 1.2 2 1.8 1.4 3.9q-0.9 3.1-1.8 6.3c4.8 2.5 9.5 5 14.1 7.5 0.8 0.4 1.4 1.2 2.1 1.8zm-25.6 76.9v-1.6c0-20.4 0-40.7 0-61.1 0-1.5-0.2-2.5-1.8-3.1-1.4-0.6-1.7-1.6-1.3-3.1 0.1-0.7 0.3-1.3 0.5-1.9 0.3-0.8 0.1-1.2-0.6-1.6q-12.9-7.1-27.5-8.1c-12.4-0.8-24.2 1.8-35.2 7.5-2 1.1-2 1.1-1.4 3.3 0.7 2.6 0.6 3.1-1.8 4.3-0.9 0.4-1.1 1-1.1 1.9q0.1 31.1 0 62.1v1.4zm4.9-62.1v62h5.2v-57.9c0-0.3 0-0.5 0-0.8-0.1-0.2-0.2-0.6-0.4-0.7-1.6-0.9-3.1-1.7-4.8-2.6zm-79.8 0c-1.4 0.7-2.7 1.5-4.1 2.2-0.9 0.4-1.2 0.9-1.2 1.9q0.1 28.3 0.1 56.6v1.3h5.2zm-13.4-14c1.8 1 3.4 1.8 5 2.7 1.4 0.8 1.8 1.6 1.4 3.2q-0.7 2.9-1.5 5.8c-0.1 0.5-0.2 1-0.3 1.8 3.9-2.2 7.5-4.2 11.3-6.3-1.5-0.1-2.4-0.7-2.7-2q-0.3-0.7-0.5-1.5c-0.8-2.9-1.7-5.9-2.6-9-3.4 1.8-6.6 3.5-10.1 5.3zm90.5 7.2c4 2.2 7.7 4.2 11.5 6.3-0.6-2.7-1.2-5.1-1.8-7.4-0.5-1.9-0.1-2.6 1.5-3.5 1.6-0.8 3.1-1.7 4.8-2.6-3.5-1.8-6.7-3.6-10.1-5.3-1 3.4-1.9 6.8-2.9 10.1-0.3 1.4-1.1 2.3-3 2.4z"/><path class="a" d="m61.1 12.4c10.5 0.3 20.6 2.5 30.1 7.2 1.9 0.9 2.5 2.1 1.9 3.5-0.7 1.5-2.1 1.7-4.1 0.7-11.2-5.3-23-7.4-35.3-5.9-7.4 0.8-14.5 2.9-21.2 6.2-1.5 0.7-2.9 0.3-3.5-0.9-0.6-1.3-0.1-2.6 1.3-3.3 6-3.1 12.5-5.1 19.2-6.2 3.8-0.6 7.7-0.9 11.6-1.3z"/><ellipse class="a" cx="61.1" cy="2.9" rx="2.4" ry="2.3"/></svg>