<svg version="1.2" xmlns="http://www.w3.org/2000/svg" viewBox="0 0 122 117" width="122" height="117"><style>.a{fill:#5554a4}</style><path fill-rule="evenodd" class="a" d="m12.4 48.2c-3.7-2.1-5.4-5-4.9-9 0.6-4.4 5-7.7 9.3-6.9 4.4 0.8 8.7 1.9 13 2.8 0.4 0.1 0.8 0.1 1.3 0.2 0.6-2.8 1.3-5.6 1.9-8.4 0.7-3.2 1.4-6.5 2.2-9.7 1-4.6 5.2-7.3 9.7-6.4 4.4 0.8 7.2 5 6.5 9.6-0.1 1-0.3 2-0.6 3.3 2.5-1.5 4.7-3 7-4.4 5.1-3.3 10.1-2.2 13.4 2.9q2.2 3.6 4.5 7.2c1.1 1.7 1 2.2-0.7 3.2q-25.2 16-50.4 32c-1.2 0.9-2.5 1.7-3.7 2.8h62.2c2.4 0 2.7 0.2 2.7 2.7q0 18.8 0 37.7c0 4.7-2.8 8.2-7.2 9.1-0.7 0.1-1.4 0.1-2.1 0.1q-26.6 0-53.3 0c-5.5 0-9.2-3.6-9.2-9.2q0-17.3 0-34.6v-1.8c-1.2 0.8-2.1 1.3-3.1 2-3.5 2.3-3.4 2-5.4-1.3-1.3-2.1-2.7-4.2-4-6.3-2.8-4.5-1.7-9.6 2.8-12.5 2.6-1.7 5.3-3.3 8.1-5.1zm45.9 22.2v43.7h1.2q8.5 0 16.9 0c4.1 0 6.5-2.4 6.5-6.5q0-18 0-35.9v-1.3zm-41.3 0c0 0.3 0 0.5 0 0.8q-0.1 18.5 0 36.9c0 3.6 2.4 6 6 6q6.2 0 12.3 0h1.4v-43.7zm22.8 43.6h15.4v-43.6h-15.4zm-7.9-57.5c-2.7-4.1-5.3-8.2-7.9-12.3-6.3 4-12.5 7.8-18.6 11.8-2.4 1.6-3.3 4.7-1.9 7.2 1.5 2.8 3.3 5.4 5 8.2 7.8-5 15.5-9.9 23.4-14.9zm10.3-23.9c2.6 4.2 5.2 8.2 7.9 12.4 7.6-4.9 15.2-9.7 22.9-14.6-1.5-2.4-3-4.6-4.4-6.9-2.2-3.5-5.5-4.2-9-2q-6.3 4-12.6 8-2.4 1.5-4.8 3.1zm-2.5 1.6c-4.4 2.8-8.8 5.6-13.2 8.4 2.6 4.1 5.2 8.2 7.8 12.4 4.5-2.9 8.9-5.7 13.3-8.5-2.6-4.1-5.2-8.2-7.9-12.3zm-5.3-0.3c0.2 0 0.3 0 0.4-0.1q6-3.8 12-7.6c0.3-0.2 0.6-0.7 0.7-1.1 0.4-1.7 0.8-3.5 1.1-5.3 0.1-0.9 0-1.9-0.3-2.7-0.7-2.3-2.9-3.7-5.3-3.6-2.4 0.1-4.3 1.7-4.9 4-0.8 3.3-1.5 6.5-2.2 9.8q-0.7 3.3-1.5 6.6zm-5.8 3.8c-4.1-0.9-8-1.8-11.8-2.6-2.9-0.5-5.7 1.2-6.3 4-0.7 2.9 1 5.7 3.9 6.6 0.8 0.2 1.4 0.1 2.2-0.3 3.6-2.3 7.2-4.6 10.8-6.9 0.3-0.2 0.6-0.4 1.2-0.8z"/><path fill-rule="evenodd" class="a" d="m101.3 50c-0.2 1.1-0.4 2.2-0.5 3.3-0.1 0.5 0.1 1.1 0.4 1.5 0.7 0.7 1.5 1.3 2.2 2.1 0.3 0.4 0.6 1.2 0.4 1.6-0.1 0.5-0.8 1-1.3 1-2.9 0-4.8 1.3-5.6 4.1-0.1 0.4-0.9 0.9-1.4 0.9-0.4 0-1.2-0.5-1.3-0.9-0.8-2.9-2.7-4.1-5.7-4.1-0.4 0-1.1-0.6-1.3-1-0.1-0.4 0.1-1.3 0.5-1.6 2.5-1.6 3.1-3.8 2.2-6.6-0.2-0.4 0.1-1.3 0.5-1.5 0.4-0.3 1.2-0.3 1.7-0.1 0.9 0.4 1.8 1 2.8 1.4 0.4 0.2 0.9 0.2 1.3 0 1-0.4 2-1 3-1.5 1.1-0.5 2.1 0.2 2.1 1.4zm-3.5 2.5c-1.6 1.3-3 1.3-4.6 0.2 0.6 1.8 0.2 3.2-1.4 4.4 2-0.2 3.1 0.8 3.8 2.6 0.5-1.9 1.8-2.6 3.6-2.6-1.5-2.1-1.5-2.1-1.4-4.6z"/><path fill-rule="evenodd" class="a" d="m94.8 14.6c0.3-0.9 0.5-2 0.9-3.1 0.2-0.7 0.1-1.3-0.4-1.8-0.7-0.7-1.3-1.4-1.8-2.2-0.3-0.4-0.5-1.2-0.3-1.7 0.1-0.4 0.9-0.9 1.4-0.8 2.9 0.3 4.8-0.8 5.9-3.5 0.2-0.5 1-0.9 1.5-0.8 0.4 0 1.1 0.6 1.2 1 0.6 2.9 2.2 4.4 5.2 4.6 0.4 0 1.1 0.7 1.2 1.2 0.1 0.4-0.2 1.2-0.6 1.5-2.6 1.4-3.4 3.4-2.8 6.2 0.1 0.5-0.3 1.3-0.7 1.6-0.4 0.3-1.3 0.2-1.6-0.1-2.2-2-4.3-2.2-6.8-0.7-1.1 0.7-2.3 0-2.3-1.4zm6.7-9.2c-0.7 1.9-2.1 2.5-4 2.4 1.5 1.2 1.8 2.7 1 4.5 1.7-1.1 3.2-0.8 4.6 0.3-0.5-1.9 0.3-3.2 2.2-4.2-2.2-0.1-3.4-1-3.8-3z"/><path fill-rule="evenodd" class="a" d="m118.4 35.9c-0.2 0.2-0.4 0.7-0.8 1-2.4 1.3-3.4 3.2-2.7 6 0.1 0.5-0.2 1.5-0.7 1.7-0.4 0.3-1.4 0.2-1.8-0.2-2-1.8-4-2.1-6.4-0.7-0.5 0.3-1.6 0.3-2-0.1-0.3-0.3-0.5-1.4-0.2-1.9 1-2.4 0.6-4.4-1.4-6.1-0.4-0.4-0.8-1.4-0.6-1.9 0.2-0.4 1.2-0.9 1.7-0.9 2.7 0.3 4.5-0.8 5.6-3.3 0.2-0.5 1-1 1.5-1 0.5 0 1.3 0.7 1.4 1.2 0.5 2.9 2.2 4.1 5 4.4 0.8 0 1.4 0.5 1.4 1.8zm-6.6 4.6c-0.5-1.9 0.3-3.2 1.8-4.2-1.9-0.1-3-1.2-3.4-3.1-0.8 1.9-2.1 2.6-4 2.4 1.5 1.3 1.8 2.7 1 4.5 1.7-1 3.1-0.9 4.6 0.4z"/><path class="a" d="m88.7 34.1c3.2 0.1 6.3 0.9 9.3 2.1 0.9 0.3 1.4 0.9 1 1.9-0.4 1-1.2 1.2-2.1 0.8-3.6-1.5-7.3-2.2-11.1-1.5-6.4 1.1-10.7 5-14.1 10.3-0.2 0.4-0.4 0.9-0.7 1.1-0.5 0.2-1.3 0.5-1.7 0.2-0.4-0.2-0.5-1-0.7-1.6 0-0.1 0.1-0.3 0.2-0.4 3.6-6.2 8.6-10.8 15.8-12.4 1.3-0.2 2.7-0.3 4.1-0.5z"/><path class="a" d="m87.9 31.1c-1.9-0.3-3.8-0.6-5.7-1-1.2-0.2-1.7-1-1.4-1.9 0.4-1 1.1-1.1 2.1-0.9 2.3 0.6 4.7 0.9 7.2 0.5 4.4-0.6 7.2-3.1 8.5-7.3q0.2-0.7 0.4-1.4c0.3-1.3 1-1.9 1.9-1.7q1.4 0.4 0.9 2.4c-1.6 7.2-6.5 11.1-13.9 11.3z"/><path class="a" d="m79.3 51.5c1.7 0.3 3.3 0.5 4.9 0.8 1.2 0.2 1.7 0.9 1.5 1.8-0.2 0.9-0.9 1.2-2.1 1-4.2-0.9-8.3-0.8-12 1.5-1.6 1-3 2.4-4.3 3.7-0.9 0.9-1.7 1.2-2.4 0.7q-1.1-0.9 0.1-2.5c3.1-4.3 8.5-6.8 14.3-7z"/><circle class="a" cx="61.6" cy="63.2" r="2.6"/><circle class="a" cx="82.2" cy="15.6" r="2.6"/><ellipse class="a" cx="57.9" cy="51" rx="2.6" ry="2.6"/><ellipse class="a" cx="119.1" cy="18.9" rx="2.6" ry="2.6"/><circle class="a" cx="114.8" cy="55.3" r="2.6"/></svg>