<svg version="1.2" xmlns="http://www.w3.org/2000/svg" viewBox="0 0 95 126" width="95" height="126"><style>.a{fill:#5554a4}</style><path fill-rule="evenodd" class="a" d="m14.6 0.6c2.3 0.6 4.6 1.4 6.5 3 1.9 1.7 3.3 3.7 3.9 6.2 0.2 1 0.7 1.2 1.6 1.2 7-0.1 14.1-0.1 21.1-0.1q21.8 0 43.5 0c2.7 0 3.2 0.6 3.2 3.2v100.3c0 2.5-0.6 3.1-3.1 3.1q-8.2 0-16.3 0h-1.4c0 1.9 0 3.7-0.1 5.5 0 2.2-0.7 2.9-2.8 2.9q-28.7 0-57.3 0c-6.6 0-11.4-4-13-10.7 0-0.4 0-0.8 0-1.1 0-33.4 0.1-66.8 0-100.1 0-6.5 4-12 10.4-13.2 0.1 0 0.3-0.2 0.4-0.2zm75.5 14.6h-64.6v98.1h64.6zm-68.9 88.7v-1.4q0.1-44.3 0-88.6 0.1-0.9 0-1.7c-0.3-3.8-3.6-7.1-7.4-7.5-5.2-0.5-9.2 3.3-9.2 8.8q0 44.7 0 89.3v1.1c5.6-4.1 11-4.1 16.6 0zm48.1 13.6h-23.8q-10.7 0-21.4 0c-2.1 0-2.8-0.8-2.9-2.8q0.1-0.9 0-1.8c-0.2-4.3-3.5-7.7-7.7-7.9-4.4-0.2-8.1 2.7-8.8 7-0.9 5.2 3.1 9.6 8.6 9.7q27.5 0 55.1 0c0.3 0 0.6-0.1 0.9-0.1z"/><path fill-rule="evenodd" class="a" d="m57.9 44.4q-12.6 0-25.2 0c-2.4 0-3.1-0.6-3.1-3q0-9.6 0-19.1c0-2.3 0.7-3 3-3q25.2 0 50.5 0c2.4 0 3 0.7 3 3.1q0 9.5 0 19.1c0 2.2-0.7 2.9-3 2.9q-12.6 0-25.2 0zm-24-4.3h47.9v-16.5h-47.9z"/><path fill-rule="evenodd" class="a" d="m86.1 94.6q0 5.9 0 11.7c0 2.1-0.8 2.9-2.9 2.9q-11.7 0-23.5 0c-2.2 0-2.9-0.8-2.9-3q0-11.7 0-23.3c0-2.3 0.7-3 3-3q11.6 0 23.3 0c2.3 0 3 0.7 3 3.1q0 5.8 0 11.6zm-25-10.5c-0.1 0.5-0.1 0.9-0.1 1.3 0 6.1 0 12.2 0 18.3 0 1 0.3 1.3 1.3 1.3 6.1 0 12.3 0 18.4 0 0.4 0 0.8-0.1 1.1-0.1v-20.8z"/><path fill-rule="evenodd" class="a" d="m44.2 75.7q-5.9 0-11.8 0c-2 0-2.7-0.7-2.8-2.7q0-10.8 0-21.6c0.1-2.1 0.8-2.8 2.9-2.8q11.8-0.1 23.7 0c2 0 2.7 0.7 2.7 2.7q0 10.9 0 21.8c0 1.9-0.7 2.6-2.7 2.6q-6 0-12 0zm-10.3-4.3h20.7v-18.6h-20.7z"/><path class="a" d="m29.7 96.7h22.8v4h-22.8z"/><path class="a" d="m63.1 67.4h22.9v4.1h-22.9z"/><path class="a" d="m63.2 59.1h22.8v4h-22.8z"/><path class="a" d="m63.1 50.7h22.9v4.1h-22.9z"/><path class="a" d="m52.6 84h-22.8v-4h22.8z"/><path class="a" d="m52.5 92.3h-22.8v-4h22.8z"/><path class="a" d="m29.7 105.1h22.8v4h-22.8z"/></svg>