<svg version="1.2" xmlns="http://www.w3.org/2000/svg" viewBox="0 0 118 109" width="118" height="109"><style>.a{fill:#5554a4}</style><path fill-rule="evenodd" class="a" d="m117.8 107.3c-0.7 1.3-1.9 1.6-3.3 1.6-11.7 0-23.4 0-35.1 0q-3.3 0-3.3-2.3c-0.1-1.5 1.1-2.3 3.2-2.3h33.9v-1.1q0-19.7 0-39.5c0-5-1.2-9.8-4.4-13.8-2.3-2.9-5.2-4.4-9-4.4-23.6 0.1-47.1 0-70.7 0h-1.4c0.2 0.3 0.3 0.5 0.4 0.7 4.1 4.6 6 10.2 6 16.2 0.2 13.2 0.1 26.4 0.1 39.6 0 0.7 0 1.5 0 2.3h1.3q9.8 0 19.5 0c0.5 0 1 0 1.5 0.2 1 0.3 1.6 1 1.6 2.1 0 1.1-0.6 1.8-1.6 2.1-0.5 0.2-1 0.2-1.5 0.2q-11.1 0-22.3 0c-2.3 0-3.1-0.8-3.1-3.1q0-9.2 0-18.5v-1.3c-0.4 0-0.8-0.1-1.2-0.1-3.2 0-6.4-0.1-9.6 0.1-7 0.2-11.8-3.2-15.2-9.1-1.8-3.1-2.8-6.6-3.2-10.2 0-0.2-0.1-0.5-0.2-0.7v-5.1q0.3-1.3 0.5-2.7c1-5.3 3.2-10.1 7.4-13.7 0.4-0.5 0.9-0.8 1.5-1.3-4.7-3.4-7.3-8-8.6-13.4-0.3-1.4-0.5-2.8-0.8-4.2v-5.1c0.1-0.3 0.2-0.6 0.2-0.9 0.5-4.3 1.9-8.3 4.4-11.9 3-4.3 7-7.1 12.5-7.1q41.7-0.1 83.4-0.1 4 0 7.4 2.2c4.5 2.9 7 7.2 8.5 12.2 0.5 1.8 0.8 3.7 1.2 5.6v5.1q-0.3 1.3-0.5 2.6c-1 5.4-3.2 10.2-7.4 13.8-0.5 0.4-1 0.8-1.5 1.3 4.7 3.3 7.3 8 8.6 13.4 0.3 1.4 0.5 2.8 0.8 4.2zm-90.3-66.3h1.5c23.6 0 47.2-0.1 70.8 0 3.8 0 6.7-1.5 9-4.3 5.4-6.8 5.9-18.4 1-25.8-2.5-3.8-5.8-5.8-10.6-5.8-23.4 0.1-46.7 0.1-70.1 0.1h-1.6c4.8 5.1 6.7 11.2 6.7 17.8 0 6.6-1.9 12.7-6.7 18zm2.1-17.6c0-4.3-0.8-8.1-2.8-11.6-1.5-2.6-3.4-4.7-6.2-5.9-3.9-1.7-8.2-0.4-11.3 3.4-2.7 3.4-4 7.3-4.4 11.5-0.4 5.8 0.7 11.3 4.4 16 4.5 5.6 11.4 5.5 15.9-0.1 3.1-3.9 4.3-8.6 4.4-13.3zm0 40.4c0-3.7-0.6-7-2-10.1-1.4-2.9-3.1-5.3-5.9-6.9-4.2-2.4-9-1.2-12.3 2.9-2.8 3.4-4.1 7.3-4.5 11.6-0.4 5.8 0.7 11.3 4.5 15.9 4.4 5.5 11.2 5.5 15.7 0 3.2-4 4.4-8.7 4.5-13.4zm0 15.2c-0.8 0.9-1.4 1.5-2 2.3h2z"/><circle class="a" cx="66.4" cy="106.6" r="2.3"/><path class="a" d="m78.4 10.2q4.3 0 8.6 0c1.5 0 2.4 0.7 2.6 1.9 0.2 1.6-0.8 2.6-2.6 2.7-3.4 0-6.8 0-10.2 0q-3.5 0-7 0c-1.7 0-2.7-0.9-2.8-2.3 0-1.4 1.1-2.3 2.8-2.3q4.3 0 8.6 0z"/><circle class="a" cx="59" cy="12.5" r="2.3"/><circle class="a" cx="17.2" cy="23" r="2.3"/><circle class="a" cx="17.2" cy="63.4" r="2.3"/></svg>