<svg version="1.2" xmlns="http://www.w3.org/2000/svg" viewBox="0 0 118 118" width="118" height="118"><style>.a{fill:#5554a4}</style><path fill-rule="evenodd" class="a" d="m115.1 117.4h-104.7c-0.1-0.1-0.2-0.2-0.3-0.3-0.7-0.5-1-1.3-0.6-2 0.4-0.5 1.1-0.8 1.7-1.1 0.3-0.1 0.7 0 1 0h101.9v-3.3h-109.9v3.2q3 1.2 0.7 3.5h-1.6q-1.7-0.8-2.5-2.5v-5.2c1.1-2.6 3.3-2.7 5.6-2.6 0.5-3.2-0.8-6.4 1.3-9.2-1.1-1.7-1.2-2.2-1.2-4.2q0-1.3 0-2.7c0-3.6 2.1-5.7 5.7-5.7 3.2 0 6.4 0 9.6 0 1.6 0 3.2 0.2 4.5 1.3 1.8-1.2 2.3-1.3 4.5-1.3 3 0 6.1 0 9.1 0 1.7 0 3.3 0.2 4.6 1.3 1.3-1.1 2.7-1.3 4.3-1.3q4.5 0 9 0c1.8 0 3.4 0.1 4.5 1.1 1.4-0.4 2.6-1 3.7-1.1 3.8-0.1 7.6 0 11.3 0 2.4 0.1 4.5 1.5 4.9 3.6 0.5 3.1 0.9 6.2-0.9 9.1 2.1 2.8 0.7 6.1 1.3 9.1h8.1v-1.3q0-4.6 0-9.2c0-1.6 0.7-2.8 1.9-3.7 0.3-0.3 0.6-0.8 0.6-1.2 0.1-1.4 0-2.9 0-4.3 0.1-1.4 0.7-2.1 2.1-2.1q3.1 0 6.2 0c1.4 0 2 0.6 2 2 0 1.5 0 3 0 4.4 0 0.4 0.2 0.9 0.5 1 1.5 1.1 2.1 2.5 2.1 4.2 0 3 0 6 0 8.9v1.4c2.4 0 4.7 0 6.9-0.1 2.2-0.1 3.7 0.6 4.6 2.6v5.2q-0.8 1.7-2.5 2.5zm-12.5-10.3c0-3.6 0.1-7.1 0-10.6 0-0.3-0.4-0.8-0.7-0.9-1.7-0.6-1.8-0.8-1.8-2.5q0-2.2 0-4.3h-3.4c0 1.7 0 3.3 0 4.9 0 1-0.5 1.7-1.4 1.8-1 0.2-1.2 0.6-1.2 1.5 0 2.8 0 5.5 0 8.3v1.8zm-78-7.4c-4.4 0-8.7-0.1-13 0-0.9 0-1.6 0.5-1.6 1.4-0.1 2-0.1 4-0.1 6h14.7zm3.5 7.4h14.6v-7.3h-14.6zm18.1-0.1h14.6v-7.3h-14.6zm-21.6-10.8c0-2.1 0-3.9 0-5.8 0-1-0.7-1.7-1.8-1.7q-5.5 0-11.1 0c-1.1 0-1.7 0.6-1.8 1.7q-0.1 2.1 0 4.1c0.1 1 0.6 1.6 1.6 1.7 4.3 0 8.6 0 13.1 0zm54.4 10.9c0-1.8 0-3.5 0-5.2 0-1.7-0.5-2.3-2.2-2.3q-5.7 0-11.4 0c-0.3 0-0.7 0.1-1 0.1v7.4zm-36.3-11c0-2 0.1-3.9 0-5.8 0-1-0.7-1.6-1.7-1.6q-5.6 0-11.3 0c-0.8 0-1.5 0.5-1.6 1.3-0.1 2 0 4.1 0 6.1zm3.4 0h14.7c0-1.9 0.1-3.8 0-5.7 0-1.1-0.7-1.7-1.7-1.7q-5.6 0-11.2 0c-1.1 0-1.7 0.7-1.8 1.8 0 1.8 0 3.7 0 5.6zm18.2 0.1c4.5 0 8.8 0 13.1-0.1 1 0 1.5-0.7 1.6-1.6q0-2.1 0-4.1c-0.1-1-0.7-1.7-1.7-1.7q-5.7 0-11.4 0c-0.9 0-1.6 0.7-1.6 1.6 0 1.9 0 3.8 0 5.9z"/><path fill-rule="evenodd" class="a" d="m0.8 43.7v-5c1-2.6 3.1-2.8 5.5-2.6v-1.5q0-9 0-18c0-1.8 0.6-2.3 2.3-2.3q7.8 0 15.7 0c1.9 0 2.5 0.5 2.5 2.5q0 8.9 0 17.9v1.3h3.4v-1.3q0-9 0-18.1c0-1.8 0.5-2.3 2.3-2.3q7.9 0 15.7 0c1.9 0 2.4 0.5 2.4 2.4q0 9 0 18v1.3h3.4v-1.3q0-8.9 0-17.9c0-2.1 0.5-2.5 2.6-2.5q7.7 0 15.4 0c1.9 0 2.4 0.5 2.4 2.5q0 8.9 0 17.9v1.3h3.5v-1.3q0-4.5 0-9.1c0-1.6 0.6-2.9 2-3.9 0.3-0.2 0.5-0.7 0.5-1 0.1-1.5 0-2.9 0-4.4 0-1.4 0.6-2 2.1-2q3.1 0 6.1 0c1.5 0 2.1 0.6 2.1 2.1 0 1.4-0.1 2.9 0 4.3 0 0.4 0.3 0.9 0.6 1.1 1.3 1 1.9 2.1 1.9 3.7q0 4.6 0 9.2v1.3h3.5c0-3 0-7.3 0-10.3 0-1.6 0.6-2.9 1.8-3.9 0.4-0.3 0.7-0.8 0.7-1.3 0.1-1.4 0-2.8 0-4.1 0.1-1.5 0.7-2.1 2.1-2.1q3.1-0.1 6.2 0c1.4 0 2 0.6 2 2 0 1.4 0 2.9 0 4.3 0 0.4 0.2 0.9 0.5 1.1 1.6 1 2.1 2.5 2.1 4.4q0 4.4 0 8.7c0 0.4 0 0.8 0.1 1.4 2.4-0.4 4.4 0 5.4 2.5v5c-0.7 2-2.2 2.7-4.3 2.7q-50.7 0-101.3 0c-0.4 0-0.9 0-1.3-0.1-0.9-0.2-1.4-0.8-1.3-1.8 0-0.9 0.6-1.4 1.5-1.5 0.5-0.1 0.9 0 1.4 0q50.1 0 100.3 0h1.5v-3.4h-109.9v3.2c1.5 0.6 2 1.5 1.6 2.5-0.4 1-1.8 1.5-3 0.7-0.8-0.5-1.3-1.5-2-2.3zm70.2-25.9h-13.5v18.2h13.5zm-61.2 18.3h13.5v-18.2h-13.5zm37.3-18.3h-13.4v18.3h13.4zm55.6 0q0 2.4 0 4.8c0 1-0.5 1.8-1.5 1.9-0.9 0.1-1.1 0.6-1.1 1.4q0 4.1 0 8.2 0 1 0 1.9h8.6c0-3.5 0-7-0.1-10.4 0-0.4-0.4-0.9-0.8-1-1.4-0.5-1.7-0.8-1.7-2.3q0-2.2 0-4.5zm-15.4 0h-3.4q0 2.4 0 4.8c0 1-0.4 1.7-1.4 1.9-1 0.1-1.2 0.6-1.2 1.5 0 3 0 6.1 0 9.2 0 0.3 0.1 0.6 0.1 0.9h8.4c0-3.6 0.1-7.1 0-10.6 0-0.3-0.5-0.8-0.9-0.9-1.1-0.3-1.6-1-1.6-2.1 0-1.6 0-3.1 0-4.7z"/><path fill-rule="evenodd" class="a" d="m117.6 74.3v5c-0.7 1.5-1.7 2.7-3.5 2.5-0.5-0.1-1.3-0.7-1.4-1.1-0.2-0.6 0.3-1.3 0.6-1.9 0.1-0.3 0.6-0.3 0.8-0.4v-3.3h-109.8v3.4h1.6q50.1-0.1 100.3 0c0.5 0 1.1-0.1 1.6 0.1 0.9 0.2 1.3 0.8 1.2 1.7-0.1 0.9-0.6 1.4-1.4 1.5-0.5 0.1-0.9 0.1-1.3 0.1-33.7 0-67.4 0-101.1 0-2.1 0-3.6-0.6-4.4-2.6v-5c1-2.7 3.2-2.9 5.7-2.7v-1.3q0-7.5 0-15c0-3.4 2.1-5.5 5.5-5.5 2.7 0 5.5 0 8.2 0 1.8 0 3.6-0.1 5 1.3 1.3-1.1 2.7-1.3 4.1-1.3q4.3 0.1 8.6 0c1.6 0 3 0.2 4.3 1.3 1.3-1.2 2.9-1.3 4.5-1.3 2.8 0 5.6 0 8.3 0q5.9 0 5.9 5.9 0 7.3 0 14.5v1.3h3.4v-1.4c0-3.5 0-6.9 0.1-10.4 0-3.3 2.1-5.3 5.4-5.3 2.1 0 4.3 0 6.5 0 1.6-0.1 3.2 0.1 4.4 1.2 2.9-1.7 11.6-1.8 14.9 0 1.2-1 2.6-1.3 4.1-1.2 2.3 0 4.6 0 6.8 0 3.3 0 5.4 2.1 5.4 5.4q0 3.5 0 7v4.9c2.5-0.3 4.7-0.1 5.7 2.6zm-107.7-2.8h13.6c0-5.6 0-11.1 0-16.6 0-1.1-0.7-1.7-1.8-1.7q-5 0-9.9 0c-1.2 0.1-1.9 0.7-1.9 1.8 0 5.5 0 10.9 0 16.5zm17.1 0h13.5c0-5.6 0-11.1 0-16.6 0-1.1-0.7-1.7-1.9-1.7q-4.9 0-9.7 0c-1.4 0-1.9 0.6-2 2q0 7.9 0 15.7c0 0.2 0.1 0.4 0.1 0.6zm30.5 0c0-5.6 0-11 0-16.5 0-1.2-0.7-1.8-2-1.8q-4.6 0-9.3 0c-1.8 0-2.3 0.6-2.3 2.4q0 7.4 0 14.9 0 0.5 0.1 1zm51 0c0-4 0-8 0-11.9 0-1.2-0.7-1.8-2-1.8q-3.4 0-6.9 0c-1.9 0-2.4 0.5-2.4 2.5q0 4.6 0 9.3v1.9zm-26 0h11.2c0-4.1 0-8.2 0-12.3 0-0.9-0.7-1.4-1.6-1.4q-4 0-7.9 0c-1.1 0-1.7 0.7-1.7 1.7 0 4 0 7.9 0 12zm-3.5 0c0-0.1 0-0.3 0-0.4q0.1-5.7 0-11.4 0-1.9-1.9-1.9-3.5 0-7 0c-1.8 0-2.3 0.5-2.3 2.3q0 4.8 0 9.6v1.8z"/><path class="a" d="m117.6 8.3c-0.7 0.8-1.3 1.7-2.1 2.2-1.2 0.7-2.4 0.3-2.9-0.7q-0.6-1.6 1.6-2.5v-3.2h-109.9v3.3h1.5 100.6c1.8 0 2.7 0.5 2.6 1.7 0 1.2-0.8 1.7-2.6 1.7-33.7 0-67.4 0-101 0.1-2.1 0-3.7-0.6-4.6-2.6v-5.2q0.8-1.7 2.5-2.5h111.8q1.7 0.8 2.5 2.5z"/></svg>