<svg version="1.2" xmlns="http://www.w3.org/2000/svg" width="115" height="113">
  <style>
    .a{fill:#5554a4}
  </style>
  <path fill-rule="evenodd" class="a" d="M.8 97V.6q.1.1.2.1 14.9 5.6 29.9 11.2c.4.2.9.2 1.4.2q25.2.1 50.5 0c.6 0 1.2-.1 1.7-.3q4.9-1.8 9.8-3.7 10-3.7 20-7.5V97q-14.7-5.5-29.4-10.9c-.8-.3-1.7-.5-2.6-.5-15.5 0-31.1 0-46.6-.1-2.9 0-5.5.4-8.1 1.5-2 .9-4.2 1.6-6.3 2.4Q11 93.2.8 97zm80-78.1H34.3v26.6h46.5zm0 33.4H34.3v26.5h46.5zM7.5 45.5h19.9c0-.4.1-.6.1-.9V18.7c0-.8-.3-1-1-1.3Q18 14.3 9.4 11c-.6-.2-1.2-.4-1.9-.7zm80.1 0h20V10.4c-.4.1-.7.2-1 .3-6 2.3-11.9 4.5-17.9 6.7-.8.3-1.1.7-1.1 1.6v25.4zM7.5 52.3v35.1c.5-.1.8-.2 1.2-.4 5.9-2.2 11.9-4.4 17.8-6.6.7-.3 1-.7 1-1.5V53.4c0-.4-.1-.7-.1-1.1zm100.1 35.1V52.3H87.7c0 .3-.1.5-.1.7v26.2c0 .7.3.9.9 1.1q7.3 2.7 14.6 5.5c1.5.5 2.9 1.1 4.5 1.6z"/>
  <path fill-rule="evenodd" class="a" d="M74.2 92.3v6.6h-6.6v13.3h-20V99h-6.7v-6.7zM60.9 99h-6.6v6.6h6.6z"/>
</svg>