<svg xmlns="http://www.w3.org/2000/svg" width="400" height="139.204">
  <g fill-rule="evenodd">
    <path fill="#aacd3a" d="M31.25 19.453c-.733.03-1.446.101-1.583.159-.439.185-.667.196-.667.034 0-.094-.13-.088-.322.015-.178.095-.553.172-.834.172-.281 0-.511.081-.511.179 0 .098-.168.165-.375.148-.733-.059-1.143.009-1.041.173.056.092-.014.176-.157.188-.318.025-.431.056-.789.215-.153.067-.378.14-.5.16-.121.02-.391.13-.599.245-.209.114-.452.162-.542.107-.09-.056-.163-.029-.163.059s-.338.299-.75.468c-.412.17-.749.365-.75.433 0 .069-.146.125-.324.125-.178 0-.37.077-.428.17-.058.093-.175.126-.26.073-.085-.053-.155-.008-.155.099 0 .107-.116.149-.259.095-.142-.055-.221-.039-.175.035.045.073-.157.272-.45.442-.293.169-.965.633-1.493 1.03-.528.398-1.016.723-1.085.723-.068 0-.22.153-.337.34-.116.187-.284.295-.373.24-.089-.055-.161-.033-.161.048 0 .082-.6.765-1.334 1.518-.733.753-1.333 1.444-1.333 1.534 0 .09-.113.207-.25.26-.138.052-.25.164-.25.249 0 .126-.821 1.438-1.291 2.061-.069.092-.385.705-.701 1.364-.317.658-.635 1.161-.707 1.116-.072-.044-.086.036-.031.178.054.143.012.259-.095.259s-.148.075-.092.166c.057.092.026.167-.068.167s-.128.112-.076.249c.055.143-.02.293-.177.353-.184.07-.237.213-.166.439.071.222.044.296-.078.22-.162-.1-.283.482-.2.96.013.075-.053.09-.147.032-.094-.059-.178-.008-.188.112a10.49 10.49 0 0 1-.296 1.718c-.672 2.678-.675 2.874-.638 41.417l.034 36.917h94l.042-48.684.042-48.683-1.526-.108c-1.484-.106-66.727-.095-69.391.011m36.801 16.962c4.338 1.13 7.315 6.002 6.221 10.18-.654 2.496-.904 2.832-5.427 7.33-4.838 4.811-4.274 4.421-5.277 3.655-1.57-1.198-4.582-2.414-5.981-2.413h-.504l.046-5.459c.051-6.088.149-6.783 1.271-9.007 1.803-3.571 5.719-5.31 9.651-4.286m-19.801.082c2.482.401 5.917 3.031 5.917 4.531 0 .168.059.305.132.305.569 0 .716 1.711.667 7.75l-.049 6-.834.104c-1.861.231-4.386 1.253-5.503 2.228-.871.759-.638.868-3.12-1.457-4.903-4.592-6.041-5.8-6.606-7.011-3.253-6.968 1.809-13.676 9.396-12.45M34.996 49.843c1.764.489 2.894 1.17 4.221 2.543 7.531 7.788 7.187 7.37 6.568 7.974-.554.541-.977 1.19-1.691 2.595-.55 1.081-.736 1.708-1.039 3.503l-.091.542-2.107.02c-1.159.012-3.57.069-5.357.128-1.788.059-3.437.058-3.667-.001-1.296-.336-2.001-.6-2.715-1.016-.44-.255-.862-.464-.939-.464-.344 0-2.685-2.486-3.062-3.25-.959-1.943-1.234-4.944-.635-6.917.252-.829 1.932-3.333 2.236-3.333.041 0 .36-.263.71-.584 1.95-1.786 4.929-2.471 7.568-1.74m46.472.243c3.055.72 5.582 2.97 6.379 5.679 1.032 3.506-.149 7.619-2.703 9.409-.451.317-.914.658-1.027.757-.113.1-.724.389-1.357.642l-1.15.46-6.092.025-6.091.025-.119-.416c-.066-.229-.248-.905-.406-1.5-.385-1.45-1.375-3.569-2.125-4.543-.823-1.07-.888-.93 1.557-3.369 1.191-1.189 2.166-2.22 2.166-2.292 0-.071.094-.138.208-.148.115-.01.734-.594 1.375-1.298 2.64-2.897 6.173-4.188 9.385-3.431m-.711 19.337c.958.246 2.864 1.076 3.377 1.469.843.648 2.529 2.403 2.531 2.636.001.153.08.304.175.335.724.242 1.354 4.166 1.002 6.251-1.022 6.061-8.613 8.928-13.587 5.131-.417-.318-.832-.578-.923-.578-.091 0-.165-.1-.165-.222s-.769-1.011-1.709-1.975c-5.728-5.875-5.567-5.69-5.258-6.057l.388-.46c1.183-1.394 2.579-4.688 2.579-6.084 0-.494.144-.512 4.267-.529 2.089-.009 3.833-.051 3.876-.095.181-.18 2.527-.059 3.447.178m-37.421.619c.005 1.425 1.248 4.591 2.349 5.981.632.798.746.555-1.239 2.644-.566.596-1.816 1.946-2.777 3-2.561 2.809-3.034 3.234-4.198 3.781-1.594.748-3.408 1.221-4.657 1.213-1.673-.011-3.931-.784-4.908-1.679-.189-.173-.414-.32-.5-.327-.086-.006-.625-.559-1.197-1.228-3.988-4.661-2.039-11.71 3.791-13.713 1.043-.358 1.311-.372 7.208-.376l6.125-.005.003.709m4.808 8.607c1.297 1.027 3.867 2.104 5.471 2.293 1.148.135 1.156.149 1.274 2.391.055 1.054.185 3.441.289 5.303.206 3.692.166 4.079-.635 6.031-1.585 3.863-5.402 5.958-9.788 5.371-6.589-.881-9.5-9.311-4.917-14.237.453-.486.824-.941.826-1.009.001-.069.109-.125.239-.125s.261-.074.291-.163c.096-.279 5.997-6.337 6.174-6.337.092 0 .441.217.776.482m17.939 1.112c.734.651 1.588 1.402 1.898 1.669.644.555 2.563 2.301 3.145 2.862.214.206.427.375.472.375.241 0 1.151 1.154 1.709 2.166 1.527 2.767 1.572 7.312.088 8.796-.126.125-.228.334-.228.463 0 .53-2.553 2.778-3.834 3.375-2.884 1.346-6.899.943-8.876-.89-.243-.226-.521-.41-.616-.41-.096 0-.174-.072-.174-.159 0-.088-.169-.332-.375-.543-.691-.707-1.283-1.716-1.744-2.97l-.456-1.245-.088-5.833c-.1-6.677-.249-6.065 1.571-6.433.775-.157 1.835-.481 2.354-.718.52-.238 1.048-.433 1.174-.433.127 0 .23-.112.23-.25 0-.137.102-.25.227-.25.124 0 .553-.258.952-.574.831-.658.598-.748 2.571 1.002"/>
    <path fill="#fafaf9" d="m102.167 68.167-.084 48.75-47 .083-47 .084 47.039.041 47.038.042.091-.375c.049-.207.069-22.2.044-48.875l-.045-48.5-.083 48.75M24.444 20.611c-.218.219-.105.356.223.271.183-.048.333-.154.333-.235 0-.172-.394-.198-.556-.036m-.944.472c-.266.321.005.324.426.006.272-.206.281-.246.053-.25-.149-.003-.365.107-.479.244m-1.083.505c-.367.226-.613.411-.548.411.242.002 1.298-.565 1.298-.697 0-.18.014-.185-.75.286m-2.542 1.251c-.206.082-.375.229-.375.326 0 .14.473-.075.986-.448.14-.102-.247-.025-.611.122m-1.142.709c-.1.111-.54.45-.976.753-.437.303-.756.588-.711.634.045.045.589-.297 1.209-.76.619-.463 1.022-.839.894-.835a.683.683 0 0 0-.416.208M16.5 25.25c-.118.142-.177.296-.131.341.046.046.18-.032.298-.174.117-.142.176-.296.131-.342-.046-.046-.18.033-.298.175m-1.651 1.613c-.65.671-1.181 1.285-1.182 1.364 0 .079.561-.441 1.246-1.156.686-.715 1.217-1.329 1.182-1.365-.035-.035-.596.485-1.246 1.157m-2.266 2.804c-.142.275-.221.5-.175.5.046 0 .2-.225.342-.5.142-.275.221-.5.175-.5-.046 0-.199.225-.342.5m-1.467 2.418c-.153.32-.243.582-.201.582.114 0 .62-1.021.544-1.097-.036-.036-.191.196-.343.515m-.779 1.328c-.116.139-.155.254-.087.254s.031.112-.083.25c-.114.137-.136.25-.047.25.17 0 .605-.831.493-.943-.036-.036-.16.049-.276.189m52.989 3.075c-4.601 1.229-6.124 4.476-6.197 13.22l-.046 5.459h.504c1.399-.001 4.411 1.215 5.981 2.413 1.003.766.439 1.156 5.277-3.655 3.72-3.699 4.236-4.277 4.672-5.238 3.209-7.079-2.732-14.191-10.191-12.199m-19.076.081c-4.4.894-7.343 5.806-6.172 10.302.689 2.643 1.284 3.376 7.382 9.087 2.502 2.344 2.213 2.205 3.071 1.471 1.143-.979 3.703-2.012 5.552-2.242l.834-.104.049-6c.049-6.039-.098-7.75-.667-7.75-.073 0-.132-.137-.132-.305 0-.169-.301-.735-.668-1.259-1.908-2.723-5.491-3.963-9.249-3.2m133.197 3.707c-.063.062-.114 12.701-.114 28.087v27.975l5.459-.044 5.458-.044v-56l-5.345-.044c-2.94-.024-5.396.007-5.458.07m48.886 7.891c0 6.871-.031 7.833-.251 7.833-.138 0-1.395-.201-2.792-.448-16.115-2.839-28.817 5.72-28.862 19.448-.041 12.546 10.592 21.88 24.239 21.278 2.177-.097 2.638-.186 5.691-1.102 5.137-1.542 9.96-6.514 11.872-12.24 1.237-3.703 1.166-2.35 1.227-23.561l.054-19.042h-11.178v7.834m139.25-4.565c-4.576 1.135-5.446 7.464-1.347 9.805 5.262 3.006 10.638-4.042 6.352-8.328-1.215-1.215-3.428-1.868-5.005-1.477m2.984.985c4.538 1.897 3.185 8.653-1.734 8.653-4.754 0-6.246-6.288-2.015-8.492.929-.484 2.784-.564 3.749-.161m-3.863 4.189c.044 2.347.063 2.474.379 2.474.287 0 .345-.139.417-1 .081-.971.097-1 .563-1 .397 0 .599.172 1.179 1 .515.736.817 1.014 1.145 1.053.718.085.527-.519-.538-1.7-.29-.323-.365-.505-.226-.555.621-.224.953-.699.953-1.361 0-1.085-.297-1.26-2.253-1.328l-1.665-.057.046 2.474m2.64-1.603c.429.229.419.93-.017 1.164-1.046.56-2.137-.122-1.761-1.101.107-.281 1.294-.323 1.778-.063M30.959 49.76c-1.205.292-2.704 1.066-3.531 1.823-.35.321-.669.584-.71.584-.04 0-.274.238-.52.53-3.746 4.44-2.307 10.866 3.017 13.469 2.096 1.025 2.571 1.099 6.285.979 1.787-.057 4.198-.113 5.357-.125l2.107-.02.091-.542c.303-1.795.489-2.422 1.039-3.503.685-1.349 1.101-1.996 1.701-2.65.564-.615 1.044-.037-6.578-7.919-2.3-2.379-5.318-3.339-8.258-2.626m47.124.315c-2.679.561-4.135 1.396-6 3.442-.641.704-1.26 1.288-1.375 1.298-.114.01-.208.077-.208.148 0 .072-.975 1.103-2.166 2.292-2.445 2.439-2.38 2.299-1.557 3.369.75.974 1.74 3.093 2.125 4.543.158.595.34 1.271.406 1.5l.119.416 6.091-.025 6.092-.025 1.15-.46c.633-.253 1.244-.542 1.357-.642.113-.099.576-.44 1.027-.757 2.554-1.79 3.735-5.903 2.703-9.409-1.16-3.943-5.639-6.553-9.764-5.69m69.334 4.02a548.2 548.2 0 0 1-1.917.248c-3.622.466-6.046 1.205-9.883 3.014-1.394.657-2.598 1.251-2.677 1.32-.078.069.312.676.868 1.349.555.673 1.812 2.199 2.792 3.391 2.268 2.757 1.905 2.598 3.9 1.707 3.711-1.657 6.25-2.208 10.167-2.205 5.205.004 6.861.747 6.676 2.995-.201 2.428-2.433 3.302-12.798 5.012-11.478 1.894-16.535 5.124-17.401 11.118-1.545 10.687 12.482 17.211 28 13.023 11.606-3.132 15.99-9.423 15.645-22.449-.289-10.907-4.067-15.981-13.453-18.067-1.847-.411-8.087-.697-9.919-.456m197.75.001a74.13 74.13 0 0 1-1.917.251c-1.518.184-1.965.267-3.917.726-1.918.452-4.478 1.481-7.566 3.041l-1.316.664.58.653A126.18 126.18 0 0 1 333.175 62a202.524 202.524 0 0 0 1.987 2.405l.841.972.421.485 2.163-.869c7.709-3.095 16.095-2.935 16.531.316.38 2.833-2.328 3.973-13.701 5.766-11.177 1.763-16.573 5.756-16.582 12.273-.009 7.028 5.797 11.848 15.47 12.844 3.979.409 9.532-.151 13.421-1.353 10.81-3.343 14.832-9.033 14.845-21.006.013-11.869-3.976-17.346-14.154-19.431-1.273-.261-8.158-.489-9.25-.306m-83.357.659C248.201 57.051 240.106 70.731 245.096 83c3.584 8.814 13.236 14.39 22.821 13.186 14.5-1.821 23.127-16.54 17.169-29.29-.603-1.292-1.752-3.258-2.081-3.563a9.666 9.666 0 0 1-.524-.667c-4.277-5.746-13.218-9.168-20.671-7.911m51.654 0-1.618.221-9.507 7.614-9.506 7.614v26.134l5.792-.044 5.792-.044.086-11.167c.095-12.28.066-11.923 1.167-14.185 2.343-4.818 8.783-6.906 14.728-4.774l.815.292 2.57-2.666c1.413-1.467 2.918-3.067 3.344-3.557l.774-.891-.409-.317c-4.618-3.584-9.024-4.912-14.028-4.23m-89.381 9.771 1.834.391.135 1.916c.677 9.612-.497 14.835-3.857 17.158-6.779 4.687-15.091-.265-15.091-8.991 0-8.232 7.059-12.587 16.979-10.474m44.301.563c7.537 2.55 9.725 12.763 3.979 18.574-6.787 6.861-17.782 1.373-17.317-8.645.26-5.612 3.73-9.504 9.287-10.42.845-.139 2.939.115 4.051.491M77.31 69.245c-.043.044-1.787.086-3.876.095-4.123.017-4.267.035-4.267.529 0 1.396-1.396 4.69-2.579 6.084-.768.906-1.319.17 4.87 6.517.94.964 1.709 1.8 1.709 1.857 0 .058.356.375.791.705 7.187 5.447 16.554-1.47 13.476-9.951-.232-.638-.499-1.186-.594-1.218-.095-.031-.174-.182-.175-.335-.002-.233-1.688-1.988-2.531-2.636-1.46-1.119-6.206-2.265-6.824-1.647M30 69.714c-5.83 2.003-7.779 9.052-3.791 13.713.572.669 1.111 1.222 1.197 1.228.086.007.311.154.5.327 1.39 1.274 4.566 2.01 6.491 1.505 3.608-.946 3.94-1.166 7.272-4.82a258.937 258.937 0 0 1 2.777-3c1.985-2.089 1.871-1.846 1.239-2.644-1.101-1.39-2.344-4.556-2.349-5.981l-.003-.709-6.125.005c-5.897.004-6.165.018-7.208.376m128.684 6.454c.417 1.497.033 4.109-.883 5.999-3.341 6.896-17.968 7.655-17.968.933 0-3.001 2.683-4.498 9.417-5.255 3.224-.362 4.557-.654 7.167-1.57 1.907-.67 2.108-.679 2.267-.107m197.705-.126c1.554 6.328-3.886 11.624-11.971 11.652-4.423.016-6.818-1.611-6.83-4.638-.012-2.983 2.939-4.607 9.495-5.224 2.667-.251 3.957-.528 6.518-1.403 2.523-.861 2.667-.881 2.788-.387M44.225 81.254c-1.636 1.698-3 3.16-3.031 3.25-.03.089-.161.163-.291.163-.13 0-.238.056-.239.125-.002.068-.373.523-.826 1.009-4.583 4.926-1.672 13.356 4.917 14.237 4.386.587 8.203-1.508 9.788-5.371.801-1.952.841-2.339.635-6.031-.104-1.862-.234-4.249-.289-5.303-.118-2.242-.126-2.256-1.274-2.391-1.604-.189-4.174-1.266-5.471-2.293-.843-.668-.624-.813-3.919 2.605m19.269-2.506c-.409.31-.875.681-1.036.825-.16.143-.357.26-.438.26-.08 0-.571.195-1.091.433-.519.237-1.579.561-2.354.718-1.82.368-1.671-.244-1.571 6.433l.088 5.833.456 1.245c.461 1.254 1.053 2.263 1.744 2.97.206.211.375.455.375.543 0 .087.078.159.174.159.095 0 .373.184.616.41 1.977 1.833 5.992 2.236 8.876.89 1.281-.597 3.834-2.845 3.834-3.375 0-.129.102-.338.228-.463 1.484-1.484 1.439-6.029-.088-8.796-.558-1.012-1.468-2.166-1.709-2.166-.045 0-.258-.169-.472-.375a130.558 130.558 0 0 0-3.145-2.862c-.31-.267-1.164-1.018-1.898-1.669-1.972-1.75-1.737-1.658-2.589-1.013m325.776 27.177c-.055.143-.032.217.051.166.083-.051.187.001.231.116.044.115.072.041.062-.165-.021-.433-.2-.493-.344-.117m-3.945 5.334c-.22.235-.288.383-.151.33.217-.083.757-.756.606-.756-.03 0-.235.192-.455.426"/>
    <path fill="#eb1c24" d="M105.168 68c.002 33.634.057 48.5.177 48.5.096 0 .128.075.071.167-.121.196 267.693.119 268.959-.078.435-.067.792-.19.792-.272 0-.083.337-.15.75-.15.412 0 .75-.075.75-.167 0-.092.22-.167.49-.167.269 0 .536-.075.593-.166.057-.092.249-.167.427-.167.177 0 .323-.075.323-.167 0-.091.188-.166.417-.166.229 0 .416-.075.416-.167 0-.092.15-.167.334-.167.183 0 .333-.075.333-.166 0-.092.138-.167.308-.167.169 0 .443-.15.609-.333.166-.184.403-.334.527-.334s.867-.489 1.651-1.087c.783-.598 1.507-1.036 1.607-.974.104.064.136.037.073-.064-.06-.098.285-.584.766-1.08 1.448-1.493 2.091-2.256 2.206-2.618.06-.189.167-.343.239-.343.071 0 .265-.3.431-.667.165-.367.354-.667.419-.667s.314-.436.554-.969c.239-.533.582-1.139.762-1.347.18-.208.288-.479.241-.603-.048-.124.099-.849.327-1.611.901-3.022.848-.505.906-42.844l.053-39.458-143.257-.001H105.164l.004 48.5m83.167-27.792v27.959l-.002 28.041c0 .272-.377.292-5.583.292-3.071 0-5.584-.056-5.584-.125-.002-.24-.002-55.96-.001-56.167.001-.162 1.23-.208 5.585-.208s5.584.046 5.585.208m49.397.056c.242.631.105 35.604-.147 37.486-.424 3.162-1 5.211-2.261 8.034-1.279 2.866-6.205 8.049-7.65 8.049a.17.17 0 0 0-.174.167c0 .092-.15.167-.333.167-.184 0-.334.075-.334.166 0 .092-.097.167-.216.167-.307 0-1.114.392-1.116.542 0 .068-.222.125-.491.125-.27 0-.537.075-.593.166-.057.092-.25.167-.429.167a1.63 1.63 0 0 0-.615.146c-.519.262-1.47.521-1.917.521-.24 0-.483.075-.539.166-.132.213-6.917.228-6.917.016 0-.083-.394-.193-.875-.243-1.543-.161-2.291-.304-2.386-.457-.051-.082-.35-.149-.666-.149-.315 0-.573-.075-.573-.167 0-.091-.183-.166-.407-.166-.224 0-.453-.075-.51-.167-.056-.092-.212-.167-.345-.167-.531 0-3.353-1.399-4.815-2.388-3.197-2.162-6.575-6.353-7.747-9.612a25.195 25.195 0 0 0-.348-.916c-1.906-4.607-1.389-11.571 1.207-16.25.657-1.183 1.296-2.155 1.715-2.609.183-.198.446-.509.583-.69 1.772-2.339 5.363-4.915 8.167-5.859.596-.2 1.233-.429 1.417-.507.183-.079.558-.191.833-.248.275-.058.838-.18 1.25-.272 3.812-.846 10.844-.722 15.125.268l.542.125v-7.826c0-4.305.05-7.877.111-7.938.27-.27 11.349-.122 11.454.153m130.935 3.195c0 .07.238.232.529.361 3.626 1.605 4.197 6.774 1.033 9.351-1.721 1.401-4.559 1.444-6.562.099-3.119-2.095-3.02-7.213.176-9.093 1.28-.753 1.576-.83 3.199-.837.893-.004 1.625.05 1.625.119m-3 1.14c-3.166 1.171-4.156 4.791-1.946 7.112 1.151 1.21 3.199 1.841 4.24 1.307.159-.081.626-.309 1.039-.505 1.806-.858 2.699-3.641 1.761-5.49-.472-.932-1.503-2.023-1.911-2.023a.765.765 0 0 1-.471-.188c-.202-.202-2.298-.367-2.712-.213m2.124 1.667c1.176.178 1.39 1.879.342 2.728-.309.25-.309.267-.012.59.522.567 1.074 1.568.964 1.746-.334.54-1.232.172-1.919-.787-1.049-1.466-1.544-1.572-1.487-.319.056 1.235.038 1.276-.578 1.276-.311 0-.596-.094-.634-.208-.114-.346-.025-4.897.1-5.099.111-.179 1.813-.14 3.224.073m-2.04 1.065c-.311.503.063.969.749.934 1.105-.057 1.436-.932.352-.932-.27 0-.602-.042-.738-.094s-.299-.011-.363.092m-209.501 6.8 1.712.293c.392.067.753.186.802.265.049.079.305.144.569.144.265 0 .527.075.584.167.056.092.249.167.428.167.18 0 .475.075.657.166l.662.334c.182.091.445.166.584.166.138 0 .252.075.252.167 0 .092.103.167.229.167.661 0 3.35 2.119 4.775 3.764 3.901 4.501 4.776 17.235 1.712 24.902-1.125 2.818-3.856 5.967-6.216 7.171-.229.117-.454.258-.5.313-.046.055-.308.21-.583.344a9.715 9.715 0 0 0-.943.541c-.243.164-.599.298-.791.298-.192 0-.35.075-.35.167 0 .091-.113.166-.252.166s-.401.075-.583.167l-.662.333a1.748 1.748 0 0 1-.657.167c-.179 0-.372.075-.429.167-.057.091-.282.166-.5.166-.218 0-.443.075-.5.167-.057.092-.357.167-.667.167-.31 0-.61.075-.666.166-.057.092-.357.167-.667.167-.31 0-.61.075-.667.167-.056.091-.421.166-.81.166-.388 0-.778.068-.865.15-.57.54-11.577.54-12.15 0-.087-.083-.443-.15-.791-.15-.349 0-.634-.075-.634-.166 0-.092-.258-.167-.573-.167-.316 0-.62-.075-.677-.167-.056-.091-.271-.166-.476-.166-.206 0-.445-.062-.532-.138-.087-.076-.477-.238-.867-.36-.389-.122-.708-.285-.708-.362 0-.077-.187-.14-.417-.14-.229 0-.416-.075-.416-.167 0-.092-.081-.167-.179-.167-.098 0-.505-.225-.905-.5-.399-.275-.771-.5-.826-.5-.1 0-.858-.656-1.83-1.583-2.891-2.759-3.853-8.604-2.025-12.312.489-.992 1.592-2.418 1.878-2.43.109-.004.241-.146.295-.315.053-.168.283-.406.511-.528.228-.122.414-.284.414-.36 0-.076.112-.138.25-.138.137 0 .25-.075.25-.167 0-.092.096-.167.213-.167.117 0 .322-.15.454-.333.132-.183.373-.333.536-.333.164 0 .297-.075.297-.167 0-.092.15-.167.333-.167.184 0 .334-.056.335-.125.002-.149.809-.541 1.115-.541.119 0 .217-.075.217-.167 0-.092.146-.167.325-.167.18 0 .536-.084.792-.187.895-.36 1.138-.443 1.8-.613l1.333-.345c.957-.249 2.039-.457 4.5-.867a240.73 240.73 0 0 0 4.75-.856c1.421-.273 2.958-.556 3.417-.629 3.248-.52 5.25-1.961 5.25-3.78 0-.812-.479-1.556-1.002-1.556a.166.166 0 0 1-.165-.167c0-.091-.173-.166-.383-.166-.211 0-.455-.068-.542-.15-.596-.563-8.824-.559-9.172.005-.049.08-.305.145-.57.145-.264 0-.526.075-.583.166-.057.092-.319.167-.583.167-.265 0-.527.075-.584.167-.056.091-.286.166-.51.166-.223 0-.406.075-.406.167 0 .092-.188.167-.417.167-.229 0-.417.075-.417.166 0 .092-.183.167-.406.167-.224 0-.454.075-.51.167-.057.091-.249.166-.427.166s-.323.057-.323.126c0 .135-1.173.541-1.562.541-.128 0-.349-.169-.49-.375-.141-.206-.448-.6-.683-.875a66.488 66.488 0 0 1-.805-.964A48.517 48.517 0 0 0 135.103 62c-.725-.777-2.436-3.064-2.436-3.255 0-.266 4.583-2.532 6.25-3.09.366-.123.738-.283.825-.356.087-.073.353-.132.591-.132.239 0 .505-.068.592-.15.087-.082.458-.191.825-.241a34.379 34.379 0 0 0 1.583-.274 24.053 24.053 0 0 1 1.959-.278c.573-.053 1.041-.165 1.041-.249 0-.203 8.619-.068 9.917.156m197.75.003a25.38 25.38 0 0 1 1.833.364c.413.106.994.233 1.292.282.298.05.542.157.542.238 0 .082.188.149.419.149.23 0 .549.066.708.148.159.082.664.325 1.123.541 1.015.477 2.479 1.348 2.555 1.519.031.069.143.126.25.128.605.009 3.801 3.935 4.057 4.983.058.237.155.468.215.514.164.125.812 2.285 1.101 3.667 1.004 4.815.964 9.668-.121 14.916-.353 1.712-1.988 5.75-2.327 5.75-.068 0-.174.155-.234.345-.171.539-2.715 3.026-3.913 3.826-.596.398-1.108.784-1.139.859-.03.076-.159.137-.286.137-.128 0-.486.143-.797.318-.823.462-1.14.621-1.653.829l-.917.372c-.252.103-.588.253-.747.334-.16.081-.441.147-.625.147-.185 0-.336.075-.336.167 0 .091-.225.166-.5.166s-.5.067-.5.149c0 .083-.3.195-.667.25l-1.334.202c-.367.056-.709.168-.76.25-.051.082-.421.149-.822.149-.402 0-.771.065-.82.145-.331.536-11.619.544-12.172.009-.087-.085-.443-.154-.792-.154-.348 0-.633-.075-.633-.166 0-.092-.221-.167-.49-.167-.27 0-.537-.075-.593-.167-.057-.091-.324-.166-.594-.166-.269 0-.49-.075-.49-.167 0-.092-.143-.167-.317-.167-.175 0-.606-.144-.959-.32-.352-.177-.884-.42-1.182-.541-.298-.121-.542-.277-.542-.346 0-.069-.079-.126-.175-.126-.367 0-2.129-1.34-3-2.283-3.348-3.618-3.978-9.806-1.352-13.283.823-1.09 2.129-2.434 2.365-2.434.089 0 .162-.059.162-.131 0-.072.223-.262.494-.422.272-.161.591-.384.709-.497.331-.317 3.012-1.62 3.329-1.618.155.001.328-.074.385-.165.057-.092.271-.167.477-.167.205 0 .445-.072.532-.159.265-.265 2.966-.883 6.491-1.484a529.413 529.413 0 0 0 7.75-1.383c3.845-.747 6-2.165 6-3.949 0-.543-.707-1.525-1.098-1.525-.13 0-.235-.059-.235-.13 0-.136-.765-.366-2.334-.702-1.478-.317-7.315-.054-7.741.349-.087.082-.327.15-.532.15-.206 0-.42.075-.477.166-.056.092-.361.167-.676.167-.316 0-.574.075-.574.167 0 .091-.151.166-.335.166-.185 0-.504.087-.709.193-.802.415-.963.474-1.287.474-.184 0-.335.075-.335.167 0 .091-.138.166-.306.166-.168 0-.357.052-.42.115-.409.409-1.941.677-1.941.339 0-.117-.131-.33-.292-.474-.16-.143-.554-.576-.875-.961-.321-.386-.77-.919-1-1.185-1.014-1.179-1.936-2.292-2.444-2.949a23.332 23.332 0 0 0-.708-.869c-.646-.744-.625-.759 3.652-2.719a59.074 59.074 0 0 1 1.5-.666c.23-.093.547-.236.706-.317.16-.081.436-.147.616-.147.179 0 .372-.075.428-.167.057-.091.324-.166.594-.166.269 0 .49-.068.49-.15 0-.083.318-.192.708-.242.39-.051 1.158-.176 1.708-.279.55-.102 1.469-.225 2.042-.272.573-.047 1.042-.157 1.042-.244 0-.207 8.387-.076 9.833.154m-86 .384c2.756.309 3 .349 3 .498 0 .083.221.151.49.151.27 0 .537.075.593.166.057.092.282.167.5.167.219 0 .444.075.5.167.057.091.233.166.392.166.266 0 1.572.631 3.335 1.61 1.69.939 4.218 3.101 5.523 4.722.23.285.496.608.592.718.399.458 1.242 1.773 1.242 1.939 0 .098.075.178.166.178.092 0 .167.15.167.333 0 .184.062.334.137.334.43 0 1.846 4.016 2.27 6.437.714 4.082-.224 9.891-2.083 12.896-.085.137-.336.587-.558 1-.222.412-.541.9-.71 1.083-.168.184-.528.66-.799 1.06-.612.9-2.233 2.574-3.34 3.449-.459.362-.859.714-.889.783-.031.069-.143.127-.25.13-.107.002-.489.227-.849.5-.36.272-.754.495-.875.495-.122 0-.221.057-.221.126s-.225.219-.5.333l-1 .415c-.275.114-.5.264-.5.333 0 .07-.15.126-.333.126-.183 0-.333.075-.333.167 0 .092-.225.167-.5.167s-.5.075-.5.166c0 .092-.207.17-.459.174-.541.009-1.974.37-2.144.54-.066.066-.467.12-.892.12-.424 0-.85.078-.946.174-.231.231-5.662.104-6.893-.161a29.61 29.61 0 0 0-1.542-.289c-.345-.051-.668-.16-.719-.242-.05-.082-.312-.149-.582-.149-.269 0-.49-.075-.49-.167 0-.091-.263-.166-.583-.166-.321 0-.584-.057-.585-.125-.002-.15-.809-.542-1.115-.542-.119 0-.217-.075-.217-.167 0-.091-.098-.166-.217-.166-.306 0-1.113-.392-1.115-.542-.001-.069-.1-.125-.22-.125s-.367-.131-.549-.292a5.777 5.777 0 0 0-.758-.541c-1.788-1.044-6.141-5.629-6.141-6.469 0-.109-.063-.198-.14-.198-.12 0-.689-1.144-1.623-3.265-1.506-3.417-1.65-9.378-.329-13.622.267-.858 1.592-3.974 1.749-4.113.052-.046.319-.421.593-.833.275-.413.594-.849.708-.971.115-.121.209-.288.209-.372 0-.876 5.413-5.185 7.983-6.355a50.13 50.13 0 0 0 1.723-.81c.159-.088.436-.159.615-.159s.366-.065.415-.144c.049-.079.372-.19.718-.247.346-.056.966-.186 1.379-.289 1.75-.438 5.087-.572 7.5-.302m51.667.231c.412.065.821.186.908.268.087.082.294.15.461.15.166 0 .432.067.591.149.159.082.815.399 1.456.704 2.37 1.126 4.917 2.855 4.917 3.337 0 .162-.656.981-1.458 1.82-2.576 2.697-3.273 3.437-4.209 4.468-.879.969-1.39 1.222-1.758.871-.672-.641-4.722-1.158-6.825-.871-3.642.497-6.627 2.547-7.921 5.438a38.48 38.48 0 0 1-.521 1.128c-.671 1.335-.82 3.974-.799 14.206l.021 10-5.933.043-5.932.044.042-13.286.043-13.287 1.167-.899c.641-.494 1.4-1.097 1.686-1.34.286-.243.767-.629 1.068-.859.302-.229.644-.51.76-.625.117-.114.26-.208.319-.208s.205-.098.324-.217c.12-.119.533-.476.92-.792.386-.316.836-.687.999-.824.163-.138.544-.438.847-.667.303-.229.722-.585.931-.792.209-.206.442-.375.518-.375.076 0 .246-.15.378-.333.132-.183.327-.333.433-.333.106 0 .295-.125.421-.278.126-.152.537-.509.913-.791.562-.423 4.308-3.392 5.233-4.148.137-.113.587-.466 1-.786.412-.319.775-.637.805-.706.031-.068.256-.126.5-.127.245-.002.557-.077.695-.168.273-.181 5.731-.114 7 .086m-101.25 9.411c-.275.074-.927.143-1.449.154-.522.01-.995.094-1.051.186-.057.092-.325.167-.596.167-.271 0-.622.066-.782.147-.159.081-.476.221-.706.312-.953.378-2 .936-2 1.067 0 .077-.104.14-.231.14-.659 0-2.896 2.761-3.511 4.334-1.13 2.889-1.061 6.352.182 9.129.217.484.394.941.394 1.016 0 .075.15.272.333.438.183.166.333.377.333.468 0 .226 2.037 2.275 2.266 2.279.101.002.318.153.484.336.166.184.404.334.528.334.125 0 .357.066.516.147 1.29.656 4.034 1.091 4.424.702.1-.101.506-.183.901-.183.396 0 .868-.075 1.05-.166l.662-.334c.182-.091.433-.166.558-.166.124 0 .362-.15.528-.334.166-.183.399-.333.519-.333.303 0 2.2-1.952 2.498-2.572.135-.281.398-.801.583-1.154.856-1.636.978-2.764.978-9.024 0-3.208-.055-5.916-.122-6.017-.187-.28-1.985-.667-4.206-.906a170.11 170.11 0 0 1-2-.226 3.362 3.362 0 0 0-1.083.059m45.416.673c-.229.079-.754.232-1.166.34-.683.178-1.056.342-2.579 1.132-4.296 2.227-6.206 9.642-3.718 14.431.776 1.492 2.844 3.922 3.345 3.929.073.001.293.152.49.335.197.183.456.333.576.333.121 0 .219.075.219.167 0 .092.188.167.417.167.229 0 .416.075.416.166 0 .092.173.167.384.167.211 0 .465.082.565.182.482.482 5.297.172 5.96-.383.087-.073.293-.132.458-.132.165 0 .3-.075.3-.167 0-.092.15-.167.333-.167.184 0 .334-.075.334-.166 0-.092.104-.167.232-.167s.473-.225.768-.5c.294-.275.573-.5.62-.5.367 0 2.123-2.435 2.692-3.735 1.27-2.897 1.17-7.009-.237-9.793-.712-1.409-2.869-3.819-3.646-4.074-.176-.058-.472-.246-.656-.418-.185-.173-.468-.313-.628-.313-.161 0-.333-.066-.383-.147-.089-.144-.249-.194-1.762-.546-1.028-.239-2.828-.315-3.334-.141M355.583 76c-.056.092-.281.167-.5.167-.218 0-.443.075-.5.166-.056.092-.237.167-.401.167-.163 0-.548.125-.855.278a5.885 5.885 0 0 1-1.151.406c-.326.07-.893.206-1.259.301-.367.096-1.604.29-2.75.431-5.975.737-6.729.928-8.584 2.171-3.426 2.298-1.776 6.708 2.75 7.35 2.264.321 5.866-.093 7.66-.88 1.442-.633 2.674-1.285 2.674-1.415 0-.078.112-.142.25-.142.137 0 .25-.075.25-.167 0-.091.112-.166.25-.166.137 0 .25-.066.25-.145 0-.08.281-.466.625-.858.777-.886 1.213-1.651 1.613-2.831.701-2.067.436-6.059-.322-4.833m-198.083.109c-.138.045-.4.141-.583.212-2.503.976-4.911 1.5-8.5 1.849-1.898.185-4.548.739-4.825 1.009a.643.643 0 0 1-.39.154c-1.171 0-3.217 2.323-3.228 3.664-.008 1.116 1.214 3.336 1.837 3.336.104 0 .189.057.189.126 0 .07.244.226.542.348l.875.356c1.922.778 6.242.458 9-.666l.875-.357c.298-.122.541-.278.541-.347 0-.07.15-.126.334-.126.183 0 .333-.059.333-.131 0-.072.224-.263.497-.424.636-.376 2.17-1.954 2.17-2.233 0-.117.075-.212.166-.212.092 0 .167-.144.167-.32 0-.175.056-.344.125-.375.336-.149.915-2.321.997-3.735.115-1.994-.129-2.456-1.122-2.128"/>
    <path fill="#c96350" d="M180.042 40.125c1.443.027 3.806.027 5.25 0 1.443-.028.262-.051-2.625-.051-2.888 0-4.069.023-2.625.051m49.083 0a204.1 204.1 0 0 0 5.75 0c1.581-.028.287-.05-2.875-.05s-4.456.022-2.875.05m8.622 18.292c0 9.991.02 14.103.045 9.137.024-4.965.024-13.14 0-18.166-.025-5.026-.045-.963-.045 9.029m127.42-14.909c-.183.123-.115.139.25.057.612-.137.746-.233.319-.229a1.204 1.204 0 0 0-.569.172m2.5-.11c0 .035.225.097.5.138.275.04.5.011.5-.065s-.225-.138-.5-.138-.5.029-.5.065m-1.125 1.05c.16.042.423.042.583 0 .16-.042.029-.076-.292-.076s-.452.034-.291.076m-2.802 1.26-.49.542.542-.49c.505-.456.618-.593.489-.593-.029 0-.272.243-.541.541m2.427 1.524c0 .037.293.094.652.129.359.034.617.004.574-.066-.079-.128-1.226-.187-1.226-.063m.833 3.101c.196.275.394.5.439.5.046 0-.077-.225-.272-.5-.196-.275-.394-.5-.44-.5-.046 0 .077.225.273.5m3.249 1.001c-.166.184-.263.374-.215.422.048.048.212-.102.364-.334.332-.507.266-.546-.149-.088m-5.455.117c.207.04.507.039.666-.003.16-.042-.01-.074-.377-.073-.366.002-.497.036-.289.076m3.333 0c.207.04.507.039.667-.003.159-.042-.011-.074-.377-.073-.367.002-.497.036-.29.076m-4.627.196c0 .162.648.769.718.671.027-.037-.124-.234-.335-.437-.21-.203-.383-.308-.383-.234m-217.167 2.311c0 .069.431.104.958.078 1.673-.082 1.837-.152.417-.178-.756-.013-1.375.032-1.375.1m7.292-.004c.298.037.785.037 1.083 0 .298-.037.054-.067-.541-.067-.596 0-.84.03-.542.067m191.167.001a9.561 9.561 0 0 0 1.416 0c.39-.035.071-.063-.708-.063-.779 0-1.098.028-.708.063m6.669-.001c.3.037.75.036 1-.002.251-.038.006-.068-.544-.067-.55.001-.755.032-.456.069m-9.086.328c.16.041.423.041.583 0 .161-.042.03-.077-.291-.077-.321 0-.452.035-.292.077m-80.833.333c.16.042.423.042.583 0 .16-.042.029-.076-.292-.076s-.452.034-.291.076m51.5 0c.16.042.423.042.583 0 .16-.042.029-.076-.292-.076s-.452.034-.291.076m-98.329.341a10.87 10.87 0 0 0 1.5-.001c.387-.035.029-.063-.796-.063-.825.001-1.142.03-.704.064m3.167 0a10.87 10.87 0 0 0 1.5-.001c.387-.035.028-.063-.797-.063-.825.001-1.141.03-.703.064m4.328.326c.161.041.423.041.584 0 .16-.042.029-.077-.292-.077s-.452.035-.292.077m-16.333 1.635c-.481.219-.875.435-.875.481 0 .08 1.843-.69 1.986-.83.17-.167-.306-.017-1.111.349m158.042 1.75c.451.458.858.833.904.833.046 0-.286-.375-.738-.833-.451-.459-.858-.834-.904-.834-.046 0 .286.375.738.834m-112.514.428-.653.596.708-.54c.648-.494.805-.651.653-.651-.03 0-.349.268-.708.595m27.93.124c0 .029.244.272.542.541l.542.49-.49-.542c-.456-.505-.594-.618-.594-.489m-78.384.87c-.257.226-.401.411-.321.411.081 0 .323-.187.539-.417.498-.53.388-.527-.218.006m102.791 1.119-.49.542.542-.49c.505-.456.618-.593.489-.593-.029 0-.272.243-.541.541m-169.168.167c.257.344.499.625.537.625.147 0-.263-.603-.624-.919-.311-.271-.295-.218.087.294m197.879.203c.164.226.368.414.453.417.085.003-.022-.182-.237-.412-.5-.532-.602-.534-.216-.005m33.799.089c.142.275.296.5.342.5.046 0-.033-.225-.175-.5-.143-.275-.296-.5-.342-.5-.046 0 .033.225.175.5m-216.542 1.289c.436.034 1.148.034 1.584 0 .435-.034.079-.063-.792-.063s-1.227.029-.792.063m197.756 0c.484.034 1.234.034 1.667 0 .432-.035.036-.062-.881-.062-.917.001-1.27.029-.786.062m-130.587 1.33c.254.039.629.038.834-.002.205-.04-.003-.071-.461-.07-.458.002-.626.034-.373.072m3.834 0c.253.039.628.038.833-.002.205-.04-.002-.071-.461-.07-.458.002-.626.034-.372.072m101.956.797c-.311.321-.514.584-.451.584.113 0 1.117-.996 1.117-1.108 0-.132-.128-.032-.666.524m-184.836.168c.664.8.719.851.538.497-.094-.184-.347-.484-.562-.665-.377-.319-.376-.313.024.168m19.378.332c.002.367.036.497.076.29a1.835 1.835 0 0 0-.004-.667c-.042-.159-.074.011-.072.377m164.393.678c-.075.196-.248.255-.595.204-.269-.039-.451-.01-.405.065.142.229.844.152 1.068-.117.116-.14.172-.293.124-.341-.047-.047-.134.038-.192.189m-95.696 4.989c0 2.383.023 3.335.052 2.115.028-1.22.028-3.17 0-4.333-.029-1.164-.052-.165-.052 2.218m-16.739-2.75c-.196.275-.319.5-.273.5.046 0 .244-.225.439-.5.196-.275.319-.5.273-.5-.046 0-.244.225-.439.5m-58.25 1c-.425.183.013.183.583 0 .335-.107.351-.134.083-.138a1.935 1.935 0 0 0-.666.138m142.111.22-.363.387.043 13.071.044 13.072.041-13.113.04-13.113.439-.345c.242-.19.368-.346.28-.346-.089 0-.324.174-.524.387m75.684 2.113c0 .413.033.582.072.375.04-.206.04-.543 0-.75-.039-.206-.072-.037-.072.375M171.055 73.75c0 .642.031.884.067.538a6.219 6.219 0 0 0-.002-1.167c-.037-.296-.066-.013-.065.629m36.169 1.167c0 .733.03 1.012.065.62a8.344 8.344 0 0 0-.001-1.333c-.036-.341-.065-.021-.064.713m68.171.583c0 .962.028 1.356.061.875.034-.481.034-1.269 0-1.75-.033-.481-.061-.088-.061.875m-143.193-1.077c-.276.313-.048.306.372-.012.227-.172.252-.242.083-.238-.132.003-.337.116-.455.25m236.51 1.41c0 .413.033.582.072.375.04-.206.04-.543 0-.75-.039-.206-.072-.037-.072.375m-210.684-.02c-.17.107-.14.163.125.232.23.06.347.012.347-.144 0-.266-.149-.294-.472-.088M170.872 77c0 .321.034.452.076.292a1.37 1.37 0 0 0 0-.584c-.042-.16-.076-.029-.076.292m181.461 0c-.343.11-.358.136-.083.148.183.007.446-.059.583-.148.292-.189.09-.189-.5 0m4.055.917c.001.641.031.883.067.538a6.308 6.308 0 0 0-.001-1.167c-.037-.296-.067-.013-.066.629m-101.188-.5c0 .183.06.521.133.75.106.33.134.347.134.083 0-.183-.06-.521-.134-.75-.105-.33-.133-.347-.133-.083m-106.658.698c.16.042.423.042.583 0 .16-.042.029-.076-.292-.076s-.452.034-.291.076m197.666 0c.161.042.423.042.584 0 .16-.042.029-.076-.292-.076s-.452.034-.292.076m-204.791 2.15-.5.429.541-.358c.298-.197.542-.391.542-.431 0-.124-.071-.081-.583.36m82.981.824c-.152.232-.244.454-.203.494.04.041.204-.149.365-.421.356-.603.224-.662-.162-.073m-14.029 1.995c.432.449.811.783.842.741.031-.041-.322-.409-.786-.817l-.842-.741.786.817m-55.364 2.008c-.319.224-.506.408-.417.407.089 0 .387-.185.662-.411.642-.526.502-.524-.245.004m62.955.359c.208.04.508.039.667-.003.159-.042-.01-.074-.377-.073-.367.002-.497.036-.29.076m45.832 1c.206.04.543.04.75 0 .206-.04.037-.072-.375-.072-.413 0-.582.032-.375.072m2.502 0c.207.04.507.039.666-.003.16-.042-.01-.074-.377-.073-.366.002-.497.036-.289.076m80.081.997c.16.042.423.042.583 0 .161-.042.03-.076-.291-.076-.321 0-.452.034-.292.076m-64.321 1.427a4.076 4.076 0 0 0-.47.625c-.141.265-.103.229.573-.542.22-.252.364-.458.318-.458-.046 0-.235.169-.421.375m-32.721 1.042c.498.504.943.916.989.916.046 0-.324-.412-.822-.916-.498-.505-.943-.917-.989-.917-.045 0 .324.412.822.917m-17.589.791-.827.875.875-.827c.481-.455.875-.848.875-.875 0-.124-.155.014-.923.827m-102.411-.041c.098.183.263.333.365.333.103 0 .051-.15-.115-.333-.166-.184-.33-.334-.365-.334-.035 0 .017.15.115.334m71.5-.29c0 .037.319.321.709.63.389.31.602.431.473.27-.244-.303-1.182-1.017-1.182-.9m126.917.932c.458.486 1.058 1.04 1.333 1.231.576.4.559.383-1-1.046-1.077-.986-1.102-1.001-.333-.185m-167.083 1.858c-.321.175-.471.321-.334.322.138.002.438-.143.667-.322.524-.41.415-.41-.333 0m93.501.449c.001.136.851.587.94.498.027-.026-.174-.18-.446-.341-.273-.16-.495-.231-.494-.157M391.553 96.5c0 .596.031.84.068.542a5.307 5.307 0 0 0 0-1.084c-.037-.298-.068-.054-.068.542m-251.74-.453c.081.08.362.119.625.086.441-.055.429-.067-.146-.146-.358-.05-.563-.024-.479.06m197.67.003c.078.077.395.115.704.083.549-.057.546-.06-.141-.141-.387-.046-.64-.02-.563.058m-186.441.065c.16.042.423.042.583 0 .16-.042.029-.076-.292-.076s-.452.034-.291.076m68.625.218-1.25.107 1.198.03c.659.016 1.245-.045 1.302-.137.056-.091.079-.153.051-.136-.028.016-.614.078-1.301.136m-76.879.121c.296.036.821.037 1.167.001.345-.036.103-.066-.538-.067-.642-.001-.925.029-.629.066m4.667 0c.295.036.82.037 1.166.001s.104-.066-.538-.067c-.641-.001-.924.029-.628.066m67.17.001c.39.035 1.027.035 1.417 0 .389-.035.07-.063-.709-.063-.779 0-1.098.028-.708.063m48.17-.001c.299.037.749.036 1-.002.25-.038.005-.068-.545-.067-.55.001-.755.032-.455.069m3.83 0c.298.037.785.037 1.083 0 .298-.037.054-.067-.541-.067-.596 0-.84.03-.542.067m73.83 0c.295.036.82.037 1.166.001s.104-.066-.538-.067c-.641-.001-.924.029-.628.066m4.508.002a8.34 8.34 0 0 0 1.333-.002c.341-.035.021-.064-.713-.064-.733.001-1.012.03-.62.066m41.634 13.008-.32.453.445-.404c.467-.425.525-.516.32-.508-.069.003-.269.209-.445.459m-1.352 1.433a27.32 27.32 0 0 1-1.5 1.411l-.662.558.702-.487c.707-.491 2.263-1.886 2.461-2.206.254-.411-.226-.063-1.001.724m-2.828 2.368-.5.429.541-.358c.298-.197.542-.391.542-.431 0-.124-.071-.081-.583.36m-1.438.846c-.209.253-.193.258.188.06.558-.29.6-.338.298-.338-.142 0-.36.125-.486.278m-5.812 2.199c0 .079.187.108.416.064.23-.044.417-.108.417-.143 0-.036-.187-.064-.417-.064-.229 0-.416.064-.416.143m-270 .44c0 .222 14.94.245 133.625.208l133.625-.041-133.552-.042c-88.926-.028-133.517-.098-133.448-.208.056-.092.023-.167-.074-.167s-.176.112-.176.25"/>
    <path fill="#e07f68" d="M104.944 19.611c-.188.188-.132 97.189.056 97.306.111.068.167-16.193.167-48.657 0-26.818-.025-48.76-.056-48.76-.03 0-.105.05-.167.111m286.719 38.681c-.003 39.664-.015 40.515-.598 42.708-.083.314-.062.372.085.236.223-.207.247-.321.595-2.807.31-2.211.395-78.929.088-78.929-.11 0-.167 13.044-.17 38.792M177.278 40.111c-.061.061-.111 12.774-.111 28.25V96.5h5.583c3.071 0 5.583-.056 5.583-.125s-2.475-.104-5.501-.079l-5.502.046.044-28.171c.023-15.494.036-28.171.029-28.171a.78.78 0 0 0-.125.111m48.929 8.014.04 7.958.045-7.875.045-7.875h11.174l-.047 19.125c-.026 10.519.003 18.788.065 18.375.062-.412.119-9.056.125-19.208l.013-18.458h-11.5l.04 7.958m140.168-4.672c.252.038.665.038.917 0s.045-.07-.459-.07-.71.032-.458.07m1.472.107c.038.033.295.11.57.172.365.081.432.066.25-.058-.225-.152-.987-.258-.82-.114m1.938.855c1.001.674 1.867 1.846 2.157 2.918.146.54.205.629.213.317.025-.932-1.164-2.653-2.36-3.419-.969-.62-.977-.467-.01.184m-6.309.132c-1.301.992-2.173 2.792-2.122 4.381.017.503.054.406.161-.42.234-1.814 1.071-3.226 2.492-4.208.225-.155.359-.286.298-.291-.062-.005-.435.237-.829.538m1.342.201c-2.673 1.392-3.304 4.825-1.306 7.098.477.542.474.529-.064-.263-1.929-2.836-.72-6.334 2.452-7.092.451-.108.464-.125.1-.133-.229-.005-.761.17-1.182.39m2.529-.355c.038.032.332.107.653.166.41.075.509.059.333-.057-.226-.148-1.151-.251-.986-.109m1.658.549c1.424.952 2.012 1.963 2.168 3.725l.11 1.25.024-1.084c.035-1.635-1.504-4.166-2.534-4.166-.099 0 .005.124.232.275m-4.505 3.793c0 1.429.056 2.598.125 2.599.069 0 .102-1.125.075-2.5l-.05-2.501 1.467.003c1.712.003 2.187.192 2.496.997.204.534.215.541.128.084-.186-.978-.56-1.161-2.495-1.224l-1.746-.057v2.599m1.066-1.499c-.292.761-.008 1.18.81 1.196l.793.015-.751-.066c-1.199-.105-1.165-1.163.04-1.258l.792-.063-.797-.03c-.555-.021-.824.042-.887.206m2.947.963c-.007.155-.18.399-.383.542-.204.142-.291.259-.193.259.283 0 .773-.626.677-.865-.059-.146-.092-.125-.101.064m3.699.634c0 .413.033.582.072.375.04-.206.04-.543 0-.75-.039-.206-.072-.037-.072.375m-4.712.293c0 .082.204.331.453.553.333.297.388.316.209.072-.391-.531-.662-.787-.662-.625m-1.913.249c-.133.402-.169 1.959-.045 1.958.068 0 .125-.45.125-1 0-1.434.38-1.414 1.589.084.397.492.084-.079-.389-.709-.417-.556-1.144-.745-1.28-.333m-4.08.542c-.005.476.716 1.92 1.222 2.447.512.532 1.503 1.303 1.675 1.303.067 0-.196-.244-.584-.542-.994-.763-1.65-1.634-2.004-2.659-.168-.486-.307-.733-.309-.549m10.509 0c-.045.649-.71 1.844-1.483 2.663-.431.457-.562.644-.291.417 1.069-.899 2.034-2.507 1.873-3.122-.065-.247-.08-.24-.099.042m-1.173.64c-.117.352-.56.981-.986 1.398-.425.418-.613.675-.417.572.694-.362 1.824-1.986 1.681-2.413-.037-.109-.162.091-.278.443m-2.195.192c.148.315.327.576.398.579.151.006-.309-.931-.521-1.063-.08-.049-.024.169.123.484m-218.599 3.208c.622.032 1.597.032 2.166 0 .569-.033.06-.059-1.132-.059-1.191 0-1.657.027-1.034.059m197.833 0c.622.032 1.597.032 2.167 0 .569-.033.059-.059-1.132-.059-1.192 0-1.658.027-1.035.059m-201.09.161c.206.039.543.039.75 0 .206-.04.037-.073-.375-.073-.413 0-.582.033-.375.073m7.668 0c.208.04.508.038.667-.003.159-.042-.01-.075-.377-.073-.367.002-.497.036-.29.076m189.998 0c.207.039.544.039.75 0 .207-.04.038-.073-.375-.073-.412 0-.581.033-.375.073m7.836 0c.207.04.507.038.666-.003.16-.042-.01-.075-.377-.073-.366.002-.497.036-.289.076M157.5 54.59c1.193.298 1.666.283.583-.018-.458-.128-.983-.227-1.166-.221-.184.006.079.114.583.239m106.964-.134c.484.034 1.234.034 1.667 0 .432-.035.036-.062-.881-.062-.917.001-1.27.029-.786.062m49.663.162c.207.04.507.038.667-.003.159-.042-.011-.075-.377-.073-.367.002-.497.036-.29.076m3.081-.003c.161.042.423.042.584 0 .16-.042.029-.076-.292-.076s-.452.034-.292.076m-56 .167c.161.041.423.041.584 0 .16-.042.029-.077-.292-.077s-.452.035-.292.077m51.5 0c.161.041.423.041.584 0 .16-.042.029-.077-.292-.077s-.452.035-.292.077m43.959.143c.412.13.825.232.916.226.292-.017-.985-.459-1.333-.461-.183 0 .004.105.417.235m-142.956.195c.253.038.628.037.833-.003.205-.039-.002-.071-.461-.069-.458.001-.626.033-.372.072m6 0c.253.038.628.037.833-.003.205-.039-.002-.071-.461-.069-.458.001-.626.033-.372.072m88.203 2.807c-2.015 1.611-3.814 3.087-3.997 3.282-.406.431.267-.088 4.25-3.281 3.155-2.529 3.631-2.928 3.491-2.928-.045 0-1.73 1.317-3.744 2.927m12.746-2.673c.409.127.769.206.8.175.085-.086-.97-.431-1.277-.418-.146.006.068.116.477.243m-61.91.079c-.21.091-.241.144-.083.144.137 0 .4-.065.583-.144.21-.09.241-.143.083-.143-.137 0-.4.065-.583.143m-97.773.257c.309.134.609.241.667.237.217-.012-.737-.482-.977-.481-.138 0 .002.11.31.244m61.565-.142c.16.042.423.042.583 0 .16-.042.029-.076-.292-.076s-.452.034-.291.076m114.541.141c-.673.309-.27.309.44.001.308-.134.448-.24.31-.237-.137.004-.475.11-.75.236m-113.166.078c.275.07.687.127.916.127.372 0 .363-.014-.083-.127a4.531 4.531 0 0 0-.917-.128c-.371 0-.362.014.084.128m32.955.334c-5.321 2.162-9.81 6.572-11.889 11.679-.266.653-.482 1.274-.48 1.379.002.105.332-.579.734-1.519 2.205-5.161 6.462-9.302 11.701-11.381.721-.287 1.343-.552 1.381-.59.174-.172-.33-.021-1.447.432m15.628-.362c.137.085.438.204.667.265.289.078.34.065.166-.043a3.032 3.032 0 0 0-.666-.265c-.29-.078-.341-.065-.167.043m50.45.506c1.672.808 4.883 2.915 4.883 3.203 0 .066-.72.877-1.6 1.802-.88.926-1.524 1.683-1.431 1.683a.256.256 0 0 0 .226-.158c.03-.087.72-.835 1.533-1.663.935-.953 1.443-1.594 1.385-1.747-.219-.57-4.72-3.35-5.946-3.672-.229-.06.198.188.95.552m36.55-.228c.229.131.492.238.583.238.092 0-.02-.107-.25-.238-.229-.131-.491-.239-.583-.239-.092 0 .021.108.25.239m-222.167.479c-2.859 1.277-4.666 2.176-4.666 2.32 0 .203 1.522 2.109 2.023 2.534l.393.333-.259-.333a66.486 66.486 0 0 0-1.149-1.384c-.493-.582-.824-1.11-.741-1.183.123-.108 3.997-1.947 5.566-2.643.229-.101.342-.188.25-.193-.092-.005-.729.242-1.417.549m25.728.18c1.925 1.097 2.692 1.738 4.397 3.674l.587.667-.465-.667c-1.148-1.645-4.709-4.417-5.675-4.417-.081 0 .439.335 1.156.743M208.75 56c-.21.09-.241.143-.083.143.137 0 .4-.064.583-.143.21-.09.241-.143.083-.143-.137 0-.4.064-.583.143m66.5.881c1.786.931 2.769 1.571 4.186 2.725 1.183.964 1.329.933.203-.043-1.424-1.234-5.337-3.583-5.927-3.557-.071.003.621.396 1.538.875m-68.5-.156c-1.563.647-2.536 1.141-3 1.523-.183.15.154.011.75-.31a27.765 27.765 0 0 1 2.417-1.113c.733-.292 1.364-.559 1.402-.594.196-.181-.371-.002-1.569.494m153.583-.498c0 .037.507.372 1.125.743 1.837 1.102 3.067 2.323 4.673 4.637.118.171.043-.024-.167-.432-.5-.974-2.282-2.863-3.543-3.756-.987-.699-2.088-1.327-2.088-1.192m-27.637 1.272c-1.715.832-2.352 1.219-2.26 1.372.216.358 4.073 4.962 4.158 4.962.086 0-2.605-3.322-3.572-4.412l-.588-.662 2.491-1.207c1.371-.663 2.417-1.208 2.325-1.209-.092-.002-1.241.519-2.554 1.156m-130.601 1.85c-1.187.899-3.059 2.733-3.642 3.568-.192.275.31-.195 1.116-1.043.805-.849 1.982-1.928 2.614-2.398 1.041-.774 1.267-.976 1.092-.976-.032 0-.563.382-1.18.849M281 61.083c.582.601.78.735.562.382-.266-.43-.797-.965-.958-.965-.093 0 .085.262.396.583m-145.738.906c.342.499 2.761 3.344 2.844 3.344.046 0-.366-.543-.916-1.208-1.055-1.275-2.23-2.577-1.928-2.136m165.071 2.014a1891.034 1891.034 0 0 1-4.75 3.79c-1.008.802-2.058 1.676-2.333 1.943-.652.633-.24.314 5.542-4.307 3.997-3.195 4.681-3.767 4.5-3.761-.023.001-1.354 1.052-2.959 2.335M282.361 62.5c.304.413.572.781.596.819.023.039.077.036.119-.006.042-.042-.226-.411-.595-.82l-.671-.743.551.75m-128.819.615c.16.042.423.042.583 0 .16-.042.029-.076-.292-.076s-.452.034-.291.076m169.271 1.601-1.604 1.678-1.063-.348c-.584-.191-1.438-.392-1.896-.446-.59-.069-.435-.003.533.224.751.177 1.515.401 1.697.499.514.275.917.211 1.261-.198.173-.206.915-.994 1.65-1.75.734-.756 1.265-1.367 1.18-1.356-.085.01-.876.774-1.758 1.697m28.395-1.601c.161.042.423.042.584 0 .16-.042.029-.076-.292-.076s-.452.034-.292.076m-181.945.385c.161.605.394 1.001.393.667-.001-.138-.114-.438-.252-.667l-.251-.417.11.417m-13.134.334c.708.431.939.431.288-.001-.275-.182-.575-.331-.667-.331-.092-.001.079.149.379.332m41.67-.042c-3.091 3.573-4.517 11.732-2.891 16.541.271.802.22.45-.205-1.416-.965-4.237.101-10.096 2.544-13.988.902-1.437 1.018-1.676.552-1.137m85.519.012c.101.189.266.395.366.457.131.081.13.015-.002-.232-.101-.189-.266-.394-.366-.456-.131-.081-.13-.016.002.231m70.427-.099c.18.116.537.426.792.688.254.261.463.406.463.32 0-.213-.662-.798-1.167-1.029-.357-.164-.37-.161-.088.021m-136.45.416c.299.037.749.036 1-.002.25-.038.005-.068-.545-.067-.55.001-.755.032-.455.069m2.913-.002c.252.039.665.039.917 0 .252-.038.046-.069-.458-.069-.505 0-.711.031-.459.069m115.221.839c.441.527.825.989.852 1.027.027.037.219-.02.426-.126.364-.188.364-.191.015-.103-.289.073-.507-.093-1.083-.823-.398-.503-.788-.919-.868-.924-.079-.005.216.422.658.949m4.988-.702c-.673.308-.271.309.439.001.308-.134.448-.241.311-.237-.138.004-.475.11-.75.236m-199.549.689c-.577.236-1.021.458-.987.492.06.06 2.128-.733 2.272-.87.167-.161-.312-.02-1.285.378m124.09-.327c.207.039.544.039.75 0 .207-.04.038-.073-.375-.073-.412 0-.581.033-.375.073m1.584.164c.16.041.423.041.583 0 .16-.042.029-.077-.292-.077s-.452.035-.291.077m-41.008.155c.218.065.299.324.347 1.115l.064 1.031-.014-1.081c-.013-.954-.054-1.086-.348-1.116-.245-.025-.258-.011-.049.051m36.767.06c-2.261.683-4.974 3.043-6.129 5.332-.647 1.284-.476 1.336.205.062 1.42-2.654 3.535-4.475 6.156-5.299.394-.124.604-.227.467-.228-.138-.001-.452.059-.699.133M367.523 65c0 .137.065.4.144.583.09.21.143.241.143.084 0-.138-.065-.4-.143-.584-.091-.21-.144-.241-.144-.083m-197.666.333c0 .138.064.4.143.584.09.21.143.241.143.083 0-.138-.064-.4-.143-.583-.09-.21-.143-.241-.143-.084m42.267.319c-.667.427-.789.601-.207.292.698-.37 1.029-.607.833-.596-.092.005-.373.142-.626.304m57.788.21c.959.534 2.965 2.349 3.745 3.388l.375.5-.33-.564c-.753-1.286-3.24-3.394-4.452-3.774-.183-.058.115.145.662.45m44.63-.406c.527.034 1.389.034 1.916 0 .527-.033.096-.06-.958-.06s-1.485.027-.958.06m-176.055.431c.114.114.292.111.549-.009.356-.166.345-.177-.169-.169-.371.006-.494.064-.38.178m146.644 1.107c.332.73.631 1.3.665 1.266.076-.077-1.076-2.593-1.188-2.593-.044 0 .191.597.523 1.327m26.619-1.161c-.425.183.013.183.583 0 .335-.107.352-.134.084-.138a1.959 1.959 0 0 0-.667.138m-1.402.517c-1.079.478-2.699 1.684-3.376 2.511-.674.825-1.719 2.614-1.598 2.735.045.045.292-.352.549-.882.696-1.437 2.668-3.34 4.244-4.098 1.311-.63 1.445-.827.181-.266m-153.346.312c-.471 1.137-1.9 1.994-4.299 2.579-.891.217-1.507.401-1.37.409.49.028 3.019-.653 3.712-1 1.096-.549 2.545-2.115 2.24-2.421-.041-.04-.168.155-.283.433m53.025.684c-.913.922-2.36 3.265-2.36 3.821 0 .11.337-.464.749-1.275.755-1.489 1.168-2.029 2.305-3.017.343-.298.553-.542.467-.542-.087 0-.609.456-1.161 1.013m144.734-.734c-.597 1.766-3.844 2.845-12.47 4.147-1.077.162-1.925.329-1.883.371.212.212 9.743-1.559 11.524-2.141 1.492-.488 3.446-2.166 3.019-2.594-.048-.048-.134.05-.19.217m-184.485.471c.056.367.129.698.163.736.126.144.032-.749-.113-1.069-.106-.232-.121-.131-.05.333m55.795 4.334c.001 2.108.024 2.948.054 1.865a82.986 82.986 0 0 0-.001-3.833c-.029-1.026-.053-.141-.053 1.968m59.935-2.32c.012.31.637 2.311.647 2.07.012-.312-.432-2.001-.559-2.129-.052-.051-.091-.025-.088.059m-115.294.736c0 .413.033.582.072.375.04-.206.04-.543 0-.75-.039-.206-.072-.037-.072.375m73.371.5c-.063.288-.08.559-.038.601.043.043.126-.162.184-.455.139-.695.004-.829-.146-.146m124.465.25c.001.459.033.626.072.373a2.968 2.968 0 0 0-.003-.833c-.039-.205-.071.002-.069.46m-220.881-.333c-.505.117-.767.218-.584.224.184.006.784-.09 1.334-.214s.812-.225.583-.224c-.229.001-.829.097-1.333.214m-3.731.593c-.997.171-1.897.345-2 .387-.398.164.404.069 2.564-.304 1.237-.214 2.025-.39 1.75-.391-.275-.001-1.316.137-2.314.308m26.966 2.824c0 1.604.025 2.26.055 1.458.031-.802.031-2.115 0-2.917-.03-.802-.055-.145-.055 1.459M207.417 72c-.064.288-.081.559-.038.601.042.042.125-.162.184-.455.138-.695.004-.83-.146-.146m-68.584-.168a10.87 10.87 0 0 1-.894.245c-.263.058-.448.136-.41.174.037.037.627-.073 1.311-.245.684-.172 1.056-.313.827-.313a3.2 3.2 0 0 0-.834.139m197.917.001c-.425.183.013.183.583 0 .335-.107.352-.134.084-.138a1.959 1.959 0 0 0-.667.138m-81.39.644c-.106.355-.188.749-.182.876.007.127.124-.134.26-.579.137-.445.219-.839.182-.876-.037-.037-.154.224-.26.579m-11.655.023c0 .321.035.452.077.292a1.402 1.402 0 0 0 0-.584c-.042-.16-.077-.029-.077.292m31.323-.333c.009.433.271 1.144.277.75a1.959 1.959 0 0 0-.138-.667c-.088-.204-.142-.236-.139-.083m60.389 0c-.425.182.013.182.583 0 .335-.108.351-.135.083-.139a1.96 1.96 0 0 0-.666.139m-48.538 1c0 .412.032.581.072.375.04-.207.04-.544 0-.75-.04-.207-.072-.038-.072.375m81.846.666c0 .779.029 1.098.064.709a9.575 9.575 0 0 0 0-1.417c-.035-.39-.064-.071-.064.708m-233.642-.753c-1.102.519-.894.526.347.01.543-.225.874-.408.737-.406-.138.002-.625.18-1.084.396m108.482 2.253c0 1.238.027 1.744.059 1.125a26.38 26.38 0 0 0 0-2.25c-.032-.618-.059-.112-.059 1.125m87.618-1.485c-1.886 1.056-3.567 2.429-4.534 3.704-.332.438-.185.322.396-.312 1.145-1.25 2.309-2.156 4.038-3.143.734-.419 1.259-.759 1.167-.757-.092.002-.572.231-1.067.508m-197.975.157c-.481.276-.875.541-.875.589 0 .091 1.467-.713 1.742-.955.292-.257.015-.14-.867.366m121.842.662c0 .504.031.71.069.458a3.608 3.608 0 0 0 0-.917c-.038-.252-.069-.046-.069.459M207.053 75c0 .596.031.84.068.542a5.307 5.307 0 0 0 0-1.084c-.037-.298-.068-.054-.068.542m80.005.333c0 .779.029 1.098.064.709a9.575 9.575 0 0 0 0-1.417c-.035-.39-.064-.071-.064.708M304.545 75c0 .412.033.581.073.375a2.418 2.418 0 0 0 0-.75c-.04-.206-.073-.038-.073.375m-28.99.583c0 .642.031.884.067.538a6.208 6.208 0 0 0-.002-1.166c-.037-.296-.066-.013-.065.628m-144.426-.205c-.525.388-.995.809-1.045.936-.05.127.197-.023.548-.333.352-.31.86-.729 1.129-.93.269-.201.451-.369.406-.372-.046-.004-.513.311-1.038.699m94.736 1.061c-.027.862-.45 2.655-.94 3.978-.099.269-.088.285.061.083.459-.625 1.03-2.995.971-4.035l-.059-1.048-.033 1.022m29.183.311c.001.458.033.626.072.373a2.975 2.975 0 0 0-.003-.834c-.039-.205-.071.003-.069.461m99.202-.494c-.417.201-.431.224-.083.139.472-.116 1.003-.386.75-.382-.092.001-.392.11-.667.243m-147.045.411c0 .32.035.452.077.291.041-.16.041-.423 0-.583-.042-.16-.077-.029-.077.292m161.34.166c0 .413.033.582.073.375a2.418 2.418 0 0 0 0-.75c-.04-.206-.073-.037-.073.375M155 76.75c-.321.124-.471.227-.333.23.137.003.475-.098.75-.224.643-.295.344-.299-.417-.006m3.726 1.167c-.001.825.028 1.183.062.796.035-.386.036-1.061.001-1.5-.034-.438-.063-.121-.063.704m193.941-1.167c-.321.124-.471.225-.334.225.138 0 .513-.101.834-.225.321-.124.47-.225.333-.225-.137 0-.512.101-.833.225m-223.697.708c-.73.965-1.303 1.901-1.301 2.125.001.092.194-.171.428-.583a12.81 12.81 0 0 1 1.091-1.542c.366-.435.601-.791.523-.791-.078 0-.412.356-.741.791m222.363-.291c-.343.11-.358.136-.083.147.183.008.446-.058.583-.147.292-.189.09-.189-.5 0m-180.621.666c0 .413.033.582.072.375.04-.206.04-.543 0-.75-.039-.206-.072-.037-.072.375m116.148-.229c-.015.287-.064.774-.109 1.084l-.083.562.175-.559c.097-.307.146-.795.11-1.083l-.066-.525-.027.521m69.688.313c.001.458.033.626.072.372a2.968 2.968 0 0 0-.003-.833c-.039-.205-.071.002-.069.461M152.083 77.5c-.449.114-.457.128-.083.13a3.21 3.21 0 0 0 .833-.13c.561-.179-.045-.179-.75 0m197.75 0c-.569.12-.571.123-.083.133.275.006.65-.054.833-.133.401-.172.069-.172-.75 0m-199.373.285c.208.039.508.038.667-.004.159-.042-.01-.074-.377-.072-.367.002-.497.036-.29.076m197.748-.003c.161.041.423.041.584 0 .16-.042.029-.077-.292-.077s-.452.035-.292.077m-199.331.171c.254.038.629.037.834-.002.205-.04-.003-.071-.461-.07-.458.001-.626.034-.373.072m94.828.38c0 .321.035.452.077.292.041-.16.041-.423 0-.583-.042-.161-.077-.03-.077.291m102.837-.38c.252.038.664.038.916 0s.046-.07-.458-.07-.71.032-.458.07m-199.792.166c-3.043.421-5.819 1.817-6.507 3.273-.136.288-.153.375-.037.191 1.093-1.729 3.218-2.759 6.877-3.335 1.193-.188.903-.3-.333-.129m197.583.048c-.833.175.022.182 1 .008.677-.12.693-.133.167-.132-.321 0-.846.056-1.167.124m-173.794 1c0 .32.034.452.076.291.042-.16.042-.423 0-.583-.042-.16-.076-.029-.076.292m37.13-.346c-.015 1.666 3.421 5.642 5.414 6.267.184.058-.102-.14-.636-.438-1.943-1.09-3.252-2.575-4.217-4.786-.308-.704-.56-1.174-.561-1.043m29.298 1.297c-.955 4.934-3.497 9.249-7.052 11.972-1.414 1.083-1.637 1.356-.457.557 2.096-1.417 4.833-4.752 6.003-7.314.919-2.013 1.988-5.728 1.845-6.412-.031-.147-.184.392-.339 1.197m88.431-.517c-.138.331-.221.632-.184.669.037.037.186-.234.33-.602.326-.831.198-.89-.146-.067m15.019-.341c-1.94.905-2.834 2.113-2.834 3.829 0 .837.075 1.297.233 1.444.196.182.213.164.109-.116-.713-1.912.08-3.612 2.242-4.812 1.071-.594 1.217-.796.25-.345m-84.829.24c.541 1.936 2.908 4.874 4.671 5.797.694.364.45.098-.428-.465-1.3-.834-2.709-2.493-3.584-4.219-.426-.841-.723-1.342-.659-1.113m30.932.083a7.053 7.053 0 0 1-.11.75l-.086.417.178-.409c.099-.225.148-.562.111-.75-.066-.332-.068-.332-.093-.008m-128.091.512c-.062.244-.08.476-.04.516.039.039.121-.129.182-.373.062-.244.08-.476.04-.515-.039-.04-.121.128-.182.372m85.582-.075c-.033.787 1.7 5.036 2.405 5.897.15.183.005-.172-.323-.789-.733-1.382-1.192-2.502-1.688-4.128-.21-.687-.387-1.128-.394-.98m29.769 1.663c-.331.558-.505.935-.386.836.227-.188 1.177-1.852 1.058-1.852-.038 0-.34.457-.672 1.016m-49.361-.303c-.173.295-.769 1.022-1.325 1.616-.556.593-.861.971-.677.839.822-.593 2.566-2.741 2.378-2.929-.034-.034-.204.179-.376.474m-29.252-.134c0 .563 1.723 4.164 2.355 4.921.336.402.336.397-.011-.167-.639-1.041-1.459-2.726-1.845-3.792-.329-.908-.499-1.236-.499-.962m-25.229.608c-.139.695-.005.83.145.146.064-.288.081-.559.038-.601-.042-.042-.125.162-.183.455m185.494.267c-.315.662-1.164 1.831-1.574 2.169-.138.114-.209.248-.158.299.051.051.41-.304.797-.79.706-.886 1.416-2.108 1.294-2.23-.035-.036-.197.213-.359.552m-30.707 1.212c0 .779.029 1.098.064.709a9.575 9.575 0 0 0 0-1.417c-.035-.39-.064-.071-.064.708m-52.367.179c-.308.358-.991.932-1.519 1.277-1.578 1.032-1.628 1.076-.676.592.848-.432 3.292-2.547 2.92-2.528-.091.005-.418.301-.725.659m-116.097.618c-.733.83-.805.947-.278.453.625-.585 1.468-1.593 1.32-1.578-.029.003-.498.51-1.042 1.125m13.156-.463c-.063.197-.077.396-.031.441.046.046.135-.078.197-.275.063-.197.077-.396.031-.441-.046-.046-.135.078-.197.275m115.451.755c-.292.593-.496 1.078-.452 1.078.112 0 1.119-2.02 1.045-2.095-.034-.033-.301.424-.593 1.017m-145.02-.69c-.027.565.714 1.793 1.52 2.517.708.637 1.61 1.12 1.372.735a.38.38 0 0 0-.295-.151c-.628 0-2.097-1.734-2.42-2.856-.089-.308-.168-.419-.177-.245m81.569.601c-.275.182-.425.33-.334.329.167-.003 1.074-.652.917-.657-.046-.002-.308.146-.583.328m145.435.186c-.103.294-.158.564-.122.6.036.036.149-.176.251-.471.103-.294.158-.565.122-.6-.035-.036-.148.176-.251.471m-198.317 1.236c-.293.593-.496 1.078-.453 1.078.112 0 1.12-2.02 1.045-2.095-.033-.033-.3.424-.592 1.017m184.347-.648c-.293.233-1.118.723-1.833 1.089-.714.366-1.111.613-.882.549.665-.185 2.242-1.06 2.854-1.584.694-.594.592-.634-.139-.054m-14.602.201c.441.81 2.098 2.029 2.753 2.024.12-.001-.16-.178-.621-.392-.757-.353-1.416-.916-2.169-1.857-.194-.242-.184-.18.037.225m-120.572.307c.161.042.423.042.584 0 .16-.042.029-.076-.292-.076s-.452.034-.292.076m-1.414.17c.207.039.507.038.666-.004.16-.042-.01-.074-.377-.072-.366.002-.497.036-.289.076m51.456.471c-.66.229-.661.23-.083.135.32-.053.695-.16.833-.238.367-.21.012-.161-.75.103m97.708.955c-1.695 2.675-5.028 5.136-9.084 6.707-.665.258-1.181.497-1.146.532.104.105 2.597-.93 4.016-1.668 2.964-1.54 5.582-3.956 6.852-6.324.452-.843.137-.471-.638.753m-118.64-.574c.101.19.266.395.366.457.131.081.13.015-.002-.231-.101-.19-.266-.395-.366-.457-.131-.081-.13-.015.002.231m17.646-.014c.484.034 1.234.033 1.667-.001.432-.034.036-.062-.881-.061-.917 0-1.27.028-.786.062m-66.533.21c.586 1.186 3.765 4.329 5.723 5.659.983.667 3.533 2.014 3.789 2.001.077-.004-.46-.31-1.193-.681-2.563-1.297-5.144-3.287-6.723-5.183-1.57-1.885-1.728-2.063-1.596-1.796M348.917 87c-.21.09-.241.143-.084.143.138 0 .4-.064.584-.143.21-.09.241-.143.083-.143-.137 0-.4.064-.583.143m-181.645.875c-.366.496-.474.717-.25.51.352-.325 1.076-1.385.946-1.385-.028 0-.342.394-.696.875m115.344.1c-.896 1.142-2.88 3.095-3.949 3.889-.972.722-2.977 1.969-3.167 1.969-.081 0-.193.074-.249.165-.353.572 2.769-1.375 4.437-2.766 1.214-1.013 4.085-4.232 3.774-4.232-.044 0-.424.439-.846.975m-154.942-.558c-.022 1.327 3.289 5.064 5.451 6.152.893.45.612.162-.417-.425-1.496-.855-3.516-2.979-4.338-4.561-.381-.733-.694-1.258-.696-1.166m120.013.416c1.444 2.135 5.898 5.759 7.896 6.423.184.061-.259-.236-.984-.66-2.624-1.535-4.596-3.183-6.592-5.513-.439-.511-.562-.607-.32-.25m-103.06-.215c.207.04.507.038.667-.003.159-.042-.011-.075-.377-.073-.367.002-.497.036-.29.076m3.331 0c.207.039.544.039.75 0 .207-.04.038-.073-.375-.073-.412 0-.581.033-.375.073m194.336 0c.207.04.507.038.666-.003.16-.042-.01-.075-.377-.073-.366.002-.497.036-.289.076m3.498 0c.206.039.543.039.75 0 .206-.04.037-.073-.375-.073-.413 0-.582.033-.375.073M326 88.736c0 1.126 4.265 4.893 6.25 5.52.183.058-.127-.151-.689-.464-2.328-1.295-3.663-2.443-4.877-4.195-.376-.542-.684-.93-.684-.861m-160.333.966c-.505.471-1.562 1.275-2.351 1.786-2.12 1.373-2.129 1.379-1.316.99 1.368-.654 5.199-3.636 4.667-3.633-.046.001-.496.386-1 .857m-6 3.798c-.321.176-.509.319-.417.319.092 0 .429-.143.75-.319.321-.176.508-.319.417-.319-.092 0-.43.143-.75.319m67.75.253c-.55.317-.934.577-.854.578.176.003 1.937-.992 1.937-1.093 0-.108-.012-.102-1.083.515m-92.917.497c.412.221.825.402.917.402.091 0-.171-.181-.584-.402-.412-.221-.825-.402-.916-.402-.092 0 .17.181.583.402m121.5.167c0 .085.87.469 1.515.667.221.068.364.084.318.034-.128-.138-1.833-.79-1.833-.701m98 .333c-.321.124-.471.225-.333.225.137 0 .512-.101.833-.225.321-.124.471-.225.333-.225-.137 0-.512.101-.833.225m-202.792 1.198c.161.042.423.042.584 0 .16-.042.029-.076-.292-.076s-.452.034-.292.076m-8.997.338c.253.039.628.038.833-.002.205-.04-.002-.071-.461-.07-.458.002-.626.034-.372.072m6.333 0c.253.039.628.038.833-.002.205-.04-.002-.071-.46-.07-.459.002-.626.034-.373.072m65.748-.002c.206.04.543.04.75 0 .206-.039.037-.072-.375-.072-.413 0-.582.033-.375.072m5.668.001c.208.039.508.038.667-.004.159-.042-.01-.074-.377-.072-.367.002-.497.036-.29.076m42.5 0c.208.039.508.038.667-.004.159-.042-.01-.074-.377-.072-.367.002-.497.036-.29.076m5.082-.003c.16.041.423.041.583 0 .16-.042.029-.077-.292-.077s-.452.035-.291.077m25.234.093c.042.069 2.698.125 5.901.125 3.202 0 5.823-.056 5.823-.125s-2.655-.125-5.901-.125c-3.245 0-5.866.056-5.823.125m47.182-.091c.207.04.544.04.75 0 .207-.039.038-.072-.375-.072-.412 0-.581.033-.375.072m6.25.002c.252.038.665.038.917 0s.046-.069-.458-.069c-.505 0-.711.031-.459.069m-201.079.17c.392.035.992.034 1.334-.002.341-.035.02-.064-.713-.064-.733.001-1.013.03-.621.066m71.999-.002c.3.037.75.036 1-.002s.005-.068-.545-.067c-.55.001-.755.032-.455.069m47.497 0c.298.037.785.037 1.083 0 .298-.037.054-.067-.541-.067-.596 0-.84.03-.542.067m77.996 0c.296.036.821.037 1.167.001.346-.036.104-.066-.538-.067-.642-.001-.925.029-.629.066m48.092 5.754c-.105.39-.241.84-.303 1-.062.161-.041.292.047.292.142 0 .71-1.482.71-1.852 0-.415-.288-.06-.454.56m-.853 2.217c-.231.506-.237.575-.053.575.121 0 .526-.712.526-.925 0-.239-.308-.012-.473.35m-1.586 3.018c-.139.26-.669.993-1.179 1.628-.511.636-.928 1.23-.928 1.321 0 .092.341-.278.758-.821.417-.543.862-1.114.989-1.268.463-.563.796-1.149.704-1.24-.051-.052-.206.119-.344.38m-2.952 3.684-.572.622.583-.499c.32-.275.614-.519.652-.542.039-.023.034-.078-.01-.122-.045-.045-.338.199-.653.541m-2.331 1.835c-.876.62-2.132 1.388-2.79 1.707-.659.32-1.198.635-1.199.701-.005.345 3.996-1.989 5.165-3.012.919-.806.546-.614-1.176.604"/>
  </g>
</svg>