<?xml version="1.0" encoding="UTF-8"?>
<svg xmlns="http://www.w3.org/2000/svg" xmlns:xlink="http://www.w3.org/1999/xlink" width="88px" height="42px" viewBox="0 0 88 42" version="1.1">
<defs>
<clipPath id="clip1">
  <path d="M 3 4 L 85 4 L 85 37 L 3 37 Z M 3 4 "/>
</clipPath>
<clipPath id="clip2">
  <path d="M 10.78125 24.925781 C 10.929688 25.023438 11.089844 25.109375 11.257812 25.179688 C 23.921875 30.046875 30.1875 33.539062 43.089844 36.515625 C 57.472656 36.363281 65.164062 30.730469 78.253906 25.007812 C 78.257812 24.953125 78.257812 24.894531 78.253906 24.839844 L 84.179688 12.222656 L 84.179688 12.105469 C 84.226562 11.949219 84.226562 11.785156 84.179688 11.628906 C 83.683594 11.191406 83.109375 10.855469 82.480469 10.640625 C 69.035156 5.550781 54.332031 4.582031 40.257812 4.582031 C 27.894531 4.675781 15.636719 6.875 4.007812 11.082031 C 3.847656 11.148438 3.746094 11.304688 3.753906 11.476562 Z M 10.78125 24.925781 "/>
</clipPath>
<radialGradient id="radial0" gradientUnits="userSpaceOnUse" cx="26.45" cy="16.61" fx="26.45" fy="23.591" r="13.91" gradientTransform="matrix(1.79973,0,0,2.00883,-3.497588,-0.390632)">
<stop offset="0.23" style="stop-color:rgb(100%,100%,100%);stop-opacity:1;"/>
<stop offset="1" style="stop-color:rgb(10.588235%,36.078431%,64.313725%);stop-opacity:1;"/>
</radialGradient>
</defs>
<g id="surface1">
<path style=" stroke:none;fill-rule:evenodd;fill:rgb(100%,100%,100%);fill-opacity:1;" d="M 0 10.402344 L 0 29.488281 C 0.0585938 30.71875 0.878906 31.777344 2.054688 32.140625 C 14.890625 38.246094 28.855469 41.597656 43.058594 41.980469 C 58.152344 41.75 73.011719 38.203125 86.589844 31.597656 C 87.460938 31.050781 87.972656 30.074219 87.933594 29.042969 L 87.933594 11.339844 C 88.136719 8.835938 86.523438 7.78125 84.402344 6.914062 C 70.34375 1.109375 54.941406 0 40.136719 0 C 27.066406 0.109375 14.128906 2.609375 1.953125 7.371094 C 0.742188 7.882812 -0.03125 9.085938 0 10.402344 "/>
<path style=" stroke:none;fill-rule:evenodd;fill:rgb(0%,36.078431%,63.529412%);fill-opacity:1;" d="M 1.289062 11.457031 L 1.289062 28.636719 C 1.371094 29.785156 2.179688 30.753906 3.292969 31.035156 C 15.859375 36.550781 29.378906 39.558594 43.089844 39.886719 C 57.679688 39.695312 72.074219 36.507812 85.386719 30.523438 C 86.214844 30.066406 86.722656 29.179688 86.691406 28.226562 L 86.691406 12.308594 C 86.878906 10.0625 85.335938 9.109375 83.296875 8.324219 C 69.613281 3.097656 54.636719 2.113281 40.257812 2.09375 C 27.617188 2.1875 15.082031 4.433594 3.191406 8.734375 C 2.046875 9.144531 1.285156 10.238281 1.289062 11.457031 "/>
<g clip-path="url(#clip1)" clip-rule="nonzero">
<g clip-path="url(#clip2)" clip-rule="evenodd">
<path style=" stroke:none;fill-rule:nonzero;fill:url(#radial0);" d="M 1.289062 2.09375 L 86.726562 2.09375 L 86.726562 39.886719 L 1.289062 39.886719 Z M 1.289062 2.09375 "/>
</g>
</g>
<path style=" stroke:none;fill-rule:evenodd;fill:rgb(83.529412%,13.72549%,18.823529%);fill-opacity:1;" d="M 69.253906 28.636719 C 70.273438 27.9375 69.410156 26.675781 68.269531 27.238281 C 52.363281 35.035156 36.488281 35.105469 20.324219 27.359375 C 17.757812 26.132812 18.015625 28.109375 19.082031 28.804688 C 37.269531 40.722656 53.789062 39.429688 69.253906 28.636719 "/>
<path style=" stroke:none;fill-rule:evenodd;fill:rgb(100%,100%,100%);fill-opacity:1;" d="M 10.917969 13.925781 L 12.070312 13.925781 C 13.347656 13.894531 14.589844 14.34375 15.550781 15.1875 C 16.398438 16.058594 16.820312 17.261719 16.707031 18.472656 C 16.71875 20.019531 15.847656 21.441406 14.464844 22.132812 C 13.351562 22.648438 12.117188 22.835938 10.898438 22.675781 L 10.898438 13.925781 Z M 27.488281 19.492188 C 26.96875 17.609375 26.160156 15.816406 25.09375 14.183594 C 24.03125 15.820312 23.226562 17.613281 22.699219 19.492188 L 27.503906 19.492188 Z M 23.769531 11.746094 L 26.519531 11.746094 C 29.1875 14.710938 30.832031 19.035156 31.375 24.753906 L 28.40625 24.753906 C 28.324219 23.753906 28.207031 22.800781 28.046875 21.894531 L 22.070312 21.894531 C 21.90625 22.839844 21.785156 23.796875 21.714844 24.753906 L 18.863281 24.753906 C 19.542969 18.929688 21.15625 14.539062 23.769531 11.746094 Z M 31.886719 24.753906 L 34.722656 24.753906 L 34.722656 15.902344 C 37.414062 18.277344 39.414062 21.34375 40.511719 24.769531 L 43.039062 24.769531 L 43.039062 11.746094 L 40.207031 11.746094 L 40.207031 18.03125 C 38.5625 15.636719 36.558594 13.519531 34.261719 11.746094 L 31.886719 11.746094 Z M 57.355469 24.753906 L 60.1875 24.753906 L 60.1875 15.902344 C 62.882812 18.277344 64.882812 21.34375 65.980469 24.769531 L 68.59375 24.769531 L 68.59375 11.746094 L 65.742188 11.746094 L 65.742188 18.03125 C 64.097656 15.636719 62.09375 13.519531 59.796875 11.746094 L 57.421875 11.746094 L 57.421875 24.753906 Z M 50.222656 11.355469 C 53.933594 11.484375 56.851562 14.578125 56.777344 18.300781 C 56.898438 20.726562 55.679688 23.019531 53.605469 24.269531 C 51.527344 25.519531 48.933594 25.519531 46.859375 24.269531 C 44.78125 23.019531 43.5625 20.726562 43.6875 18.300781 C 43.609375 14.585938 46.519531 11.496094 50.222656 11.355469 Z M 50.222656 13.925781 C 52.503906 14.054688 54.253906 16.011719 54.128906 18.300781 C 54.265625 19.789062 53.554688 21.222656 52.289062 22.011719 C 51.023438 22.796875 49.421875 22.796875 48.15625 22.011719 C 46.890625 21.222656 46.179688 19.789062 46.316406 18.300781 C 46.191406 16.011719 47.941406 14.054688 50.222656 13.925781 Z M 78.578125 17.023438 L 72.160156 17.023438 C 72.335938 15.253906 73.78125 13.882812 75.554688 13.808594 C 76.386719 13.816406 77.179688 14.164062 77.75 14.769531 C 78.320312 15.378906 78.617188 16.191406 78.578125 17.023438 Z M 81.003906 22.25 L 78.269531 21.585938 C 77.578125 22.304688 76.617188 22.691406 75.621094 22.660156 C 73.707031 22.699219 72.121094 21.175781 72.074219 19.253906 L 81.105469 19.253906 C 81.238281 18.515625 81.285156 17.757812 81.242188 17.007812 C 81.167969 15.589844 80.664062 14.230469 79.800781 13.109375 C 78.722656 11.886719 77.125 11.253906 75.503906 11.40625 C 73.800781 11.367188 72.164062 12.0625 71.003906 13.3125 C 69.769531 14.800781 69.160156 16.710938 69.304688 18.640625 C 69.21875 20.578125 69.945312 22.460938 71.308594 23.835938 C 72.378906 24.835938 73.804688 25.359375 75.265625 25.28125 C 77.558594 25.296875 79.707031 24.183594 81.023438 22.300781 Z M 7.792969 11.664062 C 8.386719 13.261719 8.046875 19.699219 8.046875 21.996094 C 8.046875 23.902344 7.945312 24.925781 7.945312 24.925781 C 9.066406 25.140625 10.203125 25.242188 11.339844 25.230469 C 13.367188 25.257812 15.347656 24.617188 16.980469 23.410156 C 18.617188 22.070312 19.527344 20.027344 19.421875 17.910156 C 19.578125 15.734375 18.511719 13.652344 16.65625 12.511719 C 14.835938 11.589844 12.792969 11.199219 10.765625 11.390625 C 9.769531 11.429688 8.777344 11.519531 7.792969 11.664062 Z M 7.792969 11.664062 "/>
</g>
</svg>
