<svg xmlns="http://www.w3.org/2000/svg" width="88" height="42">
  <defs>
    <clipPath id="a">
      <path d="M3 4h82v33H3Zm0 0"/>
    </clipPath>
    <clipPath id="b">
      <path d="M10.781 24.926c.149.097.309.183.477.254 12.664 4.867 18.93 8.36 31.832 11.336 14.383-.153 22.074-5.786 35.164-11.508a1.205 1.205 0 0 0 0-.168l5.926-12.617v-.118a.825.825 0 0 0 0-.476 5.017 5.017 0 0 0-1.7-.988C69.035 5.55 54.332 4.582 40.258 4.582a108.986 108.986 0 0 0-36.25 6.5.407.407 0 0 0-.254.395Zm0 0"/>
    </clipPath>
    <radialGradient id="c" gradientUnits="userSpaceOnUse" cx="26.45" cy="16.61" fx="26.45" fy="23.591" r="13.91" gradientTransform="matrix(1.79973 0 0 2.00883 -3.498 -.39)">
      <stop offset=".23" style="stop-color:#fff;stop-opacity:1"/>
      <stop offset="1" style="stop-color:#1b5ca4;stop-opacity:1"/>
    </radialGradient>
  </defs>
  <path style="stroke:none;fill-rule:evenodd;fill:#fff;fill-opacity:1" d="M0 10.402v19.086a2.918 2.918 0 0 0 2.055 2.653 101.842 101.842 0 0 0 41.004 9.84 103.11 103.11 0 0 0 43.53-10.383 2.887 2.887 0 0 0 1.345-2.555V11.34c.203-2.504-1.41-3.559-3.532-4.426C70.344 1.11 54.942 0 40.137 0 27.067.11 14.129 2.61 1.953 7.371A3.206 3.206 0 0 0 0 10.402"/>
  <path style="stroke:none;fill-rule:evenodd;fill:#005ca2;fill-opacity:1" d="M1.29 11.457v17.18a2.67 2.67 0 0 0 2.003 2.398 105.292 105.292 0 0 0 39.797 8.852 106.566 106.566 0 0 0 42.297-9.364 2.53 2.53 0 0 0 1.304-2.296V12.309c.188-2.246-1.355-3.2-3.394-3.985-13.684-5.226-28.66-6.21-43.04-6.23a111.41 111.41 0 0 0-37.066 6.64 2.881 2.881 0 0 0-1.902 2.723"/>
  <g clip-path="url(#a)">
    <g clip-path="url(#b)" clip-rule="evenodd">
      <path style="stroke:none;fill-rule:nonzero;fill:url(#c)" d="M1.29 2.094h85.437v37.793H1.289Zm0 0"/>
    </g>
  </g>
  <path style="stroke:none;fill-rule:evenodd;fill:#d52330;fill-opacity:1" d="M69.254 28.637c1.02-.7.156-1.961-.984-1.399-15.907 7.797-31.782 7.867-47.946.121-2.566-1.226-2.308.75-1.242 1.446 18.188 11.918 34.707 10.625 50.172-.168"/>
  <path style="stroke:none;fill-rule:evenodd;fill:#fff;fill-opacity:1" d="M10.918 13.926h1.152a5.084 5.084 0 0 1 3.48 1.261 4.158 4.158 0 0 1 1.157 3.286 4.06 4.06 0 0 1-2.242 3.66 6.47 6.47 0 0 1-3.567.543v-8.75Zm16.57 5.566a18.914 18.914 0 0 0-2.394-5.308 19.356 19.356 0 0 0-2.395 5.308h4.805Zm-3.718-7.746h2.75c2.668 2.965 4.312 7.29 4.855 13.008h-2.969c-.082-1-.199-1.953-.36-2.86H22.07a29.31 29.31 0 0 0-.355 2.86h-2.852c.68-5.824 2.293-10.215 4.907-13.008Zm8.117 13.008h2.836v-8.852a19.94 19.94 0 0 1 5.789 8.868h2.527V11.746h-2.832v6.285a27.869 27.869 0 0 0-5.945-6.285h-2.375Zm25.468 0h2.833v-8.852a19.914 19.914 0 0 1 5.792 8.868h2.614V11.746h-2.852v6.285a27.869 27.869 0 0 0-5.945-6.285h-2.375v13.008Zm-7.132-13.399c3.71.13 6.629 3.223 6.554 6.946a6.582 6.582 0 0 1-3.172 5.969 6.537 6.537 0 0 1-6.746 0 6.567 6.567 0 0 1-3.172-5.97c-.078-3.714 2.833-6.804 6.536-6.945Zm0 2.57a4.152 4.152 0 0 1 3.906 4.376 3.943 3.943 0 0 1-1.84 3.71 3.92 3.92 0 0 1-4.133 0 3.943 3.943 0 0 1-1.84-3.71 4.152 4.152 0 0 1 3.907-4.375Zm28.355 3.098H72.16a3.565 3.565 0 0 1 3.395-3.214 3.056 3.056 0 0 1 3.023 3.214Zm2.426 5.227-2.734-.664a3.515 3.515 0 0 1-2.649 1.074 3.485 3.485 0 0 1-3.547-3.406h9.031c.133-.738.18-1.496.137-2.246a6.989 6.989 0 0 0-1.441-3.899 5.094 5.094 0 0 0-4.297-1.703 5.954 5.954 0 0 0-4.5 1.906 7.472 7.472 0 0 0-1.7 5.329 6.94 6.94 0 0 0 2.005 5.195 5.374 5.374 0 0 0 3.957 1.445 6.964 6.964 0 0 0 5.757-2.98ZM7.793 11.664c.594 1.598.254 8.035.254 10.332 0 1.906-.102 2.93-.102 2.93 1.121.215 2.258.316 3.395.304a9.28 9.28 0 0 0 5.64-1.82 6.685 6.685 0 0 0 2.442-5.5 5.845 5.845 0 0 0-2.766-5.398 10.797 10.797 0 0 0-5.89-1.121c-.996.039-1.989.129-2.973.273Zm0 0"/>
</svg>