<svg xmlns="http://www.w3.org/2000/svg" width="210" height="100" version="1.0" viewBox="-11.932 -8.072 103.414 48.434">
  <g fill="red">
    <path d="M36.743.063c-9.81.281-19.49 2.085-27.367 5.089-1.173.452-3.466 1.42-4.375 1.858-.095.041-.224.185-.285.316-.23.46-.17.768.651 3.38.51 1.62.76 2.51.733 2.634-.048.268-.326.631-.577.741-.122.055-.603.22-1.085.377-.936.302-3.453 1.269-3.908 1.509-.407.206-.57.494-.522.926.034.357 4.179 14.436 4.362 14.834.061.124.203.302.326.398l.217.164h34.78c25.583 0 34.822-.02 34.93-.075.306-.158.523-.439.659-.844.495-1.522 4.22-14.271 4.253-14.546.034-.308.014-.37-.149-.569a1.527 1.527 0 0 0-.386-.33c-.374-.191-2.965-1.186-3.833-1.474-.482-.15-.984-.329-1.133-.39-.312-.13-.577-.501-.597-.837-.014-.227 1.275-4.774 1.452-5.123.122-.247.027-.762-.19-.988-.102-.11-.224-.199-.272-.199-.047 0-.461-.171-.922-.384C65.947 3.067 56.294.851 45.908.193c-1.439-.089-5.326-.206-6.513-.192-.502.007-1.696.034-2.652.062zM48.03 7.339c.081.103.109.206.081.323-.352 1.488-.46 1.797-.766 2.14-.319.363-.76.617-1.798 1.056-.319.13-.753.288-.963.343-.34.082-.414.089-.577 0-.4-.206-.427-.7-.102-1.75.299-.946.414-1.145.842-1.433.617-.411 1.343-.672 2.36-.823.516-.082.774-.04.923.144zm-24.578.364c.109.062.217.178.237.26.028.097-.393 1.743-1.078 4.246-.618 2.25-1.126 4.122-1.126 4.163 0 .055.495.075 1.723.075h1.723l.027-.158c.02-.082.407-1.522.862-3.202.658-2.449.882-3.176 1.126-3.683.346-.707.834-1.297 1.316-1.585l.312-.185 1.757-.02c.963-.014 1.798-.007 1.859.02.081.028.047.103-.17.33-.712.74-1.404 2.256-2.157 4.718-.502 1.632-2.707 10.315-2.734 10.76-.034.583.054.858.427 1.297l.312.37-.156.158c-.434.432-1.58.926-2.598 1.118-.651.123-1.994.212-2.17.144-.245-.096-.387-.432-.38-.926 0-.494.054-.714 1.132-4.78.428-1.612.774-2.956.774-2.997 0-.055-.543-.076-1.717-.076h-1.716l-.488 1.694c-.658 2.27-.984 2.95-1.86 3.896-.854.932-3.635 2.51-5.48 3.113-1.195.391-1.52.446-2.612.453-1.133 0-1.377-.055-2.239-.508-1.459-.76-2.788-3.175-2.924-5.308-.06-.988.034-1.44.36-1.735.36-.322 1.6-.933 2.523-1.241 1.011-.336.957-.412.91 1.31-.028 1.035-.014 1.453.074 1.995.224 1.358.78 2.689 1.377 3.272.55.541 1.574.836 2.415.713.977-.151 2.13-1.612 3.005-3.793.122-.322.645-2.07 1.154-3.888a2390.242 2390.242 0 0 1 1.594-5.713c.366-1.324.692-2.593.712-2.812.081-.782-.15-.919-1.6-.967-1.174-.034-1.568.027-2.307.405-.835.425-1.37 1.09-1.676 2.084-.095.33-.122.631-.115 1.475 0 1.228.04 1.378.712 2.812.217.466.373.878.346.898-.061.069-1.431.254-2.232.309-.427.034-.685.02-.82-.034-.313-.13-.618-.81-.923-2.03-.563-2.257.095-4.211 1.804-5.357 1.377-.926 2.972-1.166 7.944-1.186 2.17-.007 2.592.007 2.761.096zm35.012 5.04c.732.145 1.146.618 1.146 1.317 0 .398-.129.913-1.289 5.062-1.248 4.485-1.323 4.862-.977 5.28.102.117.299.275.441.35.15.076.265.158.265.192 0 .398-3.385 1.722-4.41 1.722-.407 0-.753-.185-.895-.48-.224-.446-.143-1.043.353-2.572.142-.453.522-1.79.848-2.977.318-1.186.719-2.606.882-3.161.162-.556.318-1.193.339-1.413.04-.35.027-.432-.102-.597-.115-.144-.204-.185-.414-.185-.712 0-1.906.83-2.388 1.667-.25.425-.366.775-1.038 3.031-.916 3.1-.916 3.1-.956 4.184-.02.63-.068 1.008-.122 1.104-.231.363-2.483 1.31-3.297 1.378-.496.048-.7-.068-.889-.514-.224-.5-.15-1.248.237-2.448.17-.529.733-2.353 1.249-4.047.895-2.97.93-3.107.936-3.703 0-.57-.014-.638-.197-.912-.15-.22-.183-.33-.136-.405.034-.062.367-.268.74-.473 1.085-.59 3.378-1.29 3.84-1.173.332.09.413.562.223 1.337-.162.645-.162.645.794-.013.957-.652 2.239-1.221 3.25-1.434.936-.199 1.065-.212 1.567-.116zm-19.151.44c.57.295.895.727 1.038 1.406.278 1.31-1.031 2.955-3.223 4.039-.746.37-1.967.83-2.781 1.042-.326.09-.638.2-.685.247-.048.048-.156.343-.244.659-.122.452-.156.74-.156 1.426-.007.974.054 1.173.474 1.646.4.446.692.563 1.513.604.848.04 1.228-.041 2.144-.432.373-.165.706-.275.74-.24.135.137-.075.466-.76 1.159-1.29 1.31-2.232 1.783-4.016 2.002-.8.096-1.425.041-2.09-.185-.977-.33-1.492-.775-1.879-1.625-.292-.638-.387-1.146-.38-1.975.014-2.27 1.058-4.98 2.632-6.817 1.567-1.832 3.541-2.812 6.33-3.148.46-.055 1.017.02 1.343.192zm6.865-.096a.83.83 0 0 1 .176.308c.075.316-.237 1.557-1.316 5.212-1.289 4.383-1.37 4.685-1.37 5.185 0 .35.027.432.204.638.115.123.332.281.481.343.265.11.272.123.17.24-.15.171-1.303.761-2.062 1.063-.808.322-1.839.59-2.26.59-.44 0-.895-.227-1.03-.515-.292-.624-.218-1.138.501-3.312 1.37-4.136 2.042-6.454 2.056-7.085.007-.39-.02-.487-.19-.733-.102-.158-.176-.33-.156-.384.142-.378 2.198-1.256 3.677-1.571.678-.15.956-.144 1.12.02zm24.035-.062c.197.11.245.185.197.35-.02.075-1.492 2.16-3.283 4.636-2.578 3.566-3.243 4.533-3.23 4.67l.02.178 3.183.021c2.062.007 3.27-.007 3.439-.055.319-.089.658-.418 1.018-.98.244-.384.264-.446.264-.92 0-.576-.081-.795-.434-1.104-.265-.233-.604-.315-1.16-.274l-.34.02.021-.24c.027-.404.353-.966.679-1.2.27-.185.346-.205.848-.205.895.006 1.56.384 1.858 1.042.143.309.163.439.13.72-.136 1.029-1.242 3.059-2.864 5.274-.352.48-.746.967-.882 1.084l-.237.212h-5.122c-4.314 0-5.156-.013-5.352-.096-.13-.055-.238-.13-.238-.164 0-.076.597-.947 1.038-1.523.658-.85 1.649-2.037 3.304-3.943 2.646-3.052 3.053-3.587 3.053-3.985v-.233h-4.288l-.36.377c-.325.343-.488.44-.59.343-.08-.082.618-2.085.964-2.778.17-.329.529-.74.902-1.028.312-.24.706-.268 4.037-.268 2.347-.007 3.324.014 3.425.069z"/>
    <path d="M35.874 14.63c-.502.37-1.03 1.31-1.635 2.88-.434 1.139-.434 1.16-.006 1.111.183-.02.597-.123.916-.22.671-.205.617-.143 1.146-1.44.59-1.467.746-2.276.461-2.434-.237-.124-.644-.082-.882.103z"/>
  </g>
</svg>