<?xml version="1.0" encoding="UTF-8"?>
<svg xmlns="http://www.w3.org/2000/svg" xmlns:xlink="http://www.w3.org/1999/xlink" width="86px" height="42px" viewBox="0 0 85 42" version="1.1">
<defs>
<linearGradient id="linear0" gradientUnits="userSpaceOnUse" x1="47.901" y1="2.557" x2="47.901" y2="101.558" gradientTransform="matrix(0.316241,0,0,0.319681,0.0864496,0)">
<stop offset="0.06" style="stop-color:rgb(89.019608%,51.372549%,55.294118%);stop-opacity:1;"/>
<stop offset="0.385" style="stop-color:rgb(80.784314%,23.921569%,38.039216%);stop-opacity:1;"/>
<stop offset="0.632" style="stop-color:rgb(70.980392%,3.921569%,24.313725%);stop-opacity:1;"/>
</linearGradient>
<filter id="alpha" filterUnits="objectBoundingBox" x="0%" y="0%" width="100%" height="100%">
  <feColorMatrix type="matrix" in="SourceGraphic" values="0 0 0 0 1 0 0 0 0 1 0 0 0 0 1 0 0 0 1 0"/>
</filter>
<mask id="mask0">
  <g filter="url(#alpha)">
<rect x="0" y="0" width="85" height="42" style="fill:rgb(0%,0%,0%);fill-opacity:0.8;stroke:none;"/>
  </g>
</mask>
<clipPath id="clip1">
  <rect x="0" y="0" width="85" height="42"/>
</clipPath>
<g id="surface5" clip-path="url(#clip1)">
<path style=" stroke:none;fill-rule:nonzero;fill:rgb(30.196078%,30.196078%,30.196078%);fill-opacity:1;" d="M 21.503906 16.847656 L 21.503906 18.445312 L 30.519531 18.445312 C 30.320312 21.773438 28.910156 24.761719 26.71875 26.976562 C 24.355469 29.363281 21.101562 30.835938 17.496094 30.835938 C 13.890625 30.835938 10.632812 29.363281 8.269531 26.976562 C 5.90625 24.585938 4.445312 21.292969 4.445312 17.648438 C 4.445312 14.003906 5.90625 10.710938 8.269531 8.320312 C 10.632812 5.933594 13.890625 4.457031 17.496094 4.457031 L 18.210938 4.457031 L 18.210938 2.859375 L 17.496094 2.859375 C 9.414062 2.859375 2.867188 9.480469 2.867188 17.648438 C 2.867188 25.816406 9.414062 32.4375 17.496094 32.4375 C 25.574219 32.4375 32.125 25.816406 32.125 17.648438 L 32.125 16.847656 Z M 9.800781 12.121094 C 9.800781 13.328125 10.765625 14.304688 11.960938 14.304688 C 13.152344 14.304688 14.121094 13.328125 14.121094 12.121094 C 14.121094 10.914062 13.152344 9.9375 11.960938 9.9375 C 10.765625 9.9375 9.800781 10.914062 9.800781 12.121094 Z M 16.636719 9.992188 L 16.636719 25.398438 L 21.542969 25.398438 L 21.542969 23.800781 L 18.21875 23.800781 L 18.21875 9.992188 Z M 16.636719 9.992188 "/>
</g>
<linearGradient id="linear1" gradientUnits="userSpaceOnUse" x1="54.219" y1="8.386" x2="54.219" y2="100.904" gradientTransform="matrix(0.316241,0,0,0.319681,0.0864496,0)">
<stop offset="0.082" style="stop-color:rgb(100%,100%,100%);stop-opacity:1;"/>
<stop offset="0.35" style="stop-color:rgb(98.823529%,98.823529%,98.823529%);stop-opacity:1;"/>
<stop offset="0.527" style="stop-color:rgb(95.294118%,95.294118%,95.294118%);stop-opacity:1;"/>
<stop offset="0.679" style="stop-color:rgb(89.411765%,89.411765%,89.411765%);stop-opacity:1;"/>
<stop offset="0.815" style="stop-color:rgb(81.176471%,81.176471%,81.176471%);stop-opacity:1;"/>
<stop offset="0.941" style="stop-color:rgb(70.588235%,70.588235%,70.588235%);stop-opacity:1;"/>
<stop offset="0.945" style="stop-color:rgb(70.196078%,70.196078%,70.196078%);stop-opacity:1;"/>
</linearGradient>
</defs>
<g id="surface1">
<path style=" stroke:none;fill-rule:nonzero;fill:rgb(70.980392%,3.921569%,24.313725%);fill-opacity:1;" d="M 34.582031 17.433594 C 34.582031 27.0625 26.859375 34.871094 17.332031 34.871094 C 7.808594 34.871094 0.0859375 27.0625 0.0859375 17.433594 C 0.0859375 7.804688 7.808594 0 17.332031 0 C 26.859375 0 34.582031 7.804688 34.582031 17.433594 Z M 34.582031 17.433594 "/>
<path style=" stroke:none;fill-rule:nonzero;fill:url(#linear0);" d="M 29.597656 16.640625 C 29.597656 25.382812 22.675781 32.464844 14.917969 32.464844 C 7.160156 32.464844 0.871094 25.382812 0.871094 16.640625 C 0.871094 7.902344 8.769531 0.816406 16.527344 0.816406 C 24.285156 0.816406 29.597656 7.902344 29.597656 16.640625 Z M 29.597656 16.640625 "/>
<use xlink:href="#surface5" mask="url(#mask0)"/>
<path style=" stroke:none;fill-rule:nonzero;fill:url(#linear1);" d="M 21.242188 16.667969 L 21.242188 18.269531 L 30.257812 18.269531 C 30.058594 21.59375 28.648438 24.582031 26.457031 26.796875 C 24.09375 29.183594 20.835938 30.660156 17.234375 30.660156 C 13.625 30.660156 10.371094 29.183594 8.007812 26.796875 C 5.644531 24.40625 4.183594 21.113281 4.183594 17.46875 C 4.183594 13.824219 5.644531 10.53125 8.007812 8.140625 C 10.371094 5.753906 13.625 4.28125 17.234375 4.28125 L 17.949219 4.277344 L 17.949219 2.679688 L 17.234375 2.679688 C 9.152344 2.679688 2.605469 9.300781 2.601562 17.46875 C 2.605469 25.636719 9.152344 32.257812 17.234375 32.257812 C 25.3125 32.257812 31.863281 25.636719 31.863281 17.46875 L 31.863281 16.667969 Z M 9.539062 11.941406 C 9.539062 13.148438 10.503906 14.125 11.699219 14.125 C 12.890625 14.125 13.859375 13.148438 13.859375 11.941406 C 13.859375 10.734375 12.890625 9.757812 11.699219 9.757812 C 10.503906 9.757812 9.539062 10.734375 9.539062 11.941406 Z M 16.375 9.8125 L 16.375 25.21875 L 21.28125 25.21875 L 21.28125 23.621094 L 17.957031 23.621094 L 17.957031 9.8125 Z M 16.375 9.8125 "/>
<path style=" stroke:none;fill-rule:nonzero;fill:rgb(43.137255%,43.137255%,43.921569%);fill-opacity:1;" d="M 78.242188 26.871094 C 75.589844 28.359375 72.675781 28.925781 69.679688 28.925781 C 61.816406 28.925781 58.671875 24.425781 58.671875 17.382812 C 58.671875 10.335938 62.050781 5.753906 69.679688 5.753906 C 72.90625 5.753906 75.871094 6.515625 78.28125 9.425781 L 75.042969 12.421875 C 73.820312 10.746094 71.957031 9.945312 69.679688 9.945312 C 65.171875 9.945312 63.632812 13.285156 63.632812 17.382812 C 63.632812 21.476562 64.738281 24.597656 69.679688 24.597656 C 71.640625 24.597656 72.746094 24.375 73.582031 23.878906 L 73.582031 19.949219 L 69.4375 19.949219 L 69.4375 15.894531 L 78.242188 15.894531 Z M 42.21875 6.253906 L 42.21875 28.628906 L 57.925781 28.628906 L 57.925781 24.152344 L 47.386719 24.152344 L 47.386719 6.261719 Z M 42.316406 41.859375 L 42.316406 35.148438 L 43.34375 35.148438 L 43.34375 40.945312 L 46.121094 40.945312 L 46.121094 41.859375 Z M 46.867188 36.265625 L 46.867188 35.25 L 47.890625 35.25 L 47.890625 36.265625 Z M 46.894531 41.859375 L 46.894531 37.078125 L 47.863281 37.078125 L 47.863281 41.859375 Z M 50.238281 37.898438 L 50.238281 41.859375 L 49.269531 41.859375 L 49.269531 37.898438 L 48.71875 37.898438 L 48.71875 37.164062 L 49.269531 37.164062 L 49.269531 36.429688 C 49.269531 35.742188 49.6875 35.097656 50.589844 35.097656 L 51.722656 35.097656 L 51.722656 35.917969 L 50.769531 35.917969 C 50.410156 35.917969 50.238281 36.128906 50.238281 36.476562 L 50.238281 37.164062 L 51.761719 37.164062 L 51.761719 37.898438 Z M 53.246094 39.75 C 53.246094 40.566406 53.683594 41.085938 54.472656 41.085938 C 55.011719 41.085938 55.296875 40.9375 55.640625 40.597656 L 56.257812 41.171875 C 55.761719 41.664062 55.296875 41.917969 54.453125 41.917969 C 53.246094 41.917969 52.285156 41.285156 52.285156 39.464844 C 52.285156 37.917969 53.09375 37.023438 54.328125 37.023438 C 55.621094 37.023438 56.371094 37.964844 56.371094 39.324219 L 56.371094 39.75 Z M 55.277344 38.429688 C 55.125 38.070312 54.785156 37.824219 54.328125 37.824219 C 53.875 37.824219 53.523438 38.070312 53.371094 38.429688 C 53.273438 38.644531 53.257812 38.785156 53.246094 39.078125 L 55.410156 39.078125 C 55.402344 38.785156 55.375 38.644531 55.277344 38.429688 Z M 59.859375 41.917969 C 59.070312 41.917969 58.40625 41.785156 57.835938 41.230469 L 58.472656 40.597656 C 58.859375 40.992188 59.382812 41.097656 59.859375 41.097656 C 60.445312 41.097656 60.914062 40.890625 60.914062 40.4375 C 60.914062 40.117188 60.730469 39.910156 60.265625 39.871094 L 59.496094 39.804688 C 58.59375 39.730469 58.074219 39.324219 58.074219 38.484375 C 58.074219 37.550781 58.878906 37.023438 59.886719 37.023438 C 60.609375 37.023438 61.226562 37.175781 61.671875 37.5625 L 61.0625 38.171875 C 60.761719 37.917969 60.332031 37.824219 59.878906 37.824219 C 59.296875 37.824219 59.003906 38.078125 59.003906 38.4375 C 59.003906 38.71875 59.15625 38.9375 59.667969 38.984375 L 60.429688 39.050781 C 61.332031 39.125 61.863281 39.550781 61.863281 40.398438 C 61.863281 41.398438 61.007812 41.917969 59.859375 41.917969 Z M 69.351562 36.394531 C 68.390625 35.898438 67.359375 36.003906 67.359375 36.003906 C 66.910156 36.039062 66.601562 36.164062 66.363281 36.417969 C 66.03125 36.777344 65.957031 37.15625 65.957031 38.503906 C 65.957031 39.851562 66.03125 40.238281 66.363281 40.597656 C 66.601562 40.851562 66.960938 41.003906 67.359375 41.003906 C 67.359375 41.003906 68.226562 41.066406 68.804688 40.847656 L 68.804688 39.097656 L 67.359375 39.097656 L 67.359375 38.230469 L 69.832031 38.230469 L 69.832031 39.257812 L 69.816406 41.660156 C 68.542969 42 67.402344 41.917969 67.359375 41.917969 C 66.6875 41.882812 66.050781 41.664062 65.585938 41.199219 C 64.921875 40.539062 64.929688 39.796875 64.929688 38.503906 C 64.929688 37.210938 64.921875 36.46875 65.585938 35.808594 C 66.050781 35.34375 66.640625 35.089844 67.359375 35.089844 C 67.359375 35.089844 68.773438 34.964844 69.921875 35.683594 Z M 74.546875 41.351562 C 74.230469 41.671875 73.757812 41.917969 73.101562 41.917969 C 72.445312 41.917969 71.980469 41.671875 71.667969 41.351562 C 71.210938 40.878906 71.097656 40.277344 71.097656 39.464844 C 71.097656 38.664062 71.210938 38.058594 71.667969 37.589844 C 71.980469 37.269531 72.445312 37.023438 73.101562 37.023438 C 73.757812 37.023438 74.230469 37.269531 74.546875 37.589844 C 75 38.0625 75.113281 38.664062 75.113281 39.464844 C 75.113281 40.277344 75 40.878906 74.546875 41.351562 Z M 73.8125 38.15625 C 73.632812 37.976562 73.386719 37.882812 73.101562 37.882812 C 72.816406 37.882812 72.578125 37.976562 72.398438 38.15625 C 72.105469 38.445312 72.066406 38.945312 72.066406 39.464844 C 72.066406 39.984375 72.105469 40.484375 72.398438 40.777344 C 72.578125 40.957031 72.816406 41.058594 73.101562 41.058594 C 73.386719 41.058594 73.632812 40.957031 73.8125 40.777344 C 74.109375 40.484375 74.148438 39.984375 74.148438 39.464844 C 74.144531 38.945312 74.109375 38.445312 73.8125 38.15625 Z M 79.488281 41.351562 C 79.175781 41.671875 78.703125 41.917969 78.046875 41.917969 C 77.390625 41.917969 76.925781 41.671875 76.613281 41.351562 C 76.15625 40.878906 76.042969 40.277344 76.042969 39.464844 C 76.042969 38.664062 76.15625 38.058594 76.613281 37.589844 C 76.925781 37.269531 77.390625 37.023438 78.046875 37.023438 C 78.703125 37.023438 79.175781 37.269531 79.488281 37.589844 C 79.945312 38.0625 80.058594 38.664062 80.058594 39.464844 C 80.058594 40.277344 79.945312 40.878906 79.488281 41.351562 Z M 78.757812 38.15625 C 78.578125 37.976562 78.332031 37.882812 78.046875 37.882812 C 77.761719 37.882812 77.523438 37.976562 77.34375 38.15625 C 77.050781 38.445312 77.011719 38.945312 77.011719 39.464844 C 77.011719 39.984375 77.050781 40.484375 77.34375 40.777344 C 77.523438 40.957031 77.761719 41.058594 78.046875 41.058594 C 78.332031 41.058594 78.578125 40.957031 78.757812 40.777344 C 79.054688 40.484375 79.089844 39.984375 79.089844 39.464844 C 79.089844 38.945312 79.054688 38.445312 78.757812 38.15625 Z M 83.964844 41.859375 L 83.964844 41.351562 C 83.601562 41.785156 83.214844 41.917969 82.691406 41.917969 C 82.207031 41.917969 81.78125 41.757812 81.515625 41.492188 C 81.03125 41.011719 80.972656 40.191406 80.972656 39.464844 C 80.972656 38.738281 81.03125 37.929688 81.515625 37.449219 C 81.78125 37.183594 82.199219 37.023438 82.683594 37.023438 C 83.195312 37.023438 83.59375 37.144531 83.945312 37.5625 L 83.945312 35.148438 L 84.914062 35.148438 L 84.914062 41.859375 Z M 82.949219 37.882812 C 82.074219 37.882812 81.941406 38.617188 81.941406 39.464844 C 81.941406 40.3125 82.074219 41.058594 82.949219 41.058594 C 83.820312 41.058594 83.945312 40.3125 83.945312 39.464844 C 83.945312 38.617188 83.820312 37.882812 82.949219 37.882812 Z M 57.703125 35.925781 L 57.703125 35.074219 L 56.800781 35.074219 L 56.800781 35.925781 C 56.800781 35.925781 56.832031 36.585938 56.554688 37.0625 L 57.078125 37.554688 C 57.722656 37.101562 57.703125 35.925781 57.703125 35.925781 Z M 57.703125 35.925781 "/>
</g>
</svg>
