<svg version="1.0" xmlns="http://www.w3.org/2000/svg" width="210" height="100" viewBox="0 0 4470 1184">
  <path d="M1051.5 1.6c-2.7.3-15.6 1.8-28.5 3.5-42 5.5-90.5 18.8-127.5 34.8-9.9 4.3-18.7 8.1-19.5 8.5-4.9 2-40.8 22.6-44 25.2-1.4 1.1-8.1 6-15 10.9-6.9 4.8-15.4 11.3-19 14.4-3.6 3.1-8.7 7.4-11.5 9.6-4.3 3.4-18.1 17-37.1 36.6-3 3.1-5.4 6-5.4 6.5s-1.2 2.2-2.6 3.9c-1.4 1.6-3.8 4.6-5.3 6.5-1.4 1.9-2.8 3.7-3.1 4-2.7 2.6-12 15.8-17.9 25.5-4.1 6.6-8.3 13.3-9.5 15-2.7 3.8-5.3 8.3-6.7 11.5-.6 1.4-4.4 9-8.4 17s-7.6 15.6-8 17c-.4 1.4-1.3 3.8-2 5.5-2.6 6-11.3 31.1-12.5 36-.7 2.7-2.6 9.7-4.2 15.5-2.4 8.6-9.9 51.6-9.9 57-.1.8-.5 9.8-1 20-2.1 40.6 2.9 86.5 13.7 124.5 5.7 20.5 6.1 21.4 15.1 44 9 22.4 17.9 39.4 30 57.5 14.2 21.1 17.2 25.6 19.1 27.5 1.1 1.1 5.7 6.5 10.3 12 11.7 14 51.5 52.5 54.2 52.5.4 0 5 3.5 10.4 7.8 12.6 10.1 41 28.9 48.8 32.3 3.3 1.5 11.4 5.6 18 9.1s16.7 8.4 22.5 10.7c5.8 2.4 12.5 5.3 15 6.4 2.5 1.1 5.6 2.3 7 2.8 1.4.4 5.7 2 9.5 3.4 3.9 1.5 8.6 3.1 10.5 3.7 1.9.5 9.1 2.7 16 4.8 11.6 3.6 19.2 5.5 26.5 6.7 1.7.2 7.5 1.6 13 2.9 11.1 2.8 18 4 30 5.3 4.4.5 12.9 1.6 18.8 2.5 8.3 1.2 46.4 3.2 53.2 2.8.6-.1 7.5-.3 15.5-.6 28-1.1 48.7-3 71.5-6.6 12.9-2 47.3-10.1 61.3-14.4 20.3-6.3 27.1-8.8 46.2-17.1 4.7-2 10.1-4.2 12.1-5 3.6-1.3 14.8-7.1 23.1-11.8 2.4-1.4 6.8-3.5 9.8-4.8 3-1.3 9.6-5.1 14.7-8.4 5.1-3.3 13.2-8.6 18.1-11.7 23.1-14.8 58.9-46.8 77.9-69.8 5.3-6.3 10.5-12.4 11.7-13.5 1.1-1.1 6.3-8.3 11.5-16 5.2-7.7 10.9-16 12.6-18.5 3.5-4.9 21.4-39.9 23.9-46.5.8-2.2 3.4-9 5.9-15 5-12.3 7-18.6 12.3-39 3.9-14.9 3.9-15.3 8-40 3.7-23 5.2-55.8 3.8-83.6-1.1-20.7-1.5-24.2-3.4-33.9-1.2-5.8-1.8-10.1-2.6-17.5-.3-3.3-1-6.7-1.4-7.5-.4-.8-1.1-3.3-1.4-5.5-.4-2.2-1.8-7.3-3.2-11.3-1.3-4-2.4-8-2.4-8.9 0-.9-.4-3-1-4.7-.5-1.7-1.6-5.6-2.5-8.6-5.6-19.4-26-64.6-35.9-79.9-2.4-3.6-6.9-10.9-10.1-16.1-3.1-5.2-8.7-13.3-12.4-18-3.6-4.7-8.8-11.5-11.6-15.1-15.5-20.3-53.6-56.7-74-70.5-12-8.1-12.6-8.5-18.5-13-3-2.2-10-6.5-15.5-9.3-5.5-2.9-10.7-5.9-11.5-6.6-.8-.7-3.1-2-5-2.8-1.9-.9-5.1-2.5-7-3.6-1.9-1.1-8-3.8-13.5-6.1s-12.9-5.5-16.5-7.2c-19.2-8.9-73.8-24.9-99-28.9-35.6-5.8-40.8-6.2-86-6.4-23.9-.1-45.7-.1-48.5.1zm70 79.8c14.4.7 16.4.9 34.5 3.7 13.3 2 41.8 9.2 51 12.8 8.7 3.5 13.2 5.1 16.9 6.2 1.8.6 7.9 3.2 13.5 5.9 5.5 2.6 12.1 5.7 14.6 6.9 5.6 2.6 11.9 6.2 15.8 9 1.7 1.1 3.3 2.1 3.8 2.1.4 0 2.1 1.1 3.8 2.4 1.7 1.2 4.6 3.1 6.5 4.1 5.2 2.6 28.1 20.3 33.6 25.9 1.7 1.7 5.6 5.3 8.8 7.9 5.2 4.4 18.3 18.4 29.6 31.7 20.3 23.8 42.7 62.7 53.8 93.5 6.3 17.5 13.1 41.2 14.7 51.5 3 18.4 3.9 25.4 4.3 31 1.6 24.9 1.7 31.1 1.1 44.5-.9 16.9-4.6 41.3-8.4 55.5-1.4 5.2-3.2 12-3.9 15-.8 3-3.7 11.6-6.5 19-2.9 7.4-5.8 15.1-6.5 17.1-.8 2-2.8 6.1-4.6 9-1.7 3-4.5 8.3-6.2 11.9-1.7 3.6-4.6 9-6.5 12-9.1 14.3-16.8 25.8-20.8 30.7-2.5 3-5 6.1-5.7 7-6.1 7.6-37.3 39.6-41.4 42.3-1.1.8-6.6 5.1-12.2 9.5-11.1 8.9-21.5 16.5-22.5 16.5-.4 0-1.6.8-2.6 1.8-1.1 1-5.2 3.6-9.2 5.7-4 2.1-8.7 4.9-10.4 6.1-1.6 1.3-10.4 5.8-19.5 10-9 4.2-16.8 7.9-17.4 8.4-.5.4-9.1 3.5-19 6.8-20.5 6.9-41.4 12.4-56 14.7-5.5.9-11.1 1.8-12.5 2-9 1.6-37.3 2.7-55.9 2.1-33.5-1-69.6-7.7-98.2-18.2-6.6-2.4-12.6-4.4-13.2-4.4-.7 0-4.3-1.5-8.2-3.4-29.9-14.7-37-18.4-44.7-22.9-4.8-2.9-9.5-5.9-10.5-6.8-2-1.7-9-6.4-13.9-9.4-3.8-2.2-20.3-15.9-26.8-22-2.3-2.2-5.1-4.7-6.1-5.6-1.1-.9-5.8-5.5-10.4-10.3-7.3-7.5-12-13.1-25.9-30.2-2.4-2.9-3.3-4.3-14.8-21.9-12.6-19.4-27.8-53.4-34.4-77.2-3.4-12.3-8.9-38.8-10.8-51.8-1.8-12.5-1.9-57.3-.2-68.5.5-3.6 1.7-11.2 2.5-17 2.2-14.8 9.6-43 14-53.5.7-1.7 2.5-6.4 3.9-10.7 5.3-15 27.6-56.4 34.9-64.8 1.2-1.4 3.5-4.6 5.2-7.2 4.4-6.6 17.7-22.8 25.5-31 22.3-23.5 62.3-54.7 81.4-63.5 1.7-.7 4.5-2.2 6.1-3.3 1.7-1.1 4.8-2.7 7-3.7 2.2-.9 7.8-3.6 12.5-5.9 4.7-2.2 10.3-4.6 12.5-5.3 5.7-1.8 20.5-7.1 24-8.6 1.7-.8 10.4-3.1 19.5-5.3 17.3-4.2 23.9-5.5 41-7.7 1.9-.3 11.8-1 22-1.5 10.2-.6 19.1-1.2 19.9-1.3 2.1-.3 12.7 0 27.6.7zM2721.3 13.7c-9.6 11.2-22.5 25.6-26.3 29.3-4 4.1-22.4 23.9-35.8 38.6-12.1 13.3-12.1 14.3-.5 9.8 3.8-1.4 13.6-5 21.8-7.9 8.3-2.9 19.5-6.9 25-8.9s13.2-4.8 17-6.2c3.9-1.4 9-3.2 11.5-3.9 2.5-.8 9.5-3.2 15.5-5.5 6.1-2.3 15.1-5.4 20-7 5-1.5 18.9-6.2 31-10.4 12.1-4.2 32.6-11.3 45.5-15.7 36.1-12.2 47.3-16.4 47.8-17.7.3-.9-18.1-1.2-83.1-1.2h-83.5l-5.9 6.7zM555.9 107.8l-48.7.2-.7 2.8c-.4 1.5-7.4 19.6-15.6 40.2s-17.7 44.5-21 53c-3.4 8.5-7.1 18-8.4 21-3.1 7.3-8.1 19.9-21.5 54-11.5 29-19.3 48.1-21 51.2-.6 1-1 2.6-1 3.6 0 1.8 1.5 1.9 33.5 1.7 38.1-.2 34 .7 39.2-9.5 1.5-3 5-9.6 7.7-14.5 2.6-5 6.7-12.6 8.9-17s4.8-9.1 5.7-10.5c.9-1.4 4.4-7.7 7.7-14s10.9-20.5 16.8-31.5c6-11 13-24.3 15.7-29.5 2.7-5.2 7.8-14.7 11.3-21 3.5-6.3 8.2-14.9 10.5-19 2.2-4.1 6.1-11.6 8.6-16.5 2.5-5 6.7-12.8 9.3-17.5 2.6-4.7 6.5-11.7 8.5-15.5 2.1-3.9 4.3-7.6 4.9-8.3 2.8-3.5-.6-3.7-50.4-3.4zM1651.9 108.7c-.1 2.3.4 570.2.5 610.3l.1 30.5 46.8.3 46.8.2-.1-132.7c-.1-73.1-.1-133.4-.1-134.1.1-1 26.6-1.2 130.8-1l130.7.3 5.2 7.5c2.9 4.1 8 11.3 11.3 16 17.2 23.8 43.7 60.9 45.8 64 4.2 6.3 13 18.5 40.3 55.6 3.6 4.9 7.1 9.9 7.8 11.2.8 1.3 2.6 3.7 4 5.3 1.4 1.7 4.4 5.6 6.6 8.8 4.9 7.1 19.7 27.5 28.1 38.7 3.3 4.4 6.8 9.3 7.9 10.7 1 1.5 4.6 6.5 8 11.2 3.3 4.6 11 15.2 16.9 23.5l10.9 15h57.8c40.4 0 58.1-.3 58.6-1.1.3-.6-.5-2.3-1.8-3.7-2.6-2.9-7.8-9.6-29.8-38.7-7.4-9.9-16.5-21.8-20-26.4-3.6-4.6-8.6-11.3-11.3-14.9-2.6-3.6-5.1-6.8-5.5-7.1-.7-.6-14.3-18.4-17.2-22.8-1.5-2.1-24.6-32.8-26.2-34.8-1.2-1.3-18-24.4-24.3-33.1-4.9-6.9-19.7-28-26.8-38.4-2-3-6.9-10-10.8-15.5-3.8-5.5-9.6-13.7-12.7-18.3-3.1-4.6-6.1-8.9-6.6-9.6-1.9-2.8.6-4.3 14.9-9 17.6-5.8 15.6-5 36.4-15.4 9.3-4.6 21.2-11.5 27.1-15.7 13.5-9.5 31.7-26.7 38.6-36.4 3-4.2 7.5-10.5 10-14.1 15.6-21.7 29.3-65.8 29.4-94.2.1-14.6-4.5-40.3-10.3-58.3-2.8-8.8-6-18.3-7.2-21-2.7-6.9-15.7-29.4-22.8-39.5-4-5.7-21.6-23-27.7-27.3-2.6-1.7-9.9-6.7-16.1-11.1-8.1-5.6-15.2-9.4-24.4-13.3-7.1-3-15-6.3-17.5-7.3-3.9-1.7-10.1-3.5-15-4.5-.8-.2-8.7-2-17.5-4.1-30.2-7-33.5-7.1-266.2-7.3-193.8-.1-203.3-.1-203.4 1.6zm436.5 79.6c14.4 3.2 30.4 8.8 36.6 12.7 2.5 1.5 5.5 3.1 6.8 3.5 3.3 1 16.8 11.7 23.6 18.9 18.3 19 28.3 45.9 26.9 72.3-1.4 28.7-13.7 57.6-32 75.4-8.1 7.9-14.9 12.7-24.9 17.4-9.8 4.7-13.2 5.7-31.4 9.9-23.7 5.3-33.2 5.6-200.7 5.6H1745V295.2c0-59.9.3-109.2.7-109.6.4-.4 75-.5 165.8-.3l165 .3 11.9 2.7zM2.7 108.7c-.8 1.4-1.1 178-.8 478 .2 125.3.5 164.4 1.4 165 1.2.8 580.6.5 581.8-.3.5-.3.4-54-.1-69.3 0-1.2-36.1-1.3-245.4-.7-197.4.5-245.5.4-246.4-.6-1.1-1.4-1.4-100.1-1.5-413.1L91.6 108H47.4c-24.4 0-44.5.3-44.7.7zM2429.2 428.5c.3 176.3.7 320.7.9 320.9.2.3 130 .6 288.4.8l288 .3.1-34c0-18.7-.1-34.7-.3-35.6-.3-1.3-24.2-1.5-237.5-1.8-130.5-.1-237.6-.5-238-.7-.4-.3-.8-50.5-.8-111.6V455.7l178.4.6 178.4.6.4-4.3c.1-2.3.2-18.5 0-35.9l-.3-31.7-145.7-.1c-80.1 0-160.1-.1-177.7 0-17.6 0-32.5-.3-33.2-.7-.9-.6-1.1-24.6-1-102.2l.2-101.5 124 .1c68.2 0 173.5.2 234 .3 60.5.1 111.9.2 114.2.1h4.2l-.1-35.5c-.1-19.5-.4-35.5-.7-35.5-.3 0-61.1-.2-135.1-.5s-203.5-.7-287.9-1l-153.4-.6.5 320.6zM3372.7 121.2c-3 5.6-13.4 26-23.2 45.3-9.8 19.2-21.7 42.6-26.5 52-4.8 9.3-14 27.3-20.5 40-11.9 23.3-21.5 41.9-28.8 55.5-4.9 9.2-12.8 24.6-27.7 53.5-6.1 12.1-15.4 30.1-20.5 40-5.1 9.9-10.3 19.8-11.4 22-1.1 2.2-4.5 8.9-7.5 15-5.4 11-29.7 59.1-56.6 112-7.8 15.4-17.3 33.6-21 40.5-3.7 6.9-10.9 20.8-16 31s-9.8 19.2-10.4 20c-.7.8-6.1 11.2-12 23-10.2 20.3-27.2 53.5-35.7 69.9-2.2 4-3.9 8-3.9 8.7 0 1.2 9.3 1.4 56 1.4h55.9l19.4-38.7c24.1-48.3 51.8-102.7 56.6-111.3 2-3.6 4.6-8.2 5.6-10.4l2-3.8 154 .1c131.6.2 235.2.6 237.7 1 .7.1 8.2 14.1 20.8 38.6 15.5 30.1 23.9 46.2 28.2 54 2.5 4.4 8 15 12.3 23.5 12.3 24.3 20.4 40.2 22.8 44.1l2.1 3.6 15 .6c27.3 1 95.3.9 96-.1.3-.6-.8-3.6-2.5-6.9-12.4-23.4-24.8-47.1-34.7-66.3-6.3-12.4-11.8-23-12.2-23.5-1-1.3-15-28.3-21.2-40.8-2.7-5.4-6.1-11.7-7.5-14-1.5-2.3-8.8-16.4-16.3-31.2-7.5-14.9-17.5-34.4-22.2-43.5-11-21.1-18.1-34.9-35.7-69.5-7.9-15.4-14.6-28.5-15.1-29-.4-.6-6.8-12.8-14.1-27.3-7.4-14.4-14.7-28.6-16.2-31.5-1.6-2.8-6.9-13.3-11.9-23.2-5-9.9-10.8-20.9-12.8-24.5-2.1-3.6-9.6-18-16.8-32-7.1-14-14.4-28.2-16.2-31.5-1.8-3.3-8.5-16.2-14.9-28.7s-13.1-25.6-14.9-29c-1.8-3.5-12.6-24.5-23.9-46.8-11.3-22.3-20.7-40.7-20.9-40.9-.1-.1-28.8-.5-63.7-.8l-63.5-.5-5.5 10.4zm71.8 86.5c4.3 9.3 25.7 51.7 27.8 55 1.2 2.1 5.6 10.5 9.7 18.8 4.1 8.2 13.3 26.2 20.6 40 7.2 13.7 16.9 32.6 21.6 42 4.6 9.3 9.6 19 11 21.5 1.4 2.5 10 19.1 19 37s22.2 43.6 29.2 57.3c7 13.6 12.5 25.1 12.2 25.6-.5.8-305.6.3-306.5-.4-.2-.3 17.2-35.5 23.3-47 .8-1.7 9.3-18.5 18.7-37.5 19.6-39.6 57.1-113.7 63.2-124.9 8.2-15.3 27-52.1 35.7-70 11.6-23.7 11.6-23.7 14.5-17.4zM3883.5 432.7c.4 175.4 1 319.1 1.3 319.4.4.4 132.1.8 292.7 1l292 .4-.1-34.7c0-19.1-.2-35-.5-35.2-.2-.3-110.7-.6-245.4-.7-134.8-.1-245.6-.4-246.2-.6-1-.4-1.3-54.7-1.4-254.1-.1-139.6-.3-267.2-.3-283.7l-.1-30-46.4-.3-46.3-.2.7 318.7zM2876.8 913.5c-.5.5-23.4 1.8-27.7 1.6-4.6-.2-23.9 4.2-37.6 8.6-7.8 2.5-19.4 8.1-22.6 10.9-.8.8-1.9 1.4-2.3 1.4-.9 0-13.7 10.7-15.9 13.4-12.3 14.8-18 37.5-13.8 54.9 1.6 6.7 6.4 16 10.8 20.8 3.3 3.6 19 14.9 20.8 14.9.4 0 4.2 1.6 8.6 3.5 9.9 4.3 19.5 6.8 42.9 11.1 10.2 1.8 23 4.2 28.5 5.3 5.6 1.1 12.1 2.2 14.5 2.5 8.5 1.1 16.5 2.5 25.5 4.6 5 1.1 12.6 2.7 17 3.5 9.6 1.9 30.3 9.7 36.3 13.7 5.9 4.1 8.8 9 10.6 18.3 2.1 10.6 1 16.6-4.5 25.2-2.3 3.5-4.5 6.3-5 6.3-.4 0-2.4 1.3-4.2 3-11.9 10.4-54.5 18.4-83.7 15.7-3.6-.3-10.1-.8-14.5-1.2-8.5-.6-12.7-1.6-29.5-7.1-12.4-4-22.2-10-28.9-17.6-5.4-6-10.8-17.1-11.6-23.8-1-7.4-1.3-8.8-1.9-9.8-.3-.5-10.3-.8-22.3-.8l-21.7.1-.7 3.5c-.4 1.9-.5 3.8-.2 4.3.3.4.7 3.1 1 6 .7 7 4.9 20.3 7.9 24.9 1.3 2.1 2.4 4.2 2.4 4.8 0 .5.4 1 .8 1 .5 0 1.9 1.8 3.1 4 1.2 2.2 3.5 4.8 4.9 5.8 1.5.9 3.9 2.8 5.3 4.2 7.3 7 11.2 9.7 22.4 15.3 29.4 14.7 68.6 20 118.8 16.1 22.5-1.7 37.7-4.6 53.2-10 33.3-11.8 51.8-30.3 55.9-56 2.5-15.9-1.1-33.5-9.2-44.9-3.7-5.2-14-15.5-15.6-15.5-.5 0-5.7-2.7-11.5-5.9-8.7-4.9-13.1-6.6-24.6-9.6-7.7-2-14.2-3.8-14.6-4-.3-.3-23.5-4.3-51.5-9s-54.3-9.4-58.4-10.4c-10.2-2.6-18.3-6.3-24-11.3-4.5-3.9-5-4.8-6.5-11.6-3.3-14.9 1.8-27.1 15.3-36.3 7.1-4.8 9.2-5.6 24.6-9.4 14.1-3.5 15.5-3.6 32.9-3.7 21.4-.2 31.3 1.1 46.2 5.9 18 5.7 27.9 11.5 33.7 19.8 3.8 5.3 4.7 7.5 7.2 17l2.1 8 22.9.3 22.8.2-.5-2.2c-.3-1.3-1.5-7.3-2.8-13.3-1.6-7.7-3.3-13-5.9-17.8-3.5-6.5-13.6-19.7-15-19.7-.4 0-4.2-2.5-8.5-5.6-4.3-3.1-10.1-6.4-12.9-7.4-2.8-1-6.9-2.7-9.1-3.8-2.2-1.1-6.2-2.5-9-3.1-32-7.4-33.3-7.5-58.2-8.5-5.6-.3-10.6-.7-11.1-1-.5-.3-1.1-.3-1.4-.1zM2588.2 940.2l.3 23.3 23.3.3 23.2.2.1-3.2c.1-3.7 0-34.3 0-40.1l-.1-3.7h-47l.2 23.2zM1474.6 919.7c-.1.1 0 24.2.1 53.5s.2 86.9.3 128.1v74.7l24.8-.2 24.7-.3v-107l63-.6c38.3-.4 66.9-1.1 73-1.8 48.4-5.8 81.1-32.7 84.1-69.4 2.1-26.7-10.4-47.7-36.9-62.1-14.2-7.7-31.3-12.6-50.2-14.3-4.6-.4-182.4-1-182.9-.6zm160.9 30.8c14.4 1.2 18.7 2 27.9 5 21.1 7 28.3 15.4 29.3 34 .6 10.7-1.2 18-6.1 25.2-4.8 7.1-11.7 11.4-24.8 15.6-15.3 4.8-26.3 5.6-87.8 5.9l-49.5.3-.3-42.4c-.1-30 .1-42.8.9-43.7 1.6-2 87-1.9 110.4.1zM1904.3 921.2c-1.2 1.3-3.3 4.5-4.7 7.3-1.4 2.7-3 5.7-3.6 6.5-.5.8-2.2 3.7-3.7 6.3-1.5 2.7-3.6 6.1-4.5 7.5-.9 1.5-3 4.9-4.6 7.7-1.6 2.7-3.8 6.6-4.9 8.5-1.1 1.9-3.6 6.2-5.5 9.5-2 3.3-10.4 17.7-18.8 32s-19.2 33-24 41.5c-10.4 18.4-36.6 63.9-38 66-.6.8-1.3 2.2-1.7 3-.3.8-3 5.6-6 10.7-2.9 5-5.3 9.4-5.3 9.7 0 .6-1.9 3.8-7.7 13.2-.7 1-2.8 4.6-4.8 7.9-2 3.3-4.7 7.8-6 10-4.8 7.9-6 7.6 25.2 7.3l27.8-.3 3.6-6c1.9-3.3 5.7-10 8.4-15s7.5-14 10.8-20c3.3-6.1 7.6-14.2 9.7-18 2-3.9 4.8-8.9 6.3-11.3l2.7-4.2h156.7l2.7 4c1.4 2.2 4.4 7.7 6.5 12.2 2.2 4.6 8.8 17.3 14.6 28.3 5.8 11 11.5 21.9 12.6 24.3 1.2 2.5 3.1 4.7 4.5 5.2 3.4 1.3 57.1 1.2 57.9-.1.4-.5-3.3-7.8-8.2-16.2-4.9-8.4-10.1-17.5-11.5-20.2-1.4-2.8-12.9-23.4-25.5-46s-25.1-45.1-27.8-50c-2.7-5-7.9-14.2-11.7-20.6-3.7-6.4-6.8-11.9-6.8-12.2 0-.3-1.7-3.4-3.9-6.8-2.1-3.5-5.4-9.3-7.3-12.9-8.8-16-38.5-67.9-40-69.8-.8-.9-8.3-1.2-31.2-1.2-30.1 0-30.3 0-32.3 2.2zm36.2 48.5c3 6 8.5 16.4 12.1 23.3 3.6 6.9 9.4 17.9 12.9 24.5 6.8 13.1 18.6 35.1 22.8 42.9 3 5.4 3.4 7.6 1.5 7.7-8.5.4-115.1.3-115.9-.2-1.3-.8 0-3.4 13.8-27.8 5.8-10.1 11.7-20.7 13.2-23.5 1.6-2.8 3.7-6.7 4.8-8.6 7.9-13.8 15-26.3 17.3-30.5 6.6-12.2 10.6-18.5 11.6-18.5.2 0 2.9 4.8 5.9 10.7zM2196.4 920.4c-.9 2.3.1 253.4 1 254.3.9.9 46.1 1.2 47.6.3.6-.4 1.1-19.3 1.2-54.1l.3-53.4 48.5-.1c38.2-.1 48.9.1 50.6 1.2 1.2.7 5.4 6.1 9.4 12.1 4 5.9 8.6 12.5 10.2 14.5 3.8 4.8 17.5 24.5 33.3 47.8 5 7.4 11.8 17.3 15.1 22l6 8.5 27.4.6c15.1.3 27.9.2 28.4-.2.9-.8-4.5-8.6-16.9-24.4-6.2-8-9.1-11.9-16.3-22-5-6.9-15.4-21.1-40.2-54.3-7.2-9.5-7.1-10.2 1.7-12.2 7.8-1.9 23.4-9.2 30.8-14.5 11.7-8.4 22.1-21.8 25.6-33 1.5-4.7 4.9-24.7 4.3-25.6-.2-.4-.7-3.4-1-6.6-1.2-12-9.7-26.9-20.8-36.6-3.5-3.2-6.7-5.7-7-5.7-.4 0-3.4-1.7-6.9-3.8-7.9-4.8-24-10.4-38.2-13.3-10.9-2.2-12.2-2.3-102.3-2.6-81.8-.4-91.3-.3-91.8 1.1zM2353 950c16.2 1.2 32.8 4.8 41.4 9.2 5 2.6 12.7 10.3 14.9 15 6.5 13.7 3 36.2-6.8 44.6-1.8 1.5-4.3 3.6-5.6 4.7-1.3 1.1-8 3.9-14.9 6.2-10.8 3.6-14.4 4.3-26.5 5.2-18.8 1.5-108.2 1.5-109 0-.8-1.1-1.3-84.7-.6-85.5.9-.9 92.3-.4 107.1.6zM2589.7 989.7c-.9.9-.8 184.3.1 184.3 16.6.1 45 .2 46 .1s1.2-17.3.9-92.4l-.4-92.2-23-.3c-12.6-.1-23.2.1-23.6.5z"/>
</svg>