<svg xmlns="http://www.w3.org/2000/svg" width="210" height="100" viewBox="0 0 52 42">
  <path style="stroke:none;fill-rule:nonzero;fill:#444492;fill-opacity:1" d="M49.496 40.273h1.402v-9.777h-1.402Zm0 0"/>
  <path style="stroke:none;fill-rule:evenodd;fill:#444492;fill-opacity:1" d="m34.125 31.781-.684.067-.714.23c-3.106 1.406-2.63 6.176.714 6.91l.684.067.719-.067c3.488-.691 3.703-5.777.683-6.91l-.683-.23Zm0-1.351h.586l.488.066c5.457 1.422 5.012 9.145-.586 9.84h-.976c-5.594-.832-6.028-8.41-.489-9.84l.489-.066ZM4.391 31.648h-.356l-.262.067-.293.133-.292.23-.133.195-.13.297-.066.262v.363l.067.2.066.292.196.231.226.133.621.265 1.953.723.422.195.293.23.36.43.261.43c1.348 3.867-4.21 5.676-5.96 2.336l-.196-.594-.066-.625h1.335l.067.43.129.36.226.265.196.293.297.133.257.133.36.097h.715l.261-.097.36-.133.293-.133c.722-.852.824-1.836-.23-2.465l-.552-.297-.78-.199-.848-.297-.622-.36-.488-.362-.355-.395-.196-.594-.097-.625.097-.558.13-.559.292-.496.324-.36.426-.363c1.235-.843 3.008-.586 4.004.625l.36.426.195.563.066.59H5.922l-.067-.36c-.12-.562-.628-.953-1.171-1.055Zm38.007-1.152h4.559v1.352H42.82v3.125h4.137v1.351H42.82v3.95h-1.398v-8.79l.062-.43.23-.261.294-.23ZM20.805 32.77v7.503h-1.399v-8.855l.063-.426.23-.265.258-.23.426-.067h.226l.262.133.129.164.23.199L25.43 38l.066-7.504h1.399v8.856l-.063.425-.195.297-.36.2-.359.062h-.262l-.226-.063-.196-.132-.164-.23Zm-7.782-.43-1.402 3.883h2.867Zm-1.89 5.168-.977 2.765h-1.5l3.453-9.218.133-.262.227-.23.261-.067.293-.066.293.066.258.067.23.23.13.262 3.418 9.218h-1.465l-.977-2.765Zm0 0"/>
  <path style="stroke:none;fill-rule:nonzero;fill:#bca36a;fill-opacity:1" d="m38 9.137-.781-.989-.36-.425-.422-.364c-1.82-1.59-4.277-1.183-6.382-.496l-1.66.496-.848.23c-2.293.473-4.7.216-5.633-2.273l-.133-.656-.062-.625.129-.625.226-.66C22.95.555 26.25 0 28.297.578l1.008.2.914.296c2.793.93 5.011 2.867 6.578 5.364l.488.855Zm0 0"/>
  <path style="stroke:none;fill-rule:evenodd;fill:#444492;fill-opacity:1" d="m38.133 9.5.129.754.226.855c.532 4.246-1.07 8.715-4.43 11.391l-.976.79-.977.558c-3.703 2.109-8.488 2.05-12.148-.133l-.844-.559-.847-.656.652.23.684.13c3.332.527 6.164-.434 8.14-3.258l.781-1.282.622-1.254c1.55-3.511 2.687-7.386 7.097-7.734h.91Zm0 0"/>
  <path style="stroke:none;fill-rule:evenodd;fill:#acb317;fill-opacity:1" d="m21.652 21.512-.652.297c-5.11 1.296-7.586-5.739-7.195-9.711l.062-.692.488.625.555.563c2.3 2.43 4.402 2.246 7.102 3.75l.258.297.23.261c.977 1.25.762 2.961-.23 4.118l-.356.23Zm0 0"/>
</svg>