<svg xmlns="http://www.w3.org/2000/svg" xml:space="preserve" width="50" height="80" viewBox="0 0 350 550">
  <path d="M248.9 509.4h-27.4v-16h27.4c10.1 0 11.5 3.8 11.5 8 0 3.7-1.2 8-11.5 8zm-27.4-45h27.4c7.3 0 8.2 3.8 8.2 6.7 0 5.2-2.9 8-8.2 8h-27.4v-14.7zm45 20.3c2.4-2.7 5-6.9 5-13.6 0-14.5-11.4-21.1-22.6-21.1H207v73.9h41.9c15.8 0 25.9-8.8 25.9-22.4 0-8.2-4.3-13.9-8.3-16.8zm-113.1 8h42.5v-14.4h-42.5v-13.8h46.9V450H139v73.9h63v-14.4h-48.6v-16.8zm-53-14.8h-9.2c-9.6 0-9.6-4-9.6-5.7 0-6.8 10.4-9.2 17.5-9.2 9.6 0 14.3 2.9 19.2 5.9l3.9 2.4 1.1-1.7 6.9-9.8-1.8-1.3c-8.9-6.5-18.8-9.8-29.7-9.8-15.3 0-31.6 8.3-31.6 23.6 0 13.7 11.8 20 22.7 20H100c10.6 0 19.5.7 19.5 9.2 0 7.1-12.2 9.6-19.9 9.6-13.3 0-19.9-5.1-24.3-8.6l-4-3-1.2 1.3-8.7 8.3 2.1 2c4.7 4.6 14.4 14.2 35.5 14.2 17.4 0 35-7.4 35-23.9.2-15.6-11.1-23.5-33.6-23.5zm-2.7-47.2c0 5.6-6 9.2-13.9 9.2-8.5 0-16.8-5.1-16.8-16.3 0-8.3 6.8-15.9 16.9-15.9 7.5 0 11.4 4 13.2 5.7l-2.5 2.6c-1.9-1.6-5.4-4.7-10.5-4.7-8.2 0-13.4 5.9-13.4 12.3 0 7.4 5.2 12.6 13.3 12.6 6.8 0 10.1-3.1 10.1-5.8v-4.3H83.5v-3.6h14.2v8.2zm23.3-7.8c4.1 0 7.4-.5 7.4-5.5 0-3.8-3.4-5.2-6.7-5.2h-13.9v10.7H121zm10.3 16.4h-4.1l-7.1-12.8h-12.2v12.8h-3.6v-30.8h15.3c4.6 0 12.5.9 12.5 8.8 0 6.7-4.3 8.8-7.9 9.1l7.1 12.9zm22-2.9c7.4 0 12.9-5.6 12.9-12.5s-5.5-12.5-12.9-12.5-12.9 5.6-12.9 12.5c-.1 6.8 5.4 12.5 12.9 12.5zm0-28.6c9.4 0 16.6 7.4 16.6 16.1 0 8.7-7.1 16.1-16.6 16.1-9.4 0-16.6-7.4-16.6-16.1 0-8.6 7-16.1 16.6-16.1zm50.4 19.6c0 7.9-4.1 12.6-13.6 12.6-9.7 0-13.6-4.7-13.6-12.6v-18.8h3.6v18.8c0 6.5 3.5 9 9.9 9 6.5 0 10-2.5 10-9v-18.8h3.6v18.8h.1zm26.7-4.8c3.5 0 6-1 6-5.1 0-4.3-3-5.2-6-5.2H217v10.3h13.4zM217 439.3h-3.6v-30.8h17c3.8 0 9.7 1.5 9.7 8.8 0 6.5-4.3 8.8-9.7 8.8H217v13.2zm54.2 0h-24.5v-30.8h24.5v3.6h-20.9v9.4h20.9v3.6h-20.9v10.6h20.9z" style="fill:#8d7d74"/>
  <path d="M133.7 394.5v-42.6l-33.3-27.5-33.3 27.5v42.6zm58-130.4c-48-13.9-64.4-19.1-64.4-39.3 0-16.1 12.3-27.4 30-27.8h2.9c13.5.3 23.8 7 28 17.3.3.6.6 1.5 1.1 3.2 1.7 5.4 2.3 10.9 2.1 16.2v7.1h59.4V25.3h-61.3v120.5c-10.5-3.3-20.9-4.8-29.8-4.8-55.1 0-91.6 40-93.1 82.9-.1 1.3-.1 2.8-.1 4.1 0 55.5 38 73.8 73.5 86.7l2.6.9v-.1c3.5 1.2 6.9 2.5 10 3.6 31.4 11.1 61.5 21 61.5 49.5 0 10.1-2.7 18.8-7.4 25.7H271c2.5-9.3 3.7-19 3.7-29.3.2-76.6-67.5-96.4-83-100.9z" style="fill:#e42618"/>
</svg>